<ttFont>
          <CharString index="0">
            hstemhm
            142 81 hintmask 10110110
            213 105 rmoveto
            33 1 50 3 108 vhcurveto
            3 17 30 4 30 hhcurveto
            54 86 -3 0 hvcurveto
            14 59 -4 5 rlineto
            0 -86 -11 -36 vhcurveto
            -30 -51 1 -22 hhcurveto
            8 194 rlineto
            37 1 4 2 65 hhcurveto
            141 12 -6 -65 -14 -2 -29 0 hvcurveto
            48 40 callsubr
            17 74 0 vvcurveto
            -3 callsubr
            -9 -66 -75 -3 -159 hhcurveto
            -60 -79 3 0 -20 callgsubr
            hintmask 01101110
            -82 callsubr
            -57 -18 -19 -60 -8 -55 callgsubr
            hintmask 10110110
            0 63 10 76 95 208 -7 0 vhcurveto
            36 callgsubr
            85 18 83 46 callgsubr
            -44 -5 rlineto
            -110 -16 -19 -12 -158 hhcurveto
            -72 -7 6 54 hvcurveto
            return
          </CharString>
          <CharString index="1">
            -102 callsubr
            hintmask 10010000
            0 61 7 65 30 61 -2 -12 callsubr
            36 -2 4 -45 4 -17 13 -13 38 rlinecurve
            -185 321 rmoveto
            7 hlineto
            61 -194 rlineto
            -2 -19 -33 -2 -21 hhcurveto
            -68 hlineto
            return
          </CharString>
          <CharString index="2">
            rmoveto
            29 21 23 27 22 -14 21 -27 -29 -21 -23 -27 -21 14 -22 27 hvcurveto
            -166 hmoveto
            29 21 23 27 22 -14 21 -27 -29 -21 -23 -27 -21 14 -22 27 hvcurveto
            endchar
          </CharString>
          <CharString index="3">
            hstemhm
            hintmask 11010000
            650 5 rmoveto
            210 540 14 39 11 7 39 2 rlinecurve
            7 47 rlineto
            0 -60 -3 -46 -64 -75 7 0 vhcurveto
            -7 -43 rlineto
            hintmask 10110000
            -75 callsubr
            50 hlineto
            48 20 -10 -25 -30 -112 -300 -50 -135 hvcurveto
            -6 hlineto
            0 -124 430 33 vvcurveto
            29 18 8 69 -3 callgsubr
            hintmask 11010000
            0 -85 -11 -60 -33 -80 -45 callgsubr
            hintmask 10110000
            -7 -43 rlineto
            hintmask 11010000
            2 -4 49 -2 28 -15 13 -40 rlinecurve
            18 -55 -141 -384 rlineto
            -6 hlineto
            0 -123 425 39 vvcurveto
            28 18 8 68 -3 callgsubr
            0 -74 -11 -71 -33 -80 -45 callgsubr
            hintmask 10110000
            -6 -43 rlineto
            hintmask 11010000
            -1 1 -2 -1 vvcurveto
            50 -1 28 -18 12 -38 rrcurveto
            84 -260 83 -293 0 vvcurveto
            64 22 142 402 rlineto
            6 hlineto
            68 -219 57 -205 0 vvcurveto
            return
          </CharString>
          <CharString index="4">
            348 39 rmoveto
            -131 -91 119 171 154 85 106 124 135 93 -119 -171 -154 -88 -106 -127 hvcurveto
            -31 -51 rmoveto
            189 146 154 199 182 -116 126 -167 -185 -144 -154 -198 -183 113 -126 164 hvcurveto
            return
          </CharString>
          <CharString index="5">
            hstemhm
            hintmask 10010000
            427 93 rmoveto
            -103 callgsubr
            hintmask 01110000
            2 19 37 4 30 hhcurveto
            22 41 0 -1 20 hvcurveto
            24 -77 rlineto
            5 -13 2 -12 -9 vvcurveto
            -19 -15 -6 -56 -4 vhcurveto
            -3 -36 3 -5 rlineto
            return
          </CharString>
          <CharString index="6">
            295 39 rmoveto
            -101 -68 87 134 116 63 75 95 104 70 -86 -134 -116 -66 -76 -97 hvcurveto
            -24 -48 rmoveto
            156 117 117 158 145 -93 96 -140 -154 -116 -116 -158 -145 92 -97 138 hvcurveto
            return
          </CharString>
          <CharString index="7">
            hstemhm
            hintmask 01111000
            493 113 rmoveto
            -75 225 -84 311 0 vvcurveto
            -8 hlineto
            -63 -17 -195 -511 -22 -56 -19 -17 -37 -4 rlinecurve
            -8 -47 rlineto
            0 62 3 48 66 73 -7 -41 callsubr
            43 -2 4 rlineto
            -57 hlineto
            -42 -18 12 29 9 3 12 6 18 hvcurveto
            37 104 rlineto
            3 23 47 5 39 hhcurveto
            28 52 0 -1 24 hvcurveto
            33 -109 rlineto
            6 -19 3 -16 -13 vvcurveto
            -24 -20 -9 -69 -5 vhcurveto
            -4 -39 rlineto
            hintmask 10111000
            3 -7 rlineto
            return
          </CharString>
          <CharString index="8">
            551 145 rmoveto
            0 -170 238 -166 258 vhcurveto
            0 -34 -4 -33 -28 -58 5 0 vhcurveto
            -8 -37 3 -5 rlineto
            67 -7 20 -14 -41 vvcurveto
            -13 -437 -1 -41 -20 -17 -41 -5 rlinecurve
            -5 -46 rlineto
            0 53 8 40 43 63 -4 0 vhcurveto
            9 45 -2 4 rlineto
            0 -41 -1 -10 -23 -8 10 30 vhcurveto
            5 427 rlineto
            5 hlineto
            0 177 -247 195 -304 vhcurveto
            29 14 14 562 1 39 21 18 46 6 rlinecurve
            return
          </CharString>
          <CharString index="9">
            hstem
            40 90 vstem
            339 -12 rmoveto
            119 86 40 0 hvcurveto
            6 9 rlineto
            7 72 20 91 0 vvcurveto
            -48 -4 rlineto
            -108 -25 -54 -50 -91 hhcurveto
            -138 -91 116 176 159 86 101 134 98 49 -31 -62 -22 -3 -27 0 hvcurveto
            48 40 callsubr
            19 75 0 vvcurveto
            6 callgsubr
            -91 24 -83 -202 -147 -149 -203 -189 117 -120 182 vhcurveto
            return
          </CharString>
          <CharString index="10">
            -20 hstem
            561 4 rmoveto
            165 416 11 31 9 6 30 2 rlinecurve
            6 41 rlineto
            0 -50 -2 -39 -51 -63 5 -30 callsubr
            -38 -75 callsubr
            38 hlineto
            38 14 -7 -19 -23 -88 -239 -36 -89 hvcurveto
            -7 hlineto
            0 -94 322 27 vvcurveto
            22 13 5 56 4 vhcurveto
            3 36 -3 -51 callsubr
            -70 -8 -52 -30 -68 -36 callgsubr
            2 -3 40 -2 21 -10 10 -30 rlinecurve
            4 -12 4 -14 5 -13 -36 -95 -40 -114 -34 -85 rrcurveto
            -6 hlineto
            0 -94 319 30 vvcurveto
            22 13 5 55 4 vhcurveto
            4 36 -3 -51 callsubr
            -63 -8 -60 -29 -65 -36 callgsubr
            rlineto
            1 -1 1 -1 -1 vvcurveto
            39 -2 21 -14 10 -30 rrcurveto
            63 -185 69 -241 0 vvcurveto
            72 17 109 297 rlineto
            5 hlineto
            51 -156 42 -146 2 -12 rrcurveto
            return
          </CharString>
          <CharString index="11">
            hstem
            40 87 vstem
            588 307 rmoveto
            0 -43 -5 -43 -59 -68 4 0 vhcurveto
            -9 -50 -75 callsubr
            69 hlineto
            45 10 -9 -45 hvcurveto
            -122 vlineto
            0 -57 -38 -80 -138 -90 115 176 166 89 95 152 106 45 -26 -62 -27 -3 -27 0 vhcurveto
            47 40 callsubr
            20 75 0 vvcurveto
            6 callgsubr
            -111 24 -83 -209 -142 -143 -209 -189 114 -120 178 127 103 46 -41 callsubr
            9 rlineto
            -4 17 -3 36 35 vvcurveto
            99 7 35 24 20 vhcurveto
            return
          </CharString>
          <CharString index="12">
            0 72 10 77 34 72 -38 callgsubr
            7 41 -2 4 -58 5 -22 16 -16 50 rlinecurve
            -216 427 rmoveto
            7 hlineto
            79 -262 rlineto
            -2 -23 -43 -3 -27 hhcurveto
            -88 hlineto
            return
          </CharString>
          <CharString index="13">
            hstem
            41 88 vstem
            286 -9 rmoveto
            99 72 31 0 hvcurveto
            6 8 rlineto
            5 59 16 74 0 vvcurveto
            -50 -4 rlineto
            -82 -19 -41 -36 -70 hhcurveto
            -107 -68 84 134 121 64 72 104 75 37 -23 -47 -19 -2 -20 0 hvcurveto
            50 3 rlineto
            5 76 16 60 0 vvcurveto
            6 callgsubr
            -78 19 -68 -168 -119 -113 -161 -149 95 -93 150 vhcurveto
            return
          </CharString>
          <CharString index="14">
            -20 hstemhm
            hintmask 01101000
            -23 callgsubr
            3 33 -3 -51 callsubr
            -75 -6 -45 -37 -57 -47 callsubr
            -36 2 -4 61 -7 9 -20 31 -59 rlinecurve
            75 -144 rlineto
            20 -37 4 -20 -29 vvcurveto
            -31 vlineto
            -56 -6 -15 -60 -10 vhcurveto
            -6 -41 rlineto
            hintmask 10101000
            0 60 9 42 38 74 -38 callgsubr
            8 42 -2 -31 callgsubr
            -24 -2 -16 -29 -9 13 39 1 vhcurveto
            1 76 0 26 16 28 81 138 rcurveline
            42 69 10 20 54 12 5 34 rcurveline
            -3 -51 callsubr
            -45 -3 -33 vhcurveto
            hintmask 10011000
            -32 -58 5 -6 hhcurveto
            -5 -36 2 -3 rlineto
            34 -2 15 -7 -13 vvcurveto
            -10 -5 -14 -8 -14 vhcurveto
            -86 -154 rlineto
            -5 hlineto
            -3 6 -83 161 21 vvcurveto
            return
          </CharString>
          <CharString index="15">
            -90 callgsubr
            3 40 rlineto
            return
          </CharString>
          <CharString index="16">
            0 21 1 12 24 6 -9 -33 -37 callsubr
            -44 -13 -14 -51 -9 vhcurveto
            -5 -41 rlineto
            return
          </CharString>
          <CharString index="17">
            169 191 rmoveto
            6 229 2 29 10 10 39 5 rlinecurve
            4 40 rlineto
            0 -54 -6 -35 -35 -64 2 -13 callsubr
            -3 rlineto
            return
          </CharString>
          <CharString index="18">
            3 0 vhcurveto
            -7 -44 2 -4 rlineto
            -80 callgsubr
            return
          </CharString>
          <CharString index="19">
            rmoveto
            -41 1 13 -16 33 hhcurveto
            85 91 68 61 43 -29 29 -58 16 hvcurveto
            5 vlineto
            43 20 27 34 34 vvcurveto
            44 -37 31 -52 -46 -58 -36 -7 -9 vhcurveto
            10 -37 rlineto
            7 hlineto
            17 21 29 11 22 hhcurveto
            27 17 -16 -25 -25 -22 -26 -31 -15 hvcurveto
            -42 -9 4 -32 rlineto
            hintmask 11000000
            5 -5 rlineto
            72 32 -18 -42 -36 -41 -28 -55 -18 -18 3 5 -17 hvcurveto
            endchar
          </CharString>
          <CharString index="20">
            rmoveto
            62 -47 32 -107 11 vhcurveto
            5 77 rlineto
            72 64 -5 0 hvcurveto
            6 6 16 85 -29 -3 -7 -19 -9 -5 -24 -1 rlinecurve
            -125 -4 -5 -5 rlineto
            0 -4 -87 -7 -81 vhcurveto
            hintmask 11010000
            6 -7 rlineto
            88 -4 39 -21 -42 vvcurveto
            -40 -39 -29 -57 -18 -18 3 5 -18 vhcurveto
            -6 -7 rlineto
            -41 3 12 -16 32 hhcurveto
            86 91 71 65 hvcurveto
            endchar
          </CharString>
          <CharString index="21">
            0 -79 -6 -50 -59 -95 1 0 vhcurveto
            -10 -45 -4 callgsubr
            0 85 1 59 vhcurveto
            142 1 7 47 rlineto
            endchar
          </CharString>
          <CharString index="22">
            0 65 12 51 47 84 -78 callsubr
            -29 -3 -24 -35 -9 14 54 vhcurveto
            return
          </CharString>
          <CharString index="23">
            0 -59 -7 -35 -29 -67 -15 callgsubr
            92 -171 rmoveto
            138 -191 rlineto
            -43 31 32 -23 29 hhcurveto
            10 65 9 0 hvcurveto
            5 31 -4 5 -38 1 -26 18 -38 48 rlinecurve
            -130 166 120 119 49 50 19 15 30 8 rlinecurve
            6 36 6 callgsubr
            -49 -3 -32 -31 -62 5 -30 callsubr
            -38 -75 callsubr
            34 -2 15 -8 -14 vvcurveto
            -11 -8 -13 -16 -15 vhcurveto
            -140 -139 rlineto
            return
          </CharString>
          <CharString index="24">
            rmoveto
            34 25 27 32 26 -17 25 -32 -34 -25 -27 -32 -25 16 -26 33 hvcurveto
            endchar
          </CharString>
          <CharString index="25">
            -80 callgsubr
            -1 -420 rlineto
            return
          </CharString>
          <CharString index="26">
            0 17 1 11 22 7 -8 -33 vhcurveto
            -1 -319 rlineto
            -45 -12 -11 -49 -6 vhcurveto
            -7 -41 rlineto
            0 56 4 44 -1 vhcurveto
            38 54 -1 -1 hvcurveto
            8 38 -2 3 rlineto
            -53 1 -6 7 55 vvcurveto
            2 107 rlineto
            2 52 rmoveto
            52 3 52 5 76 vhcurveto
            return
          </CharString>
          <CharString index="27">
            0 43 -31 -21 227 48 185 47 -39 -20 61 -20 27 -12 callgsubr
            78 368 71 hintmask 1011000110000000
            193 95 rmoveto
            3 118 rlineto
            2 14 24 3 25 hhcurveto
            38 62 -2 0 hvcurveto
            11 53 -4 5 rlineto
            0 -61 -8 -25 vhcurveto
            -83 1 7 155 rlineto
            27 1 3 2 50 hhcurveto
            94 10 -6 -48 -10 -2 -24 0 hvcurveto
            48 3 rlineto
            5 72 14 64 0 vvcurveto
            hintmask 1010101110000000
            -4 5 rlineto
            hintmask 1011000110000000
            -6 -50 -70 -3 -110 hhcurveto
            hintmask 0110110110000000
            -52 -71 2 0 hvcurveto
            -6 -38 -75 callsubr
            -72 callsubr
            2 callgsubr
            hintmask 1011000110000000
            0 57 9 46 44 80 -38 callgsubr
            7 44 -3 5 rlineto
            0 -39 -3 -17 -29 -7 10 42 vhcurveto
            return
          </CharString>
          <CharString index="28">
            -72 callsubr
            -14 -15 -49 -6 34 callgsubr
            return
          </CharString>
          <CharString index="29">
            -38 callgsubr
            9 46 -2 4 rlineto
            0 return
          </CharString>
          <CharString index="30">
            44 -24 27 -30 -22 -23 -16 -10 -13 vhcurveto
            return
          </CharString>
          <CharString index="31">
            rmoveto
            -21 -30 13 35 24 15 15 29 33 18 -20 -28 -35 -28 -4 -16 hvcurveto
            -7 -38 rmoveto
            54 31 42 46 38 -22 38 -55 -51 -33 -36 -48 -47 27 -33 49 hvcurveto
            endchar
          </CharString>
          <CharString index="32">
            2 -4 rlineto
            return
          </CharString>
          <CharString index="33">
            3 0 vhcurveto
            -51 callgsubr
            0 return
          </CharString>
          <CharString index="34">
            5 2 92 7 58 hhcurveto
            35 50 -2 -1 hvcurveto
            -29 callgsubr
            -9 14 54 vhcurveto
            4 179 rlineto
            0 134 11 32 46 106 -1 0 vhcurveto
            -151 vlineto
            -88 -13 -18 -63 -1 vhcurveto
            -9 -45 rlineto
            0 80 2 35 25 callsubr
            -9 14 54 vhcurveto
            return
          </CharString>
          <CharString index="35">
            0 18 1 9 24 6 -8 -34 vhcurveto
            -1 -317 rlineto
            -45 return
          </CharString>
          <CharString index="36">
            rmoveto
            -42 -37 17 33 -17 hvcurveto
            -8 hlineto
            -16 -10 rlineto
            -49 14 37 -49 69 hhcurveto
            69 37 49 49 14 hvcurveto
            -16 10 rlineto
            -8 hlineto
            -33 -17 -37 -17 -42 hhcurveto
            endchar
          </CharString>
          <CharString index="37">
            43 callsubr
            17 1 10 24 6 -8 -34 vhcurveto
            return
          </CharString>
          <CharString index="38">
            260 208 rmoveto
            84 -147 rlineto
            -46 25 33 -27 29 hhcurveto
            77 8 5 31 -4 5 rlineto
            -42 -25 18 48 -32 hvcurveto
            -85 128 rlineto
            75 33 43 54 62 vvcurveto
            79 -65 47 -108 vhcurveto
            return
          </CharString>
          <CharString index="39">
            rmoveto
            91 62 83 119 111 -54 72 -82 -91 -63 -81 -119 -113 53 -72 84 hvcurveto
            11 66 rmoveto
            -61 -40 50 78 76 35 46 59 62 40 -51 -79 -74 -37 -46 -58 hvcurveto
            endchar
          </CharString>
          <CharString index="40">
            -23 callsubr
            79 -62 callsubr
            -45 -23 vhcurveto
            return
          </CharString>
          <CharString index="41">
            204 420 rmoveto
            2 30 10 9 45 5 4 41 rcurveline
            return
          </CharString>
          <CharString index="42">
            -37 -12 43 521 46 hstemhm
            56 73 -55 70 191 75 hintmask 11101000
            56 124 rmoveto
            -88 81 -48 90 116 88 80 98 77 -57 42 -63 34 vhcurveto
            41 22 58 46 77 vvcurveto
            90 -79 44 -77 vhcurveto
            hintmask 11011000
            -106 -74 -79 -84 -74 52 -40 59 -32 hvcurveto
            hintmask 11101000
            -45 -21 -84 -50 -94 vvcurveto
            195 -93 rmoveto
            -71 -51 56 61 75 58 34 33 14 hvcurveto
            71 -35 71 -31 -68 vvcurveto
            -61 -52 -45 -59 vhcurveto
            hintmask 11011000
            -107 434 rmoveto
            45 36 42 57 55 43 -38 -71 -59 -33 -31 -27 -16 vhcurveto
            -67 35 -64 31 62 vvcurveto
            endchar
          </CharString>
          <CharString index="43">
            0 54 7 37 32 56 -2 0 vhcurveto
            7 36 -2 -31 callgsubr
            -17 -2 -15 -23 -7 11 32 52 3 125 3 56 vhcurveto
            return
          </CharString>
          <CharString index="44">
            -53 callsubr
            -44 return
          </CharString>
          <CharString index="45">
            rlineto
            5 vlineto
            -22 21 rlineto
            -6 hlineto
            0 -40 return
          </CharString>
          <CharString index="46">
            7 42 -3 -31 callgsubr
            -17 -2 -27 -34 -13 15 38 123 6 177 7 65 vhcurveto
            100 -4 12 2 16 -101 46 3 rcurveline
            0 -9 72 -2 70 vhcurveto
            return
          </CharString>
          <CharString index="47">
            202 hmoveto
            -76 callgsubr
            return
          </CharString>
          <CharString index="48">
            rmoveto
            -95 -18 -37 -66 -40 vhcurveto
            -2 -7 16 -28 98 36 43 61 1 105 rlinecurve
            70 7 193 3 70 vhcurveto
            2 32 6 6 38 6 4 41 rcurveline
            return
          </CharString>
          <CharString index="49">
            -67 -12 48 249 59 254 -20 hstem
            40 80 225 74 vstem
            390 563 rmoveto
            -11 30 -7 5 rlineto
            0 -332 -100 -301 vvcurveto
            -118 69 -91 111 118 81 87 105 76 -58 88 -115 -30 -81 -52 0 vhcurveto
            -4 2 rlineto
            52 195 207 74 0 vvcurveto
            -166 -278 rmoveto
            71 50 -62 -67 -75 -41 -45 -64 -75 -45 66 101 15 1 15 2 15 hvcurveto
            11 15 42 26 44 hhcurveto
            endchar
          </CharString>
          <CharString index="50">
            rmoveto
            -70 -14 rlineto
            0 10 -108 -4 -110 vhcurveto
            11 -2 25 14 rlineto
            21 102 14 110 0 vvcurveto
            return
          </CharString>
          <CharString index="51">
            69 0 45 -34 -21 313 50 234 50 -43 -20 return
          </CharString>
          <CharString index="52">
            vhcurveto
            -1 -420 rlineto
            return
          </CharString>
          <CharString index="53">
            -30 callgsubr
            -79 rlineto
            -5 vlineto
            22 -21 rlineto
            endchar
          </CharString>
          <CharString index="54">
            -45 callgsubr
            -7 return
          </CharString>
          <CharString index="55">
            56 11 -21 31 -21 232 41 376 -20 return
          </CharString>
          <CharString index="56">
            6 rlineto
            0 return
          </CharString>
          <CharString index="57">
            -23 38 -13 30 55 65 42 52 37 -52 29 -33 23 vhcurveto
            return
          </CharString>
          <CharString index="58">
            30 7 -11 -43 vhcurveto
            return
          </CharString>
          <CharString index="59">
            62 59 rmoveto
            17 -16 15 -26 -28 vvcurveto
            -43 -34 -47 -45 -31 vhcurveto
            -10 vlineto
            18 -15 rlineto
            60 35 80 66 77 vvcurveto
            51 -23 27 -28 -22 -23 -16 -10 -13 vhcurveto
            return
          </CharString>
          <CharString index="60">
            2 -30 callsubr
            return
          </CharString>
          <CharString index="61">
            83 7 204 7 145 vhcurveto
            return
          </CharString>
          <CharString index="62">
            -184 343 41 217 46 hstem
            28 70 141 71 vstem
            159 343 rmoveto
            88 63 68 93 87 -51 56 -79 -88 -64 -68 -93 -85 52 -58 79 hvcurveto
            15 41 rmoveto
            -47 -29 45 78 60 24 34 41 47 29 -45 -78 -60 -24 -34 -41 hvcurveto
            endchar
          </CharString>
          <CharString index="63">
            -12 -55 callgsubr
            return
          </CharString>
          <CharString index="64">
            -161 -28 callgsubr
            606 43 return
          </CharString>
          <CharString index="65">
            -159 rmoveto
            0 -38 -23 -39 -35 -23 23 31 return
          </CharString>
          <CharString index="66">
            0 vhcurveto
            6 return
          </CharString>
          <CharString index="67">
            rmoveto
            -76 -82 -96 -91 0 vvcurveto
            -15 vlineto
            0 96 -88 76 -78 vhcurveto
            22 15 1 10 -107 155 107 149 -1 10 rlineto
            return
          </CharString>
          <CharString index="68">
            hhcurveto
            -16 -4 -76 -89 rlineto
            -5 vlineto
            22 -21 rlineto
            endchar
          </CharString>
          <CharString index="69">
            142 120 rmoveto
            -57 -13 -13 -62 -6 vhcurveto
            -10 -45 rlineto
            0 65 1 50 25 callsubr
            -11 14 54 2 vhcurveto
            12 429 1 38 15 14 50 8 rlinecurve
            -5 callsubr
            return
          </CharString>
          <CharString index="70">
            vhcurveto
            -1 -318 rlineto
            return
          </CharString>
          <CharString index="71">
            rmoveto
            165 -5 9 62 -8 9 -164 -13 rlineto
            -87 hmoveto
            -163 5 -9 -62 8 -11 161 15 rlineto
            return
          </CharString>
          <CharString index="72">
            rmoveto
            -38 41 -10 2 rlineto
            0 -78 -95 -72 -78 vhcurveto
            20 -19 9 -2 rlineto
            84 76 84 64 -33 callgsubr
          </CharString>
          <CharString index="73">
            159 -12 57 549 43 return
          </CharString>
          <CharString index="74">
            0 -65 -7 -39 -28 -58 1 1 vhcurveto
            -6 -38 -75 callsubr
            0 18 1 10 24 6 -8 -34 vhcurveto
            -1 -134 rlineto
            -5 -44 -31 -2 -40 hhcurveto
            -130 1 5 121 3 51 4 8 46 7 rlinecurve
            return
          </CharString>
          <CharString index="75">
            -83 11 -9 -8 rlineto
            -3 -85 -12 -88 0 vvcurveto
            47 4 return
          </CharString>
          <CharString index="76">
            rmoveto
            78 92 -2 -2 77 -42 callgsubr
            54 -2 37 21 callgsubr
            -93 352 hlineto
            -32 10 rlineto
            return
          </CharString>
          <CharString index="77">
            0 vhcurveto
            -6 return
          </CharString>
          <CharString index="78">
            170 -12 51 550 60 return
          </CharString>
          <CharString index="79">
            0 99 -43 82 -36 vhcurveto
            168 -70 rlineto
            -6 vlineto
            -154 -60 rlineto
            -82 -34 -112 -39 0 vvcurveto
            7 -50 9 -5 rlineto
            0 110 42 91 39 vhcurveto
            203 86 2 47 rlineto
            return
          </CharString>
          <CharString index="80">
            -20 59 -20 22 -20 return
          </CharString>
          <CharString index="81">
            40 256 2 160 hhcurveto
            8 51 rlineto
            endchar
          </CharString>
          <CharString index="82">
            233 162 rmoveto
            -106 -7 -9 -93 -8 vhcurveto
            -8 -43 rlineto
            return
          </CharString>
          <CharString index="83">
            14 3 4 11 96 47 -32 -65 -85 -79 -22 -5 -2 vhcurveto
            return
          </CharString>
          <CharString index="84">
            28 85 -33 33 hhcurveto
            16 4 76 return
          </CharString>
          <CharString index="85">
            0 hvcurveto
            5 6 rlineto
            return
          </CharString>
          <CharString index="86">
            -2 -41 callsubr
            34 -1 -31 callgsubr
            return
          </CharString>
          <CharString index="87">
            0 -88 -3 -38 -31 -59 -36 callgsubr
            2 -5 rlineto
            0 18 2 10 23 6 -9 -33 -37 callsubr
            -43 -13 -15 -49 -8 34 callgsubr
            return
          </CharString>
          <CharString index="88">
            -6 -80 -89 -150 1 0 vhcurveto
            44 callgsubr
            139 1 90 vhcurveto
            return
          </CharString>
          <CharString index="89">
            -89 callgsubr
            endchar
          </CharString>
          <CharString index="90">
            hhcurveto
            -89 -150 1 0 hvcurveto
            -11 -49 rlineto
            return
          </CharString>
          <CharString index="91">
            11 14 vhcurveto
            -5 10 rlineto
            0 -62 -12 -53 -7 vhcurveto
            -2 -22 rlineto
            -9 vlineto
            3 11 2 -1 7 hvcurveto
            14 -1 6 -11 -22 vvcurveto
            -299 vlineto
            return
          </CharString>
          <CharString index="92">
            152 82 -71 -135 -132 -67 -77 -112 return
          </CharString>
          <CharString index="93">
            vhcurveto
            51 17 49 46 0 vvcurveto
            return
          </CharString>
          <CharString index="94">
            -30 callsubr
            -39 2 return
          </CharString>
          <CharString index="95">
            0 vhcurveto
            5 return
          </CharString>
          <CharString index="96">
            410 4 -21 610 44 -40 -20 return
          </CharString>
          <CharString index="97">
            -20 hstemhm
            hintmask 11000000
            return
          </CharString>
          <CharString index="98">
            8 -5 rlineto
            return
          </CharString>
          <CharString index="99">
            -21 318 58 3 -10 callsubr
            128 return
          </CharString>
          <CharString index="100">
            53 -9 52 416 return
          </CharString>
          <CharString index="101">
            7 rlineto
            0 return
          </CharString>
          <CharString index="102">
            4 45 rlineto
            return
          </CharString>
          <CharString index="103">
            224 rmoveto
            -14 43 -8 -51 callsubr
            -95 -54 -85 -44 vhcurveto
            6 -22 7 -4 rlineto
            95 36 90 30 -33 callgsubr
          </CharString>
          <CharString index="104">
            -3 6 rlineto
            return
          </CharString>
          <CharString index="105">
            51 -37 -21 325 59 hstemhm
            hintmask 01100000
            30 return
          </CharString>
          <CharString index="106">
            -12 rmoveto
            194 152 155 199 return
          </CharString>
          <CharString index="107">
            145 -12 50 214 50 288 59 return
          </CharString>
          <CharString index="108">
            -27 callsubr
            25 -20 hstemhm
            return
          </CharString>
          <CharString index="109">
            17 117 3 2 157 7 return
          </CharString>
          <CharString index="110">
            rmoveto
            0 39 45 24 vhcurveto
            return
          </CharString>
          <CharString index="111">
            74 -80 36 -70 33 return
          </CharString>
          <CharString index="112">
            40 86 437 89 return
          </CharString>
          <CharString index="113">
            -107 -100 callgsubr
            return
          </CharString>
          <CharString index="114">
            -1 -2 -1 -1 hhcurveto
            -276 -378 rlineto
            234 241 rmoveto
            9 -224 -170 hlineto
            endchar
          </CharString>
          <CharString index="115">
            -21 -28 hhcurveto
            -36 -33 30 33 -14 hvcurveto
            -11 hlineto
            -9 -9 -9 -42 -19 vvcurveto
            -19 41 -15 38 73 return
          </CharString>
          <CharString index="116">
            366 -21 246 56 -50 -10 callsubr
            211 345 rmoveto
            0 43 6 26 25 return
          </CharString>
          <CharString index="117">
            420 rmoveto
            1 30 10 9 41 5 3 41 rcurveline
            return
          </CharString>
          <CharString index="118">
            7 9 -21 32 -21 459 43 -42 -20 59 -20 return
          </CharString>
          <CharString index="119">
            -21 154 48 140 42 hstem
            48 return
          </CharString>
          <CharString index="120">
            44 -9 50 155 46 210 55 return
          </CharString>
          <CharString index="121">
            38 callsubr
            rlineto
            hintmask 01100000
            -4 callgsubr
            return
          </CharString>
          <CharString index="122">
            -12 51 -18 -21 592 49 -47 -20 63 -20 return
          </CharString>
          <CharString index="123">
            14 98 13 -2 108 4 return
          </CharString>
          <CharString index="124">
            rlineto
            84 47 80 40 0 vvcurveto
            return
          </CharString>
          <CharString index="125">
            -12 callgsubr
            71 return
          </CharString>
          <CharString index="126">
            rmoveto
            -19 -27 11 32 22 14 13 26 29 17 -18 -25 -32 -26 -3 -14 hvcurveto
            return
          </CharString>
          <CharString index="127">
            -21 254 59 249 48 hstem
            return
          </CharString>
          <CharString index="128">
            46 0 43 -25 -21 593 44 return
          </CharString>
          <CharString index="129">
            18 callgsubr
            vhcurveto
            -21 callgsubr
            return
          </CharString>
          <CharString index="130">
            0 vvcurveto
            -40 -5 rlineto
            -76 -20 -19 -15 -73 hhcurveto
            -153 hlineto
            -4 7 rlineto
            return
          </CharString>
          <CharString index="131">
            92 -7 -21 49 -21 458 -20 60 -20 return
          </CharString>
          <CharString index="132">
            44 79 -3 0 vhcurveto
            -29 callgsubr
            return
          </CharString>
          <CharString index="133">
            -21 112 47 225 -20 hstem
            10 return
          </CharString>
          <CharString index="134">
            197 -19 -21 40 44 549 44 return
          </CharString>
          <CharString index="135">
            40 11 -20 hstemhm
            233 70 return
          </CharString>
          <CharString index="136">
            444 49 callgsubr
            return
          </CharString>
          <CharString index="137">
            64 -31 64 12 -20 hstemhm
            return
          </CharString>
          <CharString index="138">
            -85 -11 rlineto
            -310 hlineto
            return
          </CharString>
          <CharString index="139">
            9 46 -3 4 rlineto
            0 return
          </CharString>
          <CharString index="140">
            0 54 8 64 vhcurveto
            return
          </CharString>
          <CharString index="141">
            177 0 43 -29 -21 212 40 206 47 -39 -20 return
          </CharString>
          <CharString index="142">
            46 5 120 7 164 vhcurveto
            14 1 5 4 22 hhcurveto
            return
          </CharString>
          <CharString index="143">
            -5 -41 callsubr
            return
          </CharString>
          <CharString index="144">
            -84 -21 194 54 361 -20 21 -20 hstemhm
            hintmask 11010000
            return
          </CharString>
          <CharString index="145">
            0 -134 -6 -80 -89 -150 1 0 vhcurveto
            -11 -49 return
          </CharString>
          <CharString index="146">
            68 77 245 76 return
          </CharString>
          <CharString index="147">
            4 rlineto
            6 92 return
          </CharString>
          <CharString index="148">
            63 60 29 36 48 32 21 -12 0 vhcurveto
            endchar
          </CharString>
          <CharString index="149">
            8 -12 49 558 54 return
          </CharString>
          <CharString index="150">
            -6 -38 3 -4 rlineto
            0 return
          </CharString>
          <CharString index="151">
            -21 344 41 hstem
            39 return
          </CharString>
          <CharString index="152">
            67 -21 354 -20 hstem
            return
          </CharString>
          <CharString index="153">
            29 callgsubr
            hstemhm
            hintmask 10100000
            31 return
          </CharString>
          <CharString index="154">
            1 4 37 -13 13 rlineto
            0 return
          </CharString>
          <CharString index="155">
            rlineto
            0 -81 -64 -72 return
          </CharString>
          <CharString index="156">
            hstemhm
            142 71 -71 return
          </CharString>
          <CharString index="157">
            39 -21 callsubr
            return
          </CharString>
          <CharString index="158">
            rmoveto
            3 46 8 16 26 22 -6 17 rcurveline
            return
          </CharString>
          <CharString index="159">
            52 6 -20 hstemhm
            return
          </CharString>
        <CharString name=".notdef">
          -320 endchar
        </CharString>
        <CharString name="A">
          -52 callsubr
          hstemhm
          hintmask 01110000
          493 113 rmoveto
          -75 225 -84 311 0 vvcurveto
          -8 hlineto
          -63 -17 -195 -511 -22 -56 -19 -17 -37 -4 rlinecurve
          -8 -47 rlineto
          0 62 3 48 66 73 -7 -41 callsubr
          43 -2 4 rlineto
          -57 hlineto
          -42 -18 12 29 9 3 12 6 18 hvcurveto
          37 104 rlineto
          3 23 47 5 39 hhcurveto
          28 52 0 -1 24 hvcurveto
          33 -109 rlineto
          6 -19 3 -16 -13 vvcurveto
          -24 -20 -9 -69 -5 vhcurveto
          -4 -39 rlineto
          hintmask 10110000
          3 -7 rlineto
          hintmask 01110000
          -95 callsubr
          endchar
        </CharString>
        <CharString name="AE">
          288 0 45 -34 -21 597 50 -43 -20 75 4 callgsubr
          301 36 rmoveto
          -2 -39 2 -7 rlineto
          hintmask 10100000
          -54 callgsubr
          hintmask 10011000
          -3 callsubr
          hintmask 10100000
          -9 -60 -80 -3 -158 hhcurveto
          -95 -64 4 -1 -20 callgsubr
          hintmask 10011000
          0 22 2 12 14 8 -4 -12 3 vhcurveto
          -247 -457 rlineto
          -30 -55 -33 -35 0 vvcurveto
          7 -35 rlineto
          0 46 4 22 64 74 -7 -12 callsubr
          47 rlineto
          -57 hlineto
          -38 -17 11 23 11 4 12 12 23 hvcurveto
          71 138 91 10 99 8 18 -123 rlineto
          3 -22 4 -22 -22 vvcurveto
          -36 -18 -9 -79 -6 vhcurveto
          -91 274 rmoveto
          118 229 rlineto
          9 hlineto
          30 -218 -73 -6 rlineto
          endchar
        </CharString>
        <CharString name="AEacute">
          288 0 45 -34 -21 597 50 -43 -20 316 -20 hstemhm
          hintmask 01101000
          301 36 rmoveto
          -2 -39 2 -7 rlineto
          hintmask 10101000
          -54 callgsubr
          -3 callsubr
          -9 -60 -80 -3 -158 hhcurveto
          -95 -64 4 -1 -20 callgsubr
          hintmask 10011000
          0 22 2 12 14 8 -4 -12 3 vhcurveto
          -247 -457 rlineto
          -30 -55 -33 -35 0 vvcurveto
          7 -35 rlineto
          0 46 4 22 64 74 -7 -12 callsubr
          47 rlineto
          -57 hlineto
          -38 -17 11 23 11 4 12 12 23 hvcurveto
          71 138 91 10 99 8 18 -123 rlineto
          3 -22 4 -22 -22 vvcurveto
          -36 -18 -9 -79 -6 vhcurveto
          -91 274 rmoveto
          118 229 rlineto
          9 hlineto
          30 -218 -73 -6 rlineto
          336 532 -35 callsubr
        </CharString>
        <CharString name="Aacute">
          -52 callsubr
          212 -20 -104 callgsubr
          273 514 rmoveto
          -16 48 -9 -51 callsubr
          -105 -60 -94 -49 vhcurveto
          6 -24 -9 callsubr
          105 40 101 34 -33 callgsubr
        </CharString>
        <CharString name="Abreve">
          -52 callsubr
          81 58 50 -20 hstemhm
          hintmask 01111100
          493 113 rmoveto
          -75 225 -84 311 0 vvcurveto
          -8 hlineto
          -63 -17 -195 -511 -22 -56 -19 -17 -37 -4 rlinecurve
          -8 -47 rlineto
          0 62 3 48 66 73 -7 -41 callsubr
          43 -2 4 rlineto
          -57 hlineto
          -42 -18 12 29 9 3 12 6 18 hvcurveto
          37 104 rlineto
          3 23 47 5 39 hhcurveto
          28 52 0 -1 24 hvcurveto
          33 -109 rlineto
          6 -19 3 -16 -13 vvcurveto
          -24 -20 -9 -69 -5 vhcurveto
          -4 -39 rlineto
          hintmask 10111100
          3 -7 rlineto
          hintmask 01111100
          -95 callsubr
          112 495 -71 callsubr
        </CharString>
        <CharString name="Acircumflex">
          -52 callsubr
          217 -20 -104 callgsubr
          -18 440 -102 callgsubr
        </CharString>
        <CharString name="Adieresis">
          -52 callsubr
          96 93 -104 callgsubr
          191 452 -105 callsubr
        </CharString>
        <CharString name="Agrave">
          -52 callsubr
          212 -20 -104 callgsubr
          -36 504 -93 callgsubr
        </CharString>
        <CharString name="Amacron">
          -52 callsubr
          91 52 6 -20 -100 callsubr
          hintmask 01110100
          -95 callsubr
          256 505 rmoveto
          hintmask 01111000
          -86 callsubr
        </CharString>
        <CharString name="Aogonek">
          56 -241 59 203 -21 232 41 376 -20 hstem
          578 -42 callsubr
          40 22 32 53 56 vhcurveto
          32 -1 34 -2 0 vvcurveto
          7 41 -2 4 -58 5 -22 16 -16 50 rlinecurve
          -75 225 -84 311 0 vvcurveto
          -8 hlineto
          -63 -17 -195 -511 -22 -56 -19 -17 -37 -4 rlinecurve
          -8 -47 rlineto
          0 62 3 48 66 73 -7 -41 callsubr
          43 -2 4 rlineto
          -57 hlineto
          -42 -18 12 29 9 3 12 6 18 hvcurveto
          37 104 rlineto
          3 23 47 5 39 hhcurveto
          28 52 0 -1 24 hvcurveto
          33 -109 rlineto
          6 -19 3 -16 -13 vvcurveto
          -24 -20 -9 -69 -5 vhcurveto
          -4 -39 3 -7 rlineto
          0 70 10 75 vhcurveto
          -53 -53 -41 -47 -47 -46 callgsubr
          -314 718 rmoveto
          7 hlineto
          79 -262 rlineto
          -2 -23 -43 -3 -27 hhcurveto
          -88 hlineto
          endchar
        </CharString>
        <CharString name="Aring">
          -52 callsubr
          45 164 -104 callgsubr
          115 439 -76 callsubr
        </CharString>
        <CharString name="Aringacute">
          -52 callsubr
          40 148 125 -20 hstemhm
          hintmask 01111100
          493 113 rmoveto
          -75 225 -84 311 0 vvcurveto
          -8 hlineto
          -63 -17 -195 -511 -22 -56 -19 -17 -37 -4 rlinecurve
          -8 -47 rlineto
          0 62 3 48 66 73 -7 -41 callsubr
          43 -2 4 rlineto
          -57 hlineto
          -42 -18 12 29 9 3 12 6 18 hvcurveto
          37 104 rlineto
          3 23 47 5 39 hhcurveto
          28 52 0 -1 24 hvcurveto
          33 -109 rlineto
          6 -19 3 -16 -13 vvcurveto
          -24 -20 -9 -69 -5 vhcurveto
          -4 -39 rlineto
          hintmask 10111100
          3 -7 rlineto
          hintmask 01111100
          -95 callsubr
          131 431 19 callsubr
          14 callgsubr
          116 -4 callsubr
        </CharString>
        <CharString name="Atilde">
          -52 callsubr
          82 30 callsubr
          hintmask 01111010
          493 113 rmoveto
          -75 225 -84 311 0 vvcurveto
          -8 hlineto
          -63 -17 -195 -511 -22 -56 -19 -17 -37 -4 rlinecurve
          -8 -47 rlineto
          0 62 3 48 66 73 -7 -41 callsubr
          43 -2 4 rlineto
          -57 hlineto
          -42 -18 12 29 9 3 12 6 18 hvcurveto
          37 104 rlineto
          3 23 47 5 39 hhcurveto
          28 52 0 -1 24 hvcurveto
          33 -109 rlineto
          6 -19 3 -16 -13 vvcurveto
          -24 -20 -9 -69 -5 vhcurveto
          -4 -39 rlineto
          hintmask 10111010
          3 -7 rlineto
          hintmask 01110100
          -95 callsubr
          -22 426 3 callsubr
          hintmask 01111010
          -67 callsubr
          hintmask 01110100
          -54 callsubr
        </CharString>
        <CharString name="B">
          75 -10 51 -32 -21 33 -21 594 -20 24 43 -4 -20 hstemhm
          142 73 207 81 -47 86 hintmask 0011101100000000
          172 hmoveto
          hintmask 1001101010000000
          51 40 -10 44 hhcurveto
          126 109 89 104 74 -58 57 -97 21 hvcurveto
          hintmask 1001101100000000
          74 32 42 56 66 vvcurveto
          98 -70 54 -127 vhcurveto
          hintmask 0101011100000000
          0 -81 -4 -37 -38 -73 -89 callsubr
          -1 -420 rlineto
          -56 -16 -18 -62 -44 callsubr
          hintmask 0011101010000000
          0 64 12 50 vhcurveto
          149 300 rmoveto
          89 -16 46 -47 -72 vvcurveto
          hintmask 1001101100000000
          -76 -49 -48 -80 -83 -31 19 51 vhcurveto
          4 187 rlineto
          2 53 rmoveto
          2 83 3 76 4 65 rrcurveto
          18 1 3 5 14 hhcurveto
          120 56 -40 -86 -107 -94 -22 0 -15 -94 8 0 hvcurveto
          endchar
        </CharString>
        <CharString name="C">
          31 callgsubr
          -98 callsubr
          endchar
        </CharString>
        <CharString name="Cacute">
          31 callgsubr
          192 -20 -98 callsubr
          180 799 rmoveto
          -16 48 -9 -51 callsubr
          -105 -60 -94 -49 vhcurveto
          6 -24 -9 callsubr
          105 40 101 34 -33 callgsubr
        </CharString>
        <CharString name="Ccaron">
          31 callgsubr
          189 -20 -98 callsubr
          151 849 -105 callgsubr
        </CharString>
        <CharString name="Ccedilla">
          107 -13 callgsubr
          150 49 552 59 hstemhm
          40 90 hintmask 01111100
          298 -85 rmoveto
          -70 callgsubr
          hintmask 10111100
          -50 callsubr
          13 39 rlineto
          106 4 76 35 0 vvcurveto
          6 9 rlineto
          7 72 20 91 0 vvcurveto
          -48 -4 rlineto
          -108 -25 -54 -50 -91 hhcurveto
          -138 -91 116 176 159 86 101 134 98 49 -31 -62 -22 -3 -27 0 hvcurveto
          48 40 callsubr
          19 75 0 vvcurveto
          6 callgsubr
          -91 24 -83 -202 -147 -149 -203 -183 109 -117 171 -8 vhcurveto
          endchar
        </CharString>
        <CharString name="Ccircumflex">
          31 callgsubr
          228 -20 -98 callsubr
          -129 714 -97 callgsubr
          endchar
        </CharString>
        <CharString name="Cdotaccent">
          31 callgsubr
          70 110 -98 callsubr
          15 731 -83 callsubr
        </CharString>
        <CharString name="D">
          181 15 callsubr
          hstemhm
          142 72 -72 87 hintmask 10100100
          317 -1 callsubr
          178 -134 121 -195 hvcurveto
          hintmask 10011100
          0 -106 -4 -46 -38 -67 -63 callsubr
          rlineto
          hintmask 10100100
          -75 callsubr
          hintmask 10011100
          -82 callsubr
          -56 -16 -18 -62 -44 callsubr
          hintmask 01100100
          0 65 12 50 vhcurveto
          hintmask 10100100
          51 93 -12 0 hvcurveto
          -52 604 rmoveto
          -17 callgsubr
          -101 -25 19 73 hvcurveto
          hintmask 10100010
          35 callgsubr
          endchar
        </CharString>
        <CharString name="Dcaron">
          181 15 callsubr
          221 -6 callgsubr
          -72 87 hintmask 10100110
          317 -1 callsubr
          178 -134 121 -195 hvcurveto
          hintmask 10011110
          0 -106 -4 -46 -38 -67 -63 callsubr
          rlineto
          hintmask 10100110
          -75 callsubr
          hintmask 10011110
          -82 callsubr
          -56 -16 -18 -62 -44 callsubr
          hintmask 01100110
          0 65 12 50 vhcurveto
          hintmask 10100110
          51 93 -12 0 hvcurveto
          -52 604 rmoveto
          -17 callgsubr
          -101 -25 19 73 hvcurveto
          hintmask 10100101
          35 callgsubr
          197 245 -105 callgsubr
        </CharString>
        <CharString name="Dcroat">
          -77 callgsubr
        </CharString>
        <CharString name="Delta">
          16 0 57 592 -20 hstem
          17 hmoveto
          482 hlineto
          7 7 rlineto
          -75 225 -115 417 0 vvcurveto
          -8 hlineto
          -63 -17 -237 -619 rlineto
          258 527 rmoveto
          144 -483 rlineto
          -327 hlineto
          176 483 rlineto
          endchar
        </CharString>
        <CharString name="E">
          -56 callsubr
          75 -20 hstemhm
          142 81 hintmask 10110010
          213 105 rmoveto
          33 1 50 3 108 vhcurveto
          3 17 30 4 30 hhcurveto
          54 86 -3 0 hvcurveto
          14 59 -4 5 rlineto
          0 -86 -11 -36 vhcurveto
          -30 -51 1 -22 hhcurveto
          8 194 rlineto
          37 1 4 2 65 hhcurveto
          141 12 -6 -65 -14 -2 -29 0 hvcurveto
          48 40 callsubr
          17 74 0 vvcurveto
          hintmask 10101110
          -3 callsubr
          hintmask 10110010
          -9 -66 -75 -3 -159 hhcurveto
          -60 -79 3 0 -20 callgsubr
          hintmask 01101110
          -82 callsubr
          -57 -18 -19 -60 -8 -55 callgsubr
          hintmask 10110010
          0 63 10 76 95 208 -7 0 vhcurveto
          36 callgsubr
          85 18 83 46 callgsubr
          -44 -5 rlineto
          -110 -16 -19 -12 -158 hhcurveto
          -72 -7 6 54 hvcurveto
          endchar
        </CharString>
        <CharString name="Eacute">
          -56 callsubr
          267 -20 -107 callsubr
          257 682 rmoveto
          -16 48 -9 -51 callsubr
          -105 -60 -94 -49 vhcurveto
          6 -24 -9 callsubr
          105 40 101 34 -33 callgsubr
        </CharString>
        <CharString name="Ebreve">
          -56 callsubr
          159 58 66 -20 hstemhm
          142 81 hintmask 10110111
          213 105 rmoveto
          33 1 50 3 108 vhcurveto
          3 17 30 4 30 hhcurveto
          54 86 -3 0 hvcurveto
          14 59 -4 5 rlineto
          0 -86 -11 -36 vhcurveto
          -30 -51 1 -22 hhcurveto
          8 194 rlineto
          37 1 4 2 65 hhcurveto
          141 12 -6 -65 -14 -2 -29 0 hvcurveto
          48 40 callsubr
          17 74 0 vvcurveto
          -3 callsubr
          -9 -66 -75 -3 -159 hhcurveto
          -60 -79 3 0 -20 callgsubr
          hintmask 01101111
          -82 callsubr
          -57 -18 -19 -60 -8 -55 callgsubr
          hintmask 10110111
          0 63 10 76 95 208 -7 0 vhcurveto
          36 callgsubr
          85 18 83 46 callgsubr
          -44 -5 rlineto
          -110 -16 -19 -12 -158 hhcurveto
          -72 -7 6 54 hvcurveto
          114 686 -88 callgsubr
        </CharString>
        <CharString name="Ecaron">
          -56 callsubr
          264 -20 -107 callsubr
          228 732 -105 callgsubr
        </CharString>
        <CharString name="Ecircumflex">
          -56 callsubr
          272 -20 -107 callsubr
          -34 608 -102 callgsubr
        </CharString>
        <CharString name="Edieresis">
          -56 callsubr
          151 93 -107 callsubr
          175 620 -105 callsubr
        </CharString>
        <CharString name="Edotaccent">
          -56 callsubr
          145 110 -107 callsubr
          92 614 -83 callsubr
        </CharString>
        <CharString name="Egrave">
          -56 callsubr
          267 -20 -107 callsubr
          -52 672 -93 callgsubr
        </CharString>
        <CharString name="Emacron">
          -56 callsubr
          146 52 callsubr
          142 81 hintmask 10110101
          213 105 rmoveto
          33 1 50 3 108 vhcurveto
          3 17 30 4 30 hhcurveto
          54 86 -3 0 hvcurveto
          14 59 -4 5 rlineto
          0 -86 -11 -36 vhcurveto
          -30 -51 1 -22 hhcurveto
          8 194 rlineto
          37 1 4 2 65 hhcurveto
          141 12 -6 -65 -14 -2 -29 0 hvcurveto
          48 40 callsubr
          17 74 0 vvcurveto
          -3 callsubr
          -9 -66 -75 -3 -159 hhcurveto
          -60 -79 3 0 -20 callgsubr
          hintmask 01101101
          -82 callsubr
          -57 -18 -19 -60 -8 -55 callgsubr
          hintmask 10110011
          0 63 10 76 95 208 -7 0 vhcurveto
          36 callgsubr
          85 18 83 46 callgsubr
          -44 -5 rlineto
          -110 -16 -19 -12 -158 hhcurveto
          -72 -7 6 54 hvcurveto
          240 673 rmoveto
          hintmask 10110101
          -86 callsubr
        </CharString>
        <CharString name="Eng">
          197 -133 -21 154 44 549 44 8 -20 hstemhm
          hintmask 11100000
          143 637 rmoveto
          -21 -60 5 0 hvcurveto
          -8 -37 3 -5 rlineto
          70 -10 17 -13 -39 vvcurveto
          -12 -414 -3 -64 -14 -18 -46 -4 rlinecurve
          -5 -46 rlineto
          0 47 8 40 47 65 -4 0 vhcurveto
          32 callsubr
          -40 -2 -10 -23 -8 10 30 vhcurveto
          5 427 rlineto
          5 hlineto
          0 158 -222 183 -281 vhcurveto
          -14 -55 -33 -37 -65 -29 -3 -8 rcurveline
          17 -33 113 42 46 69 4 129 rlinecurve
          9 450 1 39 19 18 48 6 rlinecurve
          hintmask 11010000
          5 46 rlineto
          hintmask 11100000
          0 -57 -8 -42 -33 -62 4 0 vhcurveto
          -9 -45 -75 callsubr
          0 20 1 18 22 11 -14 -29 vhcurveto
          -405 -5 vlineto
          0 -195 274 -141 222 vhcurveto
          0 -58 -4 -14 vhcurveto
          endchar
        </CharString>
        <CharString name="Eogonek">
          69 -241 59 182 45 258 50 234 50 -43 -20 75 -20 hstemhm
          142 75 hintmask 11110010
          515 -42 callsubr
          39 21 31 49 53 vhcurveto
          30 -1 20 -1 0 vvcurveto
          36 callgsubr
          85 18 83 46 callgsubr
          -44 -5 rlineto
          -110 -16 -19 -12 -158 hhcurveto
          -72 -7 6 54 33 1 50 3 108 hvcurveto
          3 17 30 4 30 hhcurveto
          54 86 -3 0 hvcurveto
          14 59 -4 5 rlineto
          0 -86 -11 -36 vhcurveto
          -30 -51 1 -22 hhcurveto
          8 194 rlineto
          37 1 4 2 65 hhcurveto
          141 12 -6 -65 -14 -2 -29 0 hvcurveto
          48 40 callsubr
          17 74 0 vvcurveto
          hintmask 11101110
          -3 callsubr
          hintmask 11110010
          -9 -66 -75 -3 -159 hhcurveto
          -60 -79 3 0 -20 callgsubr
          hintmask 11101110
          -82 callsubr
          -57 -18 -19 -60 -8 -55 callgsubr
          0 63 10 76 53 89 -2 -2 68 vhcurveto
          -51 -52 -39 -46 -45 -46 callgsubr
          endchar
        </CharString>
        <CharString name="Eth">
          -77 callgsubr
        </CharString>
        <CharString name="Euro">
          66 -9 50 129 153 -38 222 -55 55 hstemhm
          hintmask 10100000
          370 210 rmoveto
          -183 -4 rlineto
          -4 hlineto
          -3 16 -1 18 19 vvcurveto
          9 0 9 1 8 vhcurveto
          193 1 3 30 -6 9 -183 -4 rlineto
          -2 hlineto
          hintmask 11010000
          83 19 58 48 85 hhcurveto
          75 37 -23 -47 -19 -2 -20 0 hvcurveto
          50 3 rlineto
          5 76 16 60 0 vvcurveto
          6 callgsubr
          -78 19 -68 -136 -103 -74 -112 -35 vhcurveto
          -87 hlineto
          -5 -29 rlineto
          hintmask 10100000
          5 -7 rlineto
          78 hlineto
          -3 -17 -1 -17 -18 vvcurveto
          -9 0 -9 1 -9 vhcurveto
          -75 hlineto
          -5 -29 rlineto
          hintmask 11010000
          5 -7 rlineto
          80 hlineto
          -112 24 87 -67 128 hhcurveto
          99 72 31 0 hvcurveto
          6 8 rlineto
          5 59 16 74 0 vvcurveto
          -50 -4 rlineto
          -82 -19 -41 -36 -70 hhcurveto
          -81 -58 48 81 -24 hvcurveto
          182 1 3 30 rlineto
          endchar
        </CharString>
        <CharString name="F">
          -10 -28 callgsubr
          297 51 251 50 -43 -20 75 -20 hstemhm
          142 81 hintmask 10110010
          213 112 rmoveto
          4 166 rlineto
          3 17 30 4 30 hhcurveto
          47 76 -3 0 hvcurveto
          14 60 -4 5 rlineto
          0 -74 -11 -31 vhcurveto
          -103 1 8 211 rlineto
          37 1 4 2 65 hhcurveto
          122 12 -6 -65 -14 -2 -32 0 hvcurveto
          48 40 callsubr
          17 77 0 vvcurveto
          hintmask 10101110
          -3 callsubr
          hintmask 10110010
          -9 -63 -81 -3 -137 hhcurveto
          -60 -79 3 0 -20 callgsubr
          hintmask 01101110
          -82 callsubr
          -56 -16 -18 -62 -44 callsubr
          hintmask 10110010
          0 64 12 50 54 95 -4 0 vhcurveto
          9 47 -2 4 rlineto
          0 -51 -3 -20 -35 -9 14 54 vhcurveto
          endchar
        </CharString>
        <CharString name="G">
          0 callsubr
          -96 callsubr
          endchar
        </CharString>
        <CharString name="Gbreve">
          0 callsubr
          61 58 50 -20 -96 callsubr
          -227 483 -71 callsubr
        </CharString>
        <CharString name="Gcircumflex">
          0 callsubr
          228 -20 -96 callsubr
          -375 417 -97 callgsubr
          endchar
        </CharString>
        <CharString name="Gcommaaccent">
          145 5 callgsubr
          55 0 50 0 214 0 50 288 59 hstemhm
          40 87 hintmask 11001110
          588 307 rmoveto
          0 -43 -5 -43 -59 -68 4 0 vhcurveto
          -9 -50 -75 callsubr
          69 hlineto
          45 10 -9 -45 hvcurveto
          -122 vlineto
          hintmask 10101110
          0 -57 -38 -80 -138 -90 115 176 166 89 95 152 106 45 -26 -62 -27 -3 -27 0 vhcurveto
          47 40 callsubr
          20 75 0 vvcurveto
          6 callgsubr
          -111 24 -83 -209 -142 -143 -209 -189 114 -120 178 127 103 46 -41 callsubr
          9 rlineto
          -4 17 -3 36 35 vvcurveto
          99 7 35 24 20 vhcurveto
          -306 -392 -100 callgsubr
          hintmask 11010110
          -35 callgsubr
        </CharString>
        <CharString name="Gdotaccent">
          0 callsubr
          70 110 -96 callsubr
          -231 434 -83 callsubr
        </CharString>
        <CharString name="H">
          232 -28 callgsubr
          314 46 246 43 callgsubr
          80 313 71 -71 85 hintmask 10101101
          620 11 callgsubr
          hintmask 10110110
          0 -72 -9 -48 -32 -66 2 1 vhcurveto
          -51 callgsubr
          -80 callgsubr
          -1 -182 rlineto
          -7 -59 -39 -3 -50 hhcurveto
          -168 1 6 162 3 70 5 11 58 9 rlinecurve
          hintmask 10101110
          -5 callsubr
          hintmask 01110110
          -53 callgsubr
          -1 -420 rlineto
          -56 -16 -18 -62 -44 callsubr
          hintmask 10110110
          -73 callsubr
          hintmask 10110101
          83 7 203 7 146 vhcurveto
          endchar
        </CharString>
        <CharString name="Hbar">
          228 -28 callgsubr
          314 46 100 47 99 43 9 -20 hstemhm
          140 73 320 71 -71 81 hintmask 1011011100000000
          618 11 callgsubr
          hintmask 1011101100000000
          0 -72 -9 -48 -32 -66 2 1 vhcurveto
          -51 callgsubr
          -80 callgsubr
          -44 vlineto
          -1 -47 -49 0 -42 hhcurveto
          -174 hlineto
          1 16 3 70 5 11 58 9 rlinecurve
          hintmask 1011011100000000
          -5 callsubr
          hintmask 0111101100000000
          -53 callgsubr
          -45 vlineto
          -52 -40 1 0 hvcurveto
          -7 -39 9 -9 rlineto
          90 hlineto
          -1 -328 rlineto
          -56 -16 -18 -62 -44 callsubr
          hintmask 1011101100000000
          -73 callsubr
          hintmask 1011101010000000
          66 4 142 6 129 vhcurveto
          89 47 callsubr
          -32 -1 -46 -1 vhcurveto
          16 1 15 1 15 vhcurveto
          -244 -95 rmoveto
          159 -91 hlineto
          -7 -59 -39 -3 -50 hhcurveto
          -168 1 3 100 rlineto
          endchar
        </CharString>
        <CharString name="Hcircumflex">
          232 -28 callgsubr
          314 46 246 43 266 -20 hstemhm
          142 80 313 71 -71 85 hintmask 01111101
          620 11 callgsubr
          0 -72 -9 -48 -32 -66 2 1 vhcurveto
          -51 callgsubr
          -80 callgsubr
          -1 -182 rlineto
          -7 -59 -39 -3 -50 hhcurveto
          -168 1 6 162 3 70 5 11 58 9 rlinecurve
          -5 callsubr
          -53 callgsubr
          -1 -420 rlineto
          -56 -16 -18 -62 -44 callsubr
          hintmask 10111110
          -73 callsubr
          hintmask 10111101
          83 7 203 7 146 vhcurveto
          -374 184 -97 callgsubr
          endchar
        </CharString>
        <CharString name="I">
          -43 callsubr
          9 17 callgsubr
          hintmask 10010100
          227 544 rmoveto
          2 38 14 12 56 7 4 45 rcurveline
          hintmask 01101000
          0 -69 -9 -46 -41 -78 -74 callsubr
          27 2 15 30 7 -12 -42 -55 callsubr
          -56 -17 -18 -63 -44 callsubr
          hintmask 10101000
          -85 callsubr
          hintmask 10100100
          -46 callsubr
          endchar
        </CharString>
        <CharString name="IJ">
          166 -123 -21 144 44 549 -20 21 43 9 17 callgsubr
          265 72 hintmask 11101011
          227 544 rmoveto
          2 38 14 12 56 7 4 45 rcurveline
          hintmask 11110101
          0 -69 -9 -46 -41 -78 -74 callsubr
          27 2 15 30 7 -12 -42 -55 callsubr
          -56 -17 -18 -63 -44 callsubr
          -85 callsubr
          hintmask 11101011
          -46 callsubr
          265 -429 -48 callgsubr
          hintmask 11110101
          0 -73 -9 -43 vhcurveto
          -108 hlineto
          -51 callgsubr
          0 35 4 12 30 7 -10 -43 vhcurveto
          endchar
        </CharString>
        <CharString name="Iacute">
          -43 callsubr
          204 -20 -98 callgsubr
          117 243 rmoveto
          -16 48 -9 -51 callsubr
          -105 -60 -94 -49 vhcurveto
          6 -24 -9 callsubr
          105 40 101 34 -33 callgsubr
        </CharString>
        <CharString name="Ibreve">
          -43 callsubr
          96 58 66 17 callgsubr
          hintmask 01111100
          -96 callgsubr
          hintmask 10111100
          -85 callsubr
          hintmask 10111010
          -46 callsubr
          -39 247 -88 callgsubr
        </CharString>
        <CharString name="Icircumflex">
          -43 callsubr
          209 -20 -98 callgsubr
          -174 169 -102 callgsubr
        </CharString>
        <CharString name="Idieresis">
          -43 callsubr
          88 93 -98 callgsubr
          35 181 -105 callsubr
        </CharString>
        <CharString name="Idotaccent">
          -43 callsubr
          82 110 -98 callgsubr
          -48 175 -83 callsubr
        </CharString>
        <CharString name="Igrave">
          -43 callsubr
          204 -20 -98 callgsubr
          -192 233 -93 callgsubr
        </CharString>
        <CharString name="Imacron">
          -43 callsubr
          83 52 6 17 callgsubr
          hintmask 01110100
          -96 callgsubr
          hintmask 10110100
          -85 callsubr
          hintmask 10101010
          -46 callsubr
          100 234 rmoveto
          hintmask 10110100
          -86 callsubr
        </CharString>
        <CharString name="Iogonek">
          -161 -241 59 182 44 550 43 9 17 callgsubr
          hintmask 11101000
          316 -42 callsubr
          40 22 32 52 55 vhcurveto
          26 -1 22 -1 0 vvcurveto
          9 46 -2 4 rlineto
          0 -29 -3 -24 -35 -9 14 54 vhcurveto
          hintmask 11010100
          -46 callsubr
          2 38 14 12 56 7 4 45 rcurveline
          hintmask 11100100
          0 -69 -9 -46 -41 -78 -74 callsubr
          27 2 15 30 7 -12 -42 -55 callsubr
          -56 -17 -18 -63 -44 callsubr
          0 65 12 51 vhcurveto
          40 hlineto
          -53 -53 -41 -47 -47 -46 callgsubr
          endchar
        </CharString>
        <CharString name="Itilde">
          -43 callsubr
          111 64 -31 64 22 17 callgsubr
          hintmask 01110110
          -96 callgsubr
          hintmask 10110110
          -85 callsubr
          hintmask 10101101
          -46 callsubr
          -177 182 -10 callgsubr
          hintmask 10110110
          -23 callsubr
          89 -62 callsubr
          -55 -23 vhcurveto
          hintmask 10101110
          -28 -85 33 -33 -39 callsubr
        </CharString>
        <CharString name="J">
          -195 -123 -21 737 44 9 -20 hstemhm
          131 72 hintmask 10110000
          131 115 -48 callgsubr
          hintmask 11010000
          0 -73 -9 -43 vhcurveto
          -108 hlineto
          -51 callgsubr
          0 35 4 12 30 7 -10 -43 vhcurveto
          endchar
        </CharString>
        <CharString name="Jcircumflex">
          -195 -123 -21 737 44 240 -20 hstem
          131 72 vstem
          131 115 -48 callgsubr
          0 -73 -9 -43 vhcurveto
          -108 hlineto
          -51 callgsubr
          0 35 4 12 30 7 -10 -43 vhcurveto
          -89 162 -97 callgsubr
          endchar
        </CharString>
        <CharString name="K">
          106 0 44 -37 -21 608 43 callgsubr
          77 hintmask 10011000
          -38 callsubr
          hintmask 01101000
          -61 callgsubr
          endchar
        </CharString>
        <CharString name="Kcommaaccent">
          106 -272 -21 293 44 550 43 callgsubr
          77 hintmask 11011000
          -38 callsubr
          hintmask 11101000
          -61 callgsubr
          32 -436 -100 callgsubr
          -35 callgsubr
        </CharString>
        <CharString name="L">
          -15 8 callgsubr
          -72 84 hintmask 10101000
          -19 callgsubr
          hintmask 10010100
          22 callsubr
          hintmask 01101000
          0 -64 -5 callgsubr
          -74 -89 callsubr
          -1 -420 rlineto
          -57 -16 -19 -52 -8 -55 callgsubr
          hintmask 10101000
          40 callgsubr
          endchar
        </CharString>
        <CharString name="Lacute">
          -15 0 45 -34 -21 604 43 204 -6 callgsubr
          -72 84 hintmask 10111000
          -19 callgsubr
          hintmask 01110100
          22 callsubr
          0 -64 -5 callgsubr
          -74 -89 callsubr
          -1 -420 rlineto
          -57 -16 -19 -52 -8 -55 callgsubr
          hintmask 10111000
          40 callgsubr
          148 787 rmoveto
          -16 48 -9 -51 callsubr
          -105 -60 -94 -49 vhcurveto
          6 -24 -9 callsubr
          105 40 101 34 -33 callgsubr
        </CharString>
        <CharString name="Lcaron">
          -15 8 callgsubr
          -72 84 hintmask 10101000
          480 633 -57 callsubr
          -285 -625 rmoveto
          -76 callgsubr
          hvcurveto
          hintmask 10010100
          22 callsubr
          hintmask 01101000
          0 -64 -5 callgsubr
          -74 -89 callsubr
          -1 -420 rlineto
          -57 -16 -19 -52 -8 -55 callgsubr
          hintmask 10101000
          40 callgsubr
          endchar
        </CharString>
        <CharString name="Lcommaaccent">
          -15 5 callgsubr
          67 0 45 549 43 callgsubr
          72 hintmask 10101100
          -60 callsubr
          18 callgsubr
          hvcurveto
          -21 callgsubr
          hintmask 10110100
          0 -64 -5 callgsubr
          -74 -89 callsubr
          -1 -420 rlineto
          -57 -16 -19 -52 -8 -55 callgsubr
          40 callgsubr
          43 6 callsubr
          hintmask 11010100
          -35 callgsubr
        </CharString>
        <CharString name="Ldot">
          11 0 45 -34 -21 393 119 92 43 callgsubr
          72 -72 84 hintmask 10110100
          -19 callgsubr
          hintmask 10101010
          22 callsubr
          hintmask 01110100
          0 -64 -5 callgsubr
          -74 -89 callsubr
          -1 -420 rlineto
          -57 -16 -19 -52 -8 -55 callgsubr
          hintmask 10110100
          40 callgsubr
          234 383 rmoveto
          -18 callsubr
        </CharString>
        <CharString name="Lslash">
          29 8 callgsubr
          hintmask 10011000
          -60 callsubr
          50 0 73 3 77 hvcurveto
          194 96 -5 31 -8 5 -180 -89 2 49 3 50 3 44 rlinecurve
          -21 callgsubr
          hintmask 01101000
          0 -64 -5 callgsubr
          -74 -89 callsubr
          -1 -207 -81 -40 5 -32 9 -3 67 33 rlineto
          -171 vlineto
          -57 -16 -19 -52 -8 -55 callgsubr
          hintmask 10101000
          40 callgsubr
          endchar
        </CharString>
        <CharString name="M">
          325 0 44 -42 -21 656 -20 26 -20 hstemhm
          hintmask 10010000
          421 -12 rmoveto
          193 532 rlineto
          5 hlineto
          0 34 -398 -34 vvcurveto
          -30 -18 -15 -41 -5 vhcurveto
          -4 -46 rlineto
          0 61 8 43 36 59 -38 callgsubr
          9 45 -2 4 rlineto
          0 -16 -2 -12 -32 -8 17 78 -9 vhcurveto
          -11 140 -15 239 29 vvcurveto
          33 21 15 58 7 vhcurveto
          5 37 -2 4 rlineto
          hintmask 10100000
          0 -78 -6 -30 -20 -46 3 -1 vhcurveto
          -95 -287 -78 -207 0 vvcurveto
          -5 hlineto
          0 -79 205 -90 291 vhcurveto
          0 -39 -4 -29 -32 -77 5 0 vhcurveto
          -8 -35 3 -5 rlineto
          61 -4 26 -16 -35 vvcurveto
          -30 -36 -329 -8 -73 vhcurveto
          -6 -54 -16 -18 -42 -5 -5 -46 rcurveline
          0 46 8 40 33 64 -4 0 vhcurveto
          9 45 -2 4 rlineto
          0 -31 -1 -10 -21 -10 10 21 26 34 419 -12 callsubr
          hlineto
          hintmask 01010000
          194 -539 rlineto
          endchar
        </CharString>
        <CharString name="N">
          27 callsubr
          8 -20 hstemhm
          hintmask 11100000
          -99 callsubr
          hintmask 11010000
          5 46 rlineto
          hintmask 11100000
          -58 callgsubr
          endchar
        </CharString>
        <CharString name="Nacute">
          27 callsubr
          204 -20 hstem
          -99 callsubr
          5 46 rlineto
          -58 callgsubr
          -25 642 rmoveto
          -16 48 -9 -51 callsubr
          -105 -60 -94 -49 vhcurveto
          6 -24 -9 callsubr
          105 40 101 34 -33 callgsubr
        </CharString>
        <CharString name="Ncaron">
          27 callsubr
          201 -20 hstem
          -99 callsubr
          5 46 rlineto
          -58 callgsubr
          -54 692 -105 callgsubr
        </CharString>
        <CharString name="Ncommaaccent">
          197 -272 -21 293 44 549 44 8 -20 hstemhm
          hintmask 11100000
          -99 callsubr
          hintmask 11010000
          5 46 rlineto
          hintmask 11100000
          -58 callgsubr
          -245 -252 -100 callgsubr
          -35 callgsubr
        </CharString>
        <CharString name="Ntilde">
          27 callsubr
          74 30 callsubr
          hintmask 11101000
          -99 callsubr
          5 46 rlineto
          -58 callgsubr
          -320 554 3 callsubr
          hintmask 11110100
          -67 callsubr
          hintmask 11101000
          -54 callsubr
        </CharString>
        <CharString name="O">
          -29 callsubr
          -14 callgsubr
          -103 callsubr
          endchar
        </CharString>
        <CharString name="OE">
          441 -12 57 -44 44 258 50 234 48 -48 62 -58 -20 hstemhm
          41 86 393 72 hintmask 10101011
          583 105 rmoveto
          3 191 78 7 rlineto
          54 86 -3 0 hvcurveto
          14 59 -4 5 rlineto
          0 -86 -11 -36 vhcurveto
          -104 1 8 194 rlineto
          37 2 3 2 65 hhcurveto
          141 13 -6 -65 -14 -2 -29 0 hvcurveto
          48 40 callsubr
          17 74 0 vvcurveto
          -3 callsubr
          hintmask 10110011
          -10 -72 -90 -4 -142 hhcurveto
          hintmask 10101011
          -82 -69 14 -68 hhcurveto
          -181 -141 -154 -198 -182 111 -127 159 hvcurveto
          hintmask 01100111
          71 80 13 103 hhcurveto
          95 210 -8 0 23 callgsubr
          -16 -19 -12 -158 hhcurveto
          -72 -7 6 54 hvcurveto
          -241 -65 rmoveto
          -128 -87 118 172 154 87 107 125 144 38 -25 -99 hvcurveto
          -1 -259 rlineto
          -123 -2 -47 -45 -129 hhcurveto
          endchar
        </CharString>
        <CharString name="Oacute">
          -29 callsubr
          192 -20 -14 callgsubr
          -103 callsubr
          185 799 rmoveto
          -16 48 -9 -51 callsubr
          -105 -60 -94 -49 vhcurveto
          6 -24 -9 callsubr
          105 40 101 34 -33 callgsubr
        </CharString>
        <CharString name="Obreve">
          -29 callsubr
          84 58 66 -20 -14 callgsubr
          -103 callsubr
          8 803 -88 callgsubr
        </CharString>
        <CharString name="Ocircumflex">
          -29 callsubr
          197 -20 -14 callgsubr
          -103 callsubr
          -106 725 -102 callgsubr
        </CharString>
        <CharString name="Odieresis">
          -29 callsubr
          76 93 -14 callgsubr
          -103 callsubr
          103 737 -105 callsubr
        </CharString>
        <CharString name="Ograve">
          -29 callsubr
          192 -20 -14 callgsubr
          -103 callsubr
          -124 789 -93 callgsubr
        </CharString>
        <CharString name="Ohungarumlaut">
          -29 callsubr
          188 -20 -14 callgsubr
          -103 callsubr
          113 802 rmoveto
          -22 43 -9 4 48 callsubr
          -53 vhcurveto
          9 -21 8 -5 17 callsubr
          143 hmoveto
          -22 42 -9 5 48 callsubr
          -54 vhcurveto
          10 -21 7 -4 17 callsubr
          endchar
        </CharString>
        <CharString name="Omacron">
          -29 callsubr
          71 52 callsubr
          5 callsubr
          hintmask 11011100
          -103 callsubr
          168 790 rmoveto
          hintmask 11101100
          -86 callsubr
        </CharString>
        <CharString name="Omega">
          327 1 55 -41 -21 595 60 hstemhm
          114 86 437 89 hintmask 10111000
          783 10 rmoveto
          1 72 20 92 0 vvcurveto
          -40 -5 rlineto
          -88 -15 -23 -25 -64 hhcurveto
          -107 hlineto
          105 72 66 119 122 vvcurveto
          165 -120 115 -172 -178 -142 -131 -165 -109 61 -110 99 -78 vhcurveto
          -92 hlineto
          -65 -23 27 91 -14 hvcurveto
          -38 -5 rlineto
          0 17 -87 2 -72 vhcurveto
          hintmask 01111000
          16 -16 244 14 rlineto
          hintmask 10111000
          41 -7 7 23 rlineto
          -105 81 -64 128 127 vvcurveto
          137 90 92 132 128 87 -101 -147 -121 -49 -91 -123 -106 vhcurveto
          7 -21 41 6 rlineto
          hintmask 01111000
          254 -14 rlineto
          endchar
        </CharString>
        <CharString name="Oslash">
          170 -77 -21 86 51 550 60 59 -68 callgsubr
          endchar
        </CharString>
        <CharString name="Oslashacute">
          170 -77 -21 86 51 550 60 192 -68 callgsubr
          353 458 rmoveto
          -16 48 -9 -51 callsubr
          -105 -60 -94 -49 vhcurveto
          6 -24 -9 callsubr
          105 40 101 34 -33 callgsubr
        </CharString>
        <CharString name="Otilde">
          -29 callsubr
          62 30 callsubr
          5 callsubr
          hintmask 11010110
          -103 callsubr
          -110 711 3 callsubr
          hintmask 11101110
          -67 callsubr
          hintmask 11010110
          -54 callsubr
        </CharString>
        <CharString name="P">
          29 0 44 -31 -21 600 49 -47 -20 63 -20 hstemhm
          142 71 231 84 hintmask 10100110
          70 596 rmoveto
          -75 callsubr
          hintmask 01011110
          0 22 2 12 29 8 -60 callgsubr
          -57 -14 -15 -58 -10 vhcurveto
          -7 -46 rlineto
          hintmask 10100110
          3 2 93 5 54 hhcurveto
          34 58 -2 -1 hvcurveto
          9 46 -2 4 rlineto
          0 -34 -3 -20 -39 -5 11 91 vhcurveto
          2 98 rlineto
          84 hlineto
          119 110 105 114 115 -76 63 -138 hvcurveto
          hintmask 10011110
          0 -99 -4 -27 -38 -73 -45 callgsubr
          140 -337 rmoveto
          2 86 4 100 6 89 rrcurveto
          hintmask 10100110
          14 1 2 0 24 hhcurveto
          130 58 -46 -102 -90 -41 -53 -80 -13 hvcurveto
          endchar
        </CharString>
        <CharString name="Q">
          175 -216 79 125 51 550 60 -14 callgsubr
          317 -12 rmoveto
          -173 237 60 -31 95 hhcurveto
          20 75 68 0 hvcurveto
          -6 18 -4 -31 callgsubr
          -33 -10 -47 -80 -85 36 96 -142 vhcurveto
          5 vlineto
          143 40 102 135 166 vvcurveto
          182 -116 126 -167 -185 -144 -154 -198 -183 113 -126 164 vhcurveto
          31 51 rmoveto
          -131 -91 119 171 154 85 106 124 135 93 -119 -171 -154 -88 -106 -127 hvcurveto
          endchar
        </CharString>
        <CharString name="R">
          10 callgsubr
          hstemhm
          142 72 215 83 hintmask 01110110
          -69 callgsubr
          hintmask 10101110
          -82 callgsubr
          3 149 rlineto
          2 56 rmoveto
          1 70 3 70 6 106 rrcurveto
          hintmask 10110110
          -37 callgsubr
          endchar
        </CharString>
        <CharString name="Racute">
          10 callgsubr
          224 -74 callgsubr
          144 468 rmoveto
          -16 48 -9 -51 callsubr
          -105 -60 -94 -49 vhcurveto
          6 -24 -9 callsubr
          105 40 101 34 -33 callgsubr
        </CharString>
        <CharString name="Rcaron">
          10 callgsubr
          221 -74 callgsubr
          115 518 -105 callgsubr
        </CharString>
        <CharString name="Rcommaaccent">
          89 -272 -21 292 43 0 231 321 -20 24 43 -4 -6 callgsubr
          215 83 hintmask 10111011
          -69 callgsubr
          hintmask 11010111
          -82 callgsubr
          hintmask 10111011
          3 149 rlineto
          2 56 rmoveto
          1 70 3 70 6 106 rrcurveto
          -37 callgsubr
          -56 -426 -100 callgsubr
          -35 callgsubr
        </CharString>
        <CharString name="S">
          42 callsubr
          48 callgsubr
          219 -12 rmoveto
          145 102 81 114 91 -98 46 -87 45 hvcurveto
          -71 37 -65 37 60 vvcurveto
          55 53 41 73 90 29 -23 -70 -31 -3 -21 -41 callsubr
          -5 39 40 callsubr
          16 77 0 vvcurveto
          -3 -51 callsubr
          -64 25 -89 -130 -100 -81 -105 -87 83 -46 80 -42 vhcurveto
          77 -40 75 -36 -65 vvcurveto
          -68 -56 -42 -83 -108 -22 30 144 vhcurveto
          -45 -5 rlineto
          -97 -12 -77 -12 callsubr
          -10 rlineto
          0 63 -34 94 vhcurveto
          endchar
        </CharString>
        <CharString name="Sacute">
          42 callsubr
          192 -20 48 callgsubr
          219 -12 rmoveto
          145 102 81 114 91 -98 46 -87 45 hvcurveto
          -71 37 -65 37 60 vvcurveto
          55 53 41 73 90 29 -23 -70 -31 -3 -21 -41 callsubr
          -5 39 40 callsubr
          16 77 0 vvcurveto
          -3 -51 callsubr
          -64 25 -89 -130 -100 -81 -105 -87 83 -46 80 -42 vhcurveto
          77 -40 75 -36 -65 vvcurveto
          -68 -56 -42 -83 -108 -22 30 144 vhcurveto
          -45 -5 rlineto
          -97 -12 -77 -12 callsubr
          -10 rlineto
          0 63 -34 94 vhcurveto
          203 799 rmoveto
          -16 48 -9 -51 callsubr
          -105 -60 -94 -49 vhcurveto
          6 -24 -9 callsubr
          105 40 101 34 -33 callgsubr
        </CharString>
        <CharString name="Scaron">
          42 callsubr
          189 -20 48 callgsubr
          219 -12 rmoveto
          145 102 81 114 91 -98 46 -87 45 hvcurveto
          -71 37 -65 37 60 vvcurveto
          55 53 41 73 90 29 -23 -70 -31 -3 -21 -41 callsubr
          -5 39 40 callsubr
          16 77 0 vvcurveto
          -3 -51 callsubr
          -64 25 -89 -130 -100 -81 -105 -87 83 -46 80 -42 vhcurveto
          77 -40 75 -36 -65 vvcurveto
          -68 -56 -42 -83 -108 -22 30 144 vhcurveto
          -45 -5 rlineto
          -97 -12 -77 -12 callsubr
          -10 rlineto
          0 63 -34 94 vhcurveto
          174 849 -105 callgsubr
        </CharString>
        <CharString name="Scedilla">
          8 -13 callgsubr
          149 49 558 54 hstemhm
          39 callsubr
          hintmask 01111110
          219 -12 rmoveto
          8 hlineto
          -22 -73 rlineto
          -70 callgsubr
          hintmask 10111110
          -50 callsubr
          14 42 rlineto
          117 16 79 75 100 vvcurveto
          91 -98 46 -87 45 vhcurveto
          -71 37 -65 37 60 vvcurveto
          55 53 41 73 90 29 -23 -70 -31 -3 -21 -41 callsubr
          -5 39 40 callsubr
          16 77 0 vvcurveto
          -3 -51 callsubr
          -64 25 -89 -130 -100 -81 -105 -87 83 -46 80 -42 vhcurveto
          77 -40 75 -36 -65 vvcurveto
          -68 -56 -42 -83 -108 -22 30 144 vhcurveto
          -45 -5 rlineto
          -97 -12 -77 -12 callsubr
          -10 rlineto
          0 63 -34 94 vhcurveto
          endchar
        </CharString>
        <CharString name="Scircumflex">
          42 callsubr
          228 -20 48 callgsubr
          162 702 -97 callgsubr
          71 -736 rmoveto
          145 102 81 114 91 -98 46 -87 45 hvcurveto
          -71 37 -65 37 60 vvcurveto
          55 53 41 73 90 29 -23 -70 -31 -3 -21 -41 callsubr
          -5 39 40 callsubr
          16 77 0 vvcurveto
          -3 -51 callsubr
          -64 25 -89 -130 -100 -81 -105 -87 83 -46 80 -42 vhcurveto
          77 -40 75 -36 -65 vvcurveto
          -68 -56 -42 -83 -108 -22 30 144 vhcurveto
          -45 -5 rlineto
          -97 -12 -77 -12 callsubr
          -10 rlineto
          0 63 -34 94 vhcurveto
          endchar
        </CharString>
        <CharString name="Scommaaccent">
          8 5 callgsubr
          55 0 49 558 54 hstemhm
          39 callsubr
          hintmask 10111100
          219 -12 rmoveto
          145 102 81 114 91 -98 46 -87 45 hvcurveto
          -71 37 -65 37 60 vvcurveto
          55 53 41 73 90 29 -23 -70 -31 -3 -21 -41 callsubr
          -5 39 40 callsubr
          16 77 0 vvcurveto
          -3 -51 callsubr
          -64 25 -89 -130 -100 -81 -105 -87 83 -46 80 -42 vhcurveto
          77 -40 75 -36 -65 vvcurveto
          -68 -56 -42 -83 -108 -22 30 144 vhcurveto
          -45 -5 rlineto
          -97 -12 -77 -12 callsubr
          -10 rlineto
          0 63 -34 94 vhcurveto
          -21 -95 -100 callgsubr
          hintmask 11011100
          -35 callgsubr
        </CharString>
        <CharString name="T">
          24 0 44 -27 -21 602 28 callsubr
          hintmask 01101000
          -25 callsubr
          hintmask 10101000
          0 88 4 49 47 100 -38 callgsubr
          -64 callgsubr
          hintmask 10011000
          -9 8 rlineto
          hintmask 10101000
          31 callsubr
          hintmask 10011000
          -32 callsubr
          rlineto
          hintmask 10101000
          2 callsubr
          rrcurveto
          endchar
        </CharString>
        <CharString name="Tbar">
          24 0 44 -27 -21 303 46 253 28 callsubr
          hintmask 01110100
          -25 callsubr
          hintmask 10110100
          0 88 4 49 47 100 -38 callgsubr
          32 callsubr
          -20 -3 -35 -41 -16 19 49 56 1 66 1 65 vhcurveto
          87 47 callsubr
          -39 -3 -38 -2 vhcurveto
          3 107 5 100 5 46 145 -7 4 -3 20 -120 47 4 rcurveline
          0 -12 84 -3 85 vhcurveto
          hintmask 10101100
          -9 8 rlineto
          hintmask 10110100
          31 callsubr
          hintmask 10101100
          -32 callsubr
          rlineto
          hintmask 10110100
          2 callsubr
          rrcurveto
          -253 vlineto
          -47 -48 1 0 hvcurveto
          -7 -39 9 -9 rlineto
          0 47 1 46 vhcurveto
          endchar
        </CharString>
        <CharString name="Tcaron">
          24 0 44 -27 -21 602 40 200 -20 hstemhm
          233 70 hintmask 01111000
          -25 callsubr
          hintmask 10111000
          0 88 4 49 47 100 -38 callgsubr
          -64 callgsubr
          -9 8 31 callsubr
          -32 callsubr
          2 callsubr
          rlinecurve
          174 239 -105 callgsubr
        </CharString>
        <CharString name="Tcedilla">
          24 -13 callgsubr
          161 44 554 28 callsubr
          hintmask 01111010
          227 -85 rmoveto
          -70 callgsubr
          hintmask 10111010
          -50 callsubr
          17 50 rlineto
          49 -1 65 -2 0 vvcurveto
          -64 callgsubr
          hintmask 01110110
          -9 8 rlineto
          hintmask 01111010
          31 callsubr
          hintmask 01110110
          -32 callsubr
          rlineto
          hintmask 01111010
          2 callsubr
          rrcurveto
          -436 vlineto
          -106 -7 -9 -93 -8 vhcurveto
          -8 -43 rlineto
          0 78 4 50 vhcurveto
          endchar
        </CharString>
        <CharString name="Thorn">
          21 -28 callgsubr
          466 49 91 43 callgsubr
          71 -71 80 215 84 hintmask 10101101
          227 544 rmoveto
          2 38 14 12 56 7 4 45 rcurveline
          hintmask 01110101
          0 -69 -9 -46 -41 -78 -74 callsubr
          27 2 15 30 7 -12 -42 -55 callsubr
          -56 -17 -18 -63 -44 callsubr
          hintmask 10110101
          -85 callsubr
          36 71 vlineto
          126 111 89 103 105 -76 58 -138 hvcurveto
          -82 hlineto
          -1 10 2 10 1 21 rrcurveto
          hintmask 10110011
          -5 -98 rmoveto
          7 2 2 1 23 hhcurveto
          130 58 -41 -92 -75 -41 -44 -80 -10 hvcurveto
          -29 1 -49 8 -24 8 1 51 2 71 5 115 rrcurveto
          endchar
        </CharString>
        <CharString name="U">
          -34 callsubr
          9 -20 hstemhm
          108 80 hintmask 10110000
          184 250 rmoveto
          8 294 2 38 12 12 50 7 rlinecurve
          -5 callsubr
          hintmask 11010000
          0 -62 -5 callgsubr
          -75 -89 callsubr
          -331 vlineto
          -141 79 -80 140 157 91 80 140 vhcurveto
          336 vlineto
          41 11 8 58 8 vhcurveto
          hintmask 10110000
          -5 callsubr
          hintmask 11010000
          0 -54 -5 callgsubr
          -75 -74 callsubr
          31 2 12 29 5 -8 -46 3 vhcurveto
          0 6 -256 -70 vvcurveto
          -110 -59 -59 -109 -108 -59 73 132 vhcurveto
          endchar
        </CharString>
        <CharString name="Uacute">
          -34 callsubr
          204 -20 hstem
          108 80 vstem
          -107 callgsubr
          323 537 rmoveto
          -16 48 -9 -51 callsubr
          -105 -60 -94 -49 vhcurveto
          6 -24 -9 callsubr
          105 40 101 34 -33 callgsubr
        </CharString>
        <CharString name="Ubreve">
          -34 callsubr
          96 58 66 -20 hstem
          108 80 vstem
          -107 callgsubr
          149 541 -88 callgsubr
        </CharString>
        <CharString name="Ucircumflex">
          -34 callsubr
          209 -20 hstem
          108 80 vstem
          -107 callgsubr
          32 463 -102 callgsubr
        </CharString>
        <CharString name="Udieresis">
          -34 callsubr
          88 93 hstem
          108 80 vstem
          -107 callgsubr
          241 475 -105 callsubr
        </CharString>
        <CharString name="Ugrave">
          -34 callsubr
          204 -20 hstem
          108 80 vstem
          -107 callgsubr
          14 527 -93 callgsubr
        </CharString>
        <CharString name="Uhungarumlaut">
          -34 callsubr
          200 -20 hstem
          108 80 vstem
          -107 callgsubr
          251 540 rmoveto
          -22 43 -9 4 48 callsubr
          -53 vhcurveto
          9 -21 8 -5 17 callsubr
          143 hmoveto
          -22 42 -9 5 48 callsubr
          -54 vhcurveto
          10 -21 7 -4 17 callsubr
          endchar
        </CharString>
        <CharString name="Umacron">
          -34 callsubr
          83 52 callsubr
          108 80 hintmask 11011000
          -107 callgsubr
          306 528 rmoveto
          hintmask 11101000
          -86 callsubr
        </CharString>
        <CharString name="Uogonek">
          159 -241 59 170 57 549 43 9 -20 hstemhm
          108 76 hintmask 11011000
          525 -159 rmoveto
          0 -38 -23 -39 -34 -24 22 32 43 22 32 97 95 vhcurveto
          44 44 22 55 67 vvcurveto
          336 vlineto
          40 10 8 59 9 vhcurveto
          -5 callsubr
          hintmask 11101000
          0 -54 -5 callgsubr
          -75 -74 callsubr
          31 2 12 29 5 -7 -47 3 vhcurveto
          0 6 -256 -70 vvcurveto
          -110 -59 -59 -109 -108 -59 73 132 vhcurveto
          8 294 2 38 12 12 50 7 rlinecurve
          hintmask 11011000
          -5 callsubr
          hintmask 11101000
          0 -62 -5 callgsubr
          -75 -89 callsubr
          -331 vlineto
          -141 79 -80 140 34 32 4 8 28 vhcurveto
          -69 -70 -25 -40 -37 vvcurveto
          -58 43 -36 68 -14 callsubr
          endchar
        </CharString>
        <CharString name="Uring">
          -34 callsubr
          37 164 hstem
          108 80 vstem
          -107 callgsubr
          165 462 -76 callsubr
        </CharString>
        <CharString name="Utilde">
          -34 callsubr
          111 64 -31 64 22 -20 hstemhm
          108 80 hintmask 11011100
          -107 callgsubr
          11 476 -10 callgsubr
          hintmask 11101100
          -23 callsubr
          89 -62 callsubr
          -55 -23 vhcurveto
          hintmask 11011100
          -28 -85 33 -33 -39 callsubr
        </CharString>
        <CharString name="V">
          88 4 -21 610 44 -40 -20 71 -10 callsubr
          85 536 rmoveto
          84 -261 89 -292 0 vvcurveto
          64 22 215 540 14 38 11 8 41 2 rlinecurve
          8 47 rlineto
          0 -62 -3 -48 -66 -77 7 -30 callsubr
          -43 rlineto
          hintmask 10110000
          -75 callsubr
          52 hlineto
          49 20 -12 -28 -30 -114 -296 -52 -134 hvcurveto
          -9 hlineto
          0 -126 431 32 vvcurveto
          29 18 8 71 -3 callgsubr
          hintmask 11000000
          0 -97 -11 -53 -34 -82 -45 callgsubr
          hintmask 10110000
          -7 -43 rlineto
          hintmask 11000000
          2 -4 52 -1 28 -18 12 -38 rlinecurve
          endchar
        </CharString>
        <CharString name="W">
          -11 callsubr
          71 -10 callsubr
          650 5 rmoveto
          210 540 14 39 11 7 39 2 rlinecurve
          7 47 rlineto
          0 -60 -3 -46 -64 -75 7 0 vhcurveto
          -7 -43 rlineto
          hintmask 10110000
          -75 callsubr
          50 hlineto
          48 20 -10 -25 -30 -112 -300 -50 -135 hvcurveto
          -6 hlineto
          0 -124 430 33 vvcurveto
          29 18 8 69 -3 callgsubr
          hintmask 11000000
          0 -85 -11 -60 -33 -80 -45 callgsubr
          hintmask 10110000
          -7 -43 rlineto
          hintmask 11000000
          2 -4 49 -2 28 -15 13 -40 rlinecurve
          18 -55 -141 -384 rlineto
          -6 hlineto
          0 -123 425 39 vvcurveto
          28 18 8 68 5 vhcurveto
          4 39 rlineto
          hintmask 10110000
          -3 7 rlineto
          hintmask 11000000
          0 -74 -11 -71 -33 -80 -45 callgsubr
          hintmask 10110000
          -6 -43 rlineto
          hintmask 11000000
          -1 1 -2 -1 vvcurveto
          50 -1 28 -18 12 -38 rrcurveto
          84 -260 83 -293 0 vvcurveto
          64 22 142 402 rlineto
          6 hlineto
          68 -219 57 -205 -33 callgsubr
        </CharString>
        <CharString name="Wacute">
          -11 callsubr
          264 -20 -104 callsubr
          38 804 rmoveto
          -16 48 -9 -51 callsubr
          -105 -60 -94 -49 vhcurveto
          6 -24 -9 callsubr
          105 40 101 34 -33 callgsubr
        </CharString>
        <CharString name="Wcircumflex">
          -11 callsubr
          269 -20 -104 callsubr
          -253 730 -102 callgsubr
        </CharString>
        <CharString name="Wdieresis">
          -11 callsubr
          148 93 -104 callsubr
          -44 742 -105 callsubr
        </CharString>
        <CharString name="Wgrave">
          -11 callsubr
          264 -20 -104 callsubr
          -271 794 -93 callgsubr
        </CharString>
        <CharString name="X">
          134 13 -21 29 -21 637 -20 28 4 callgsubr
          181 182 rmoveto
          -60 -74 -43 -47 -59 -17 -7 -41 rcurveline
          4 -7 rlineto
          0 60 4 39 37 73 -7 0 vhcurveto
          7 43 -2 4 rlineto
          -40 3 -18 9 18 vvcurveto
          19 12 18 39 52 vhcurveto
          92 122 109 -164 rlineto
          13 -19 7 -13 -12 vvcurveto
          -23 -25 -9 -53 -3 vhcurveto
          -4 -39 rlineto
          hintmask 10100000
          3 -7 rlineto
          hintmask 01100000
          0 99 8 56 46 78 -38 callgsubr
          7 43 -2 4 -63 6 -38 25 -36 52 rlinecurve
          -146 213 121 153 55 69 21 23 60 12 rlinecurve
          6 37 53 callgsubr
          -58 -4 -39 -37 -73 7 -13 callsubr
          -4 rlineto
          41 -4 17 -8 -18 vvcurveto
          -28 -86 -104 -45 -62 vhcurveto
          -67 102 -46 72 16 vvcurveto
          22 23 10 55 4 vhcurveto
          3 35 rlineto
          hintmask 01010000
          -3 7 rlineto
          hintmask 01100000
          0 -56 -8 -79 -46 -98 3 -13 callsubr
          -4 61 -8 43 -26 33 -49 rlinecurve
          131 -196 rlineto
          endchar
        </CharString>
        <CharString name="Y">
          3 callgsubr
          28 -20 hstemhm
          hintmask 10010000
          163 567 rmoveto
          23 16 8 60 5 vhcurveto
          3 35 -3 7 rlineto
          hintmask 01100000
          0 -86 -8 -56 -46 -64 3 -13 callsubr
          -4 78 -7 8 -26 40 -82 rlinecurve
          90 -183 rlineto
          24 -48 5 -26 -39 vvcurveto
          -44 vlineto
          -74 -6 -20 -72 -14 -55 callgsubr
          hintmask 10100000
          0 64 12 50 44 83 -78 callsubr
          -29 -3 -20 -35 -10 17 51 1 vhcurveto
          2 109 -1 34 21 36 100 176 rcurveline
          54 95 8 22 69 13 6 37 rcurveline
          53 callgsubr
          -53 -4 -39 -37 -74 7 -13 callsubr
          -4 rlineto
          43 -3 20 -10 -17 vvcurveto
          -14 -6 -18 -10 -18 vhcurveto
          -114 -212 rlineto
          -5 hlineto
          -1 -111 229 29 hvcurveto
          endchar
        </CharString>
        <CharString name="Yacute">
          3 callgsubr
          224 -20 -101 callgsubr
          282 220 rmoveto
          -16 48 -9 -51 callsubr
          -105 -60 -94 -49 vhcurveto
          6 -24 -9 callsubr
          105 40 101 34 -33 callgsubr
        </CharString>
        <CharString name="Ycircumflex">
          3 callgsubr
          229 -20 -101 callgsubr
          -9 146 -102 callgsubr
        </CharString>
        <CharString name="Ydieresis">
          3 callgsubr
          108 93 -101 callgsubr
          200 158 -105 callsubr
        </CharString>
        <CharString name="Ygrave">
          3 callgsubr
          224 -20 -101 callgsubr
          -27 210 -93 callgsubr
        </CharString>
        <CharString name="Z">
          21 callsubr
          15 -9 callgsubr
          495 13 rmoveto
          5 96 20 109 0 vvcurveto
          -47 -5 -22 -114 -41 -51 -69 -1 rlinecurve
          -203 -7 43 68 154 243 189 251 rlinecurve
          -11 29 -258 7 rlineto
          hintmask 10010000
          -175 11 -10 -9 rlineto
          -2 -92 -16 -103 0 vvcurveto
          47 4 11 101 32 33 92 4 rlinecurve
          173 6 -373 -564 rlineto
          hintmask 01100000
          14 -32 70 6 362 -6 rlineto
          endchar
        </CharString>
        <CharString name="Zacute">
          21 callsubr
          207 -20 -79 callgsubr
          -28 790 rmoveto
          -16 48 -9 -51 callsubr
          -105 -60 -94 -49 vhcurveto
          6 -24 -9 callsubr
          105 40 101 34 -33 callgsubr
        </CharString>
        <CharString name="Zcaron">
          21 callsubr
          204 -20 -79 callgsubr
          -57 840 -105 callgsubr
        </CharString>
        <CharString name="Zdotaccent">
          21 callsubr
          85 110 -79 callgsubr
          -193 722 -83 callsubr
        </CharString>
        <CharString name="a">
          -49 callgsubr
          291 -20 -106 callsubr
          endchar
        </CharString>
        <CharString name="a.sups">
          -67 callgsubr
        </CharString>
        <CharString name="aacute">
          -49 callgsubr
          485 -20 -106 callsubr
          236 431 rmoveto
          -16 48 -9 -51 callsubr
          -105 -60 -94 -49 vhcurveto
          6 -24 -9 callsubr
          105 40 101 34 -33 callgsubr
        </CharString>
        <CharString name="abreve">
          -49 callgsubr
          354 58 50 -20 hstemhm
          hintmask 10011000
          427 93 rmoveto
          -103 callgsubr
          hintmask 01111000
          2 19 37 4 30 hhcurveto
          22 41 0 -1 20 hvcurveto
          24 -77 rlineto
          5 -13 2 -12 -9 vvcurveto
          -19 -15 -6 -56 -4 vhcurveto
          -3 -36 3 -5 rlineto
          hintmask 10011000
          0 61 7 65 30 61 -2 -12 callsubr
          36 -2 4 -45 4 -17 13 -13 38 rlinecurve
          -185 321 rmoveto
          7 hlineto
          61 -194 rlineto
          -2 -19 -33 -2 -21 hhcurveto
          -68 hlineto
          87 412 -71 callsubr
        </CharString>
        <CharString name="acircumflex">
          -49 callgsubr
          490 -20 -106 callsubr
          -43 357 -102 callgsubr
        </CharString>
        <CharString name="acute">
          542 -21 194 -20 hstem
          327 672 -35 callsubr
        </CharString>
        <CharString name="acute.cap">
          724 -21 138 -20 hstem
          349 787 rmoveto
          -16 48 -9 -51 callsubr
          -105 -60 -94 -49 vhcurveto
          6 -24 -9 callsubr
          105 40 101 34 -33 callgsubr
        </CharString>
        <CharString name="adieresis">
          -49 callgsubr
          369 93 -106 callsubr
          166 369 -105 callsubr
        </CharString>
        <CharString name="ae">
          34 callsubr
          68 -20 hstemhm
          hintmask 01110000
          262 34 rmoveto
          -2 -36 2 -5 rlineto
          hintmask 10110000
          -52 callgsubr
          hintmask 10101100
          -3 5 rlineto
          hintmask 10110000
          -6 -47 -74 -3 -128 hhcurveto
          -86 -62 3 -1 hvcurveto
          -6 -38 3 -4 rlineto
          hintmask 10101100
          0 17 1 10 12 6 -3 -11 3 vhcurveto
          -195 -348 rlineto
          -40 -23 -26 -26 -2 hhcurveto
          5 -34 rlineto
          0 37 3 20 51 68 -5 -12 callsubr
          41 -42 1 rlineto
          -32 -13 7 17 8 3 9 9 17 hvcurveto
          53 97 73 10 79 6 13 -88 rlineto
          2 -16 3 -15 -16 vvcurveto
          -27 -14 -7 -62 -5 vhcurveto
          -70 209 rmoveto
          91 170 rlineto
          8 hlineto
          23 -161 -57 -5 rlineto
          endchar
        </CharString>
        <CharString name="aeacute">
          34 callsubr
          311 -20 hstemhm
          hintmask 01110100
          262 34 rmoveto
          -2 -36 2 -5 rlineto
          hintmask 10110100
          -52 callgsubr
          -3 5 rlineto
          -6 -47 -74 -3 -128 hhcurveto
          -86 -62 3 -1 hvcurveto
          -6 -38 3 -4 rlineto
          hintmask 10101100
          0 17 1 10 12 6 -3 -11 3 vhcurveto
          -195 -348 rlineto
          -40 -23 -26 -26 -2 hhcurveto
          5 -34 rlineto
          0 37 3 20 51 68 -5 -12 callsubr
          41 -42 1 rlineto
          -32 -13 7 17 8 3 9 9 17 hvcurveto
          53 97 73 10 79 6 13 -88 rlineto
          2 -16 3 -15 -16 vvcurveto
          -27 -14 -7 -62 -5 vhcurveto
          -70 209 rmoveto
          91 170 rlineto
          8 hlineto
          23 -161 -57 -5 rlineto
          287 460 -35 callsubr
        </CharString>
        <CharString name="agrave">
          -49 callgsubr
          485 -20 -106 callsubr
          -51 421 -93 callgsubr
        </CharString>
        <CharString name="amacron">
          -49 callgsubr
          364 52 6 -20 -102 callsubr
          hintmask 10001000
          0 61 7 65 30 61 -2 -12 callsubr
          36 -2 4 -45 4 -17 13 -13 38 rlinecurve
          -185 321 rmoveto
          7 hlineto
          61 -194 rlineto
          -2 -19 -33 -2 -21 hhcurveto
          -68 hlineto
          231 422 rmoveto
          hintmask 10010000
          -86 callsubr
        </CharString>
        <CharString name="ampersand">
          101 -12 59 357 60 165 -20 hstem
          627 217 rmoveto
          15 7 73 92 -1 5 -24 20 rlineto
          -7 hlineto
          0 -47 -58 -15 vhcurveto
          -41 -115 25 -39 hhcurveto
          -15 -5 -74 -92 rlineto
          -5 vlineto
          26 -20 rlineto
          6 hlineto
          0 45 58 19 vhcurveto
          56 -8 rlineto
          -119 -10 -71 -70 -111 hhcurveto
          -93 -69 48 79 -30 hvcurveto
          241 144 90 68 61 88 rrcurveto
          12 15 27 37 13 vvcurveto
          25 -33 65 0 vhcurveto
          -19 hlineto
          -5 -5 -2 -98 -61 -90 -123 -91 rlinecurve
          -4 2 rlineto
          0 9 16 20 vvcurveto
          51 -34 30 -56 -93 -80 -100 -116 -157 95 -103 146 133 114 102 138 23 vhcurveto
          -455 42 rmoveto
          76 40 58 53 27 18 -18 -29 -46 -30 -32 -103 -66 vhcurveto
          -3 18 -2 19 20 vvcurveto
          endchar
        </CharString>
        <CharString name="aogonek">
          -16 -241 57 184 216 -41 41 291 -20 hstemhm
          hintmask 11010000
          500 -162 rmoveto
          0 -37 -22 -38 -34 -22 22 31 40 24 32 55 59 vhcurveto
          25 -1 26 -1 0 vvcurveto
          5 36 -2 4 -45 4 -17 13 -13 38 rlinecurve
          -103 callgsubr
          hintmask 10110000
          2 19 37 4 30 hhcurveto
          22 41 0 -1 20 hvcurveto
          24 -77 rlineto
          5 -13 2 -12 -9 vvcurveto
          -19 -15 -6 -56 -4 vhcurveto
          -3 -36 3 -5 rlineto
          hintmask 11010000
          0 60 7 64 vhcurveto
          -55 -55 -44 -47 -48 vvcurveto
          -58 45 -33 63 vhcurveto
          50 16 47 45 0 vvcurveto
          -270 594 rmoveto
          7 hlineto
          61 -194 rlineto
          -2 -19 -33 -2 -21 hhcurveto
          -68 hlineto
          endchar
        </CharString>
        <CharString name="approxequal">
          -16 134 64 -55 -21 55 64 55 64 -21 64 12 -20 hstemhm
          hintmask 10001000
          73 284 -10 callgsubr
          hintmask 10010100
          45 138 -43 53 hhcurveto
          16 4 76 89 -62 callsubr
          -55 -23 vhcurveto
          hintmask 01101000
          -45 -138 43 -53 hhcurveto
          -16 -4 -76 -89 rlineto
          -5 vlineto
          22 -21 rlineto
          6 -162 -10 callgsubr
          hintmask 10010100
          45 138 -43 53 hhcurveto
          16 4 76 89 -62 callsubr
          -55 -23 vhcurveto
          hintmask 01110100
          -45 -138 43 -53 -39 callsubr
        </CharString>
        <CharString name="aring">
          -49 callgsubr
          318 164 -106 callsubr
          90 356 -76 callsubr
        </CharString>
        <CharString name="aringacute">
          -49 callgsubr
          313 148 -35 -20 180 -20 hstemhm
          hintmask 10010100
          427 93 rmoveto
          -103 callgsubr
          hintmask 01110100
          2 19 37 4 30 hhcurveto
          22 41 0 -1 20 hvcurveto
          24 -77 rlineto
          5 -13 2 -12 -9 vvcurveto
          -19 -15 -6 -56 -4 vhcurveto
          -3 -36 3 -5 rlineto
          hintmask 10001100
          0 61 7 65 30 61 -2 -12 callsubr
          36 -2 4 -45 4 -17 13 -13 38 rlinecurve
          -185 321 rmoveto
          7 hlineto
          61 -194 rlineto
          -2 -19 -33 -2 -21 hhcurveto
          -68 hlineto
          98 348 19 callsubr
          hintmask 10010100
          14 callgsubr
          110 -4 callsubr
        </CharString>
        <CharString name="asciicircum">
          -16 78 -21 424 -20 hstem
          270 481 rmoveto
          -47 -2 -86 -203 rlineto
          -39 -91 -42 -110 0 vvcurveto
          5 -9 50 -7 rlineto
          0 39 112 34 82 vhcurveto
          60 154 rlineto
          6 hlineto
          70 -168 rlineto
          36 -82 43 -99 0 vvcurveto
          11 -1 40 30 rlineto
          0 -50 106 -35 82 vhcurveto
          -32 73 -52 125 -33 callgsubr
        </CharString>
        <CharString name="asciitilde">
          -16 214 64 -55 -21 55 64 12 4 callgsubr
          71 202 -10 callgsubr
          hintmask 10010000
          46 140 -43 54 hhcurveto
          16 4 76 89 rlineto
          5 vlineto
          -22 21 rlineto
          -6 hlineto
          0 -39 -55 -24 vhcurveto
          hintmask 01100000
          -46 -140 43 -54 -39 callsubr
        </CharString>
        <CharString name="asterisk">
          -66 438 -21 320 -20 hstem
          86 666 rmoveto
          -9 -4 rlineto
          -9 -30 0 -38 0 vvcurveto
          0 55 -12 51 -17 vhcurveto
          6 5 6 33 rlineto
          -45 34 -55 29 0 vvcurveto
          5 -193 rmoveto
          1 -9 rlineto
          26 -18 36 -12 0 vvcurveto
          0 28 49 32 43 vhcurveto
          -3 7 -29 16 rlineto
          -47 -32 -44 -44 0 vvcurveto
          185 -55 rmoveto
          9 -1 rlineto
          25 19 22 30 0 vvcurveto
          0 -37 42 -31 44 vhcurveto
          -8 -1 -24 -23 rlineto
          16 -54 28 -56 0 vvcurveto
          109 159 rmoveto
          4 9 rlineto
          -10 29 -22 31 0 vvcurveto
          0 -51 -23 -52 -16 vhcurveto
          -1 -8 14 -29 rlineto
          56 -2 62 9 0 vvcurveto
          -117 153 rmoveto
          -7 7 rlineto
          -31 -36 -12 0 hvcurveto
          0 5 -56 -54 vvcurveto
          6 -4 34 5 rlineto
          18 53 11 61 -33 callgsubr
        </CharString>
        <CharString name="at">
          310 -209 43 154 66 352 54 97 56 hstem
          33 71 107 70 vstem
          477 -12 rmoveto
          212 110 154 162 173 -138 136 -201 -261 -166 -207 -218 -208 137 -177 261 -12 hvcurveto
          26 36 rlineto
          7 vlineto
          -247 14 -106 165 193 vvcurveto
          188 128 163 203 177 118 -101 -176 -134 -71 -92 -146 vhcurveto
          -4 4 rlineto
          26 186 58 199 0 vvcurveto
          -8 12 -31 15 -5 -1 -9 -25 -100 16 rlineto
          -107 -122 -166 -170 -80 26 -56 54 hvcurveto
          61 43 60 71 66 125 6 -2 rcurveline
          0 -43 -189 -19 vvcurveto
          -19 12 -10 24 vhcurveto
          -167 81 rmoveto
          -17 -12 49 55 123 65 110 63 41 47 -25 -8 13 hvcurveto
          -178 -77 -88 -126 -35 hhcurveto
          endchar
        </CharString>
        <CharString name="atilde">
          -49 callgsubr
          355 30 callsubr
          hintmask 10010100
          427 93 rmoveto
          -103 callgsubr
          hintmask 01110100
          2 19 37 4 30 hhcurveto
          22 41 0 -1 20 hvcurveto
          24 -77 rlineto
          5 -13 2 -12 -9 vvcurveto
          -19 -15 -6 -56 -4 vhcurveto
          -3 -36 3 -5 rlineto
          hintmask 10001000
          0 61 7 65 30 61 -2 -12 callsubr
          36 -2 4 -45 4 -17 13 -13 38 rlinecurve
          -185 321 rmoveto
          7 hlineto
          61 -194 rlineto
          -2 -19 -33 -2 -21 hhcurveto
          -68 hlineto
          -47 343 3 callsubr
          hintmask 10010100
          -67 callsubr
          hintmask 10001000
          -54 callsubr
        </CharString>
        <CharString name="b">
          -4 -8 49 -29 -21 30 -21 458 44 -43 -20 59 -12 callgsubr
          72 162 79 -53 84 hintmask 0011001100000000
          154 hmoveto
          hintmask 1001001010000000
          40 39 -7 -1 35 hvcurveto
          109 89 67 86 62 -54 41 -70 14 hvcurveto
          hintmask 1001001100000000
          53 21 40 43 56 vvcurveto
          77 -59 43 -106 vhcurveto
          hintmask 1000111100000000
          0 -74 -4 -30 -30 -67 -36 callgsubr
          rlineto
          hintmask 1001001100000000
          3 -4 rlineto
          hintmask 0100111100000000
          0 18 1 10 23 6 -9 -32 vhcurveto
          -1 -320 rlineto
          -43 2 callgsubr
          hintmask 0011001010000000
          0 58 9 42 vhcurveto
          125 229 rmoveto
          68 -12 35 -34 -52 vvcurveto
          hintmask 1001001100000000
          -56 -37 -34 -63 -65 -24 14 37 vhcurveto
          3 136 rlineto
          2 50 rmoveto
          1 54 2 60 4 49 rrcurveto
          13 1 2 4 11 hhcurveto
          94 43 -29 -62 -78 -72 -17 0 -13 -73 6 0 hvcurveto
          endchar
        </CharString>
        <CharString name="b.sups">
          -177 344 45 204 53 172 -20 hstem
          57 735 rmoveto
          -376 vlineto
          6 -6 rlineto
          0 46 -9 47 92 69 70 95 83 -49 54 -74 -8 -28 -17 -25 -37 vhcurveto
          3 117 6 78 7 9 -4 10 rcurveline
          0 -63 -12 -52 -7 vhcurveto
          -3 -28 2 -3 rlineto
          1 7 2 7 hhcurveto
          18 7 -10 -25 hvcurveto
          61 -335 rmoveto
          2 167 rlineto
          15 17 23 11 16 hhcurveto
          42 31 -45 -63 -61 -29 -35 -48 -19 -23 6 5 -12 hvcurveto
          endchar
        </CharString>
        <CharString name="backslash">
          -193 -89 -21 785 -20 hstem
          37 665 rmoveto
          0 79 -288 43 -162 vhcurveto
          42 -165 42 -160 0 vvcurveto
          48 hlineto
          7 8 rlineto
          0 -53 176 -39 152 vhcurveto
          -115 449 rlineto
          -46 hlineto
          endchar
        </CharString>
        <CharString name="bar">
          -150 -248 -21 1076 -20 hstem
          214 807 rmoveto
          -60 -11 -1 -520 rlineto
          -1 -179 0 -360 0 vvcurveto
          9 -6 59 11 rlineto
          0 -1 377 172 vvcurveto
          166 6 344 0 vhcurveto
          endchar
        </CharString>
        <CharString name="braceleft">
          -213 -112 -21 782 -20 hstem
          102 71 vstem
          46 247 rmoveto
          54 -12 43 -26 -50 -41 -41 -76 -59 vvcurveto
          -62 45 -54 79 30 24 8 0 vhcurveto
          8 28 -3 -51 callsubr
          -30 -6 -20 -45 -17 32 36 vhcurveto
          46 27 84 53 vvcurveto
          61 -35 30 -38 14 vhcurveto
          6 vlineto
          34 11 39 28 61 50 -27 84 45 vvcurveto
          36 17 33 44 17 29 -5 0 vhcurveto
          8 30 -3 5 rlineto
          0 -31 6 -26 -82 -44 -54 -62 vhcurveto
          -59 41 -77 -46 vvcurveto
          -43 -45 -27 -48 -13 vhcurveto
          endchar
        </CharString>
        <CharString name="braceright">
          -213 -112 -21 782 -20 hstem
          136 71 vstem
          263 269 rmoveto
          -54 12 -43 26 50 41 41 76 59 vvcurveto
          62 -45 54 -79 -30 -24 -8 0 vhcurveto
          -8 -28 3 -6 rlineto
          0 30 6 20 45 17 -32 -36 vhcurveto
          -46 -27 -84 -53 vvcurveto
          -61 35 -30 38 -14 vhcurveto
          -6 vlineto
          -34 -11 -39 -28 -61 -50 27 -84 -45 vvcurveto
          -36 -17 -33 -44 -17 -29 5 0 vhcurveto
          -8 -30 3 -5 rlineto
          0 31 -6 26 82 44 54 62 vhcurveto
          59 -41 77 46 vvcurveto
          43 45 27 48 13 vhcurveto
          endchar
        </CharString>
        <CharString name="bracketleft">
          -213 -116 -21 777 -20 hstem
          278 -137 rmoveto
          6 30 -4 7 -116 24 rlineto
          655 vlineto
          114 24 6 31 -4 6 -184 -11 rlineto
          0 11 -279 -100 vvcurveto
          -100 -11 -276 0 vhcurveto
          endchar
        </CharString>
        <CharString name="bracketright">
          -213 -116 -21 777 -20 hstem
          31 640 rmoveto
          -6 -30 4 -7 116 -24 rlineto
          -655 vlineto
          -114 -24 -6 -31 4 -6 184 11 rlineto
          0 -11 279 100 vvcurveto
          100 11 276 0 vhcurveto
          endchar
        </CharString>
        <CharString name="breve">
          558 58 66 -20 hstem
          199 616 -88 callgsubr
        </CharString>
        <CharString name="breve.cap">
          710 58 50 -20 hstem
          199 768 -71 callsubr
        </CharString>
        <CharString name="brokenbar">
          -150 -248 -21 1076 -20 hstem
          152 166 rmoveto
          -429 vlineto
          9 -6 59 11 rlineto
          0 -1 239 194 vvcurveto
          -3 3 rlineto
          3 198 rmoveto
          1 176 5 249 0 vvcurveto
          -11 6 -60 -11 rlineto
          -142 -1 -142 -142 vvcurveto
          4 -3 rlineto
          endchar
        </CharString>
        <CharString name="bullet">
          -182 117 221 hstem
          168 117 rmoveto
          67 46 50 62 58 -43 51 -67 -65 -46 -51 -62 -57 40 -51 68 hvcurveto
          endchar
        </CharString>
        <CharString name="c">
          32 callgsubr
          -94 callsubr
          endchar
        </CharString>
        <CharString name="c.sups">
          -230 343 55 204 45 hstem
          28 70 vstem
          245 417 rmoveto
          0 -34 -19 -35 -49 -29 41 70 60 24 33 45 28 18 -18 -30 vhcurveto
          -20 vlineto
          35 2 rlineto
          2 51 11 42 0 vvcurveto
          -2 5 rlineto
          0 -33 13 -45 -88 -65 -68 -93 -87 53 -56 85 36 57 45 0 vhcurveto
          -9 28 rlineto
          endchar
        </CharString>
        <CharString name="cacute">
          32 callgsubr
          194 -20 -94 callsubr
          165 656 rmoveto
          -16 48 -9 -51 callsubr
          -105 -60 -94 -49 vhcurveto
          6 -24 -9 callsubr
          105 40 101 34 -33 callgsubr
        </CharString>
        <CharString name="caron">
          547 -21 184 -20 hstem
          47 686 rmoveto
          69 -71 76 -89 0 vvcurveto
          14 hlineto
          0 76 89 69 71 vhcurveto
          -16 23 -8 1 -50 -43 -50 -37 -28 -21 rlinecurve
          -29 21 -48 36 -51 44 -8 -1 rcurveline
          endchar
        </CharString>
        <CharString name="caron.alt">
          496 -21 234 -20 hstem
          233 709 -57 callsubr
          endchar
        </CharString>
        <CharString name="caron.cap">
          725 -21 134 -20 hstem
          330 837 -105 callgsubr
        </CharString>
        <CharString name="ccaron">
          32 callgsubr
          191 -20 -94 callsubr
          148 706 -105 callgsubr
        </CharString>
        <CharString name="ccedilla">
          14 -13 callgsubr
          152 50 411 55 hstemhm
          41 88 hintmask 01111100
          247 -85 rmoveto
          -70 callgsubr
          hintmask 10111100
          -50 callsubr
          14 42 rlineto
          85 5 60 25 0 vvcurveto
          6 8 rlineto
          5 59 16 74 0 vvcurveto
          -50 -4 rlineto
          -82 -19 -41 -36 -70 hhcurveto
          -107 -68 84 134 121 64 72 104 75 37 -23 -47 -19 -2 -20 0 hvcurveto
          50 3 rlineto
          5 76 16 60 0 vvcurveto
          6 callgsubr
          -78 19 -68 -168 -119 -113 -161 -144 88 -91 141 -7 vhcurveto
          endchar
        </CharString>
        <CharString name="ccircumflex">
          32 callgsubr
          230 -20 -94 callsubr
          -127 571 -97 callgsubr
          endchar
        </CharString>
        <CharString name="cdotaccent">
          32 callgsubr
          72 110 -94 callsubr
          12 588 -83 callsubr
        </CharString>
        <CharString name="cedilla">
          -13 callgsubr
          184 -20 hstemhm
          hintmask 01110000
          151 -85 rmoveto
          -70 callgsubr
          hintmask 10110000
          -50 callsubr
          25 73 rlineto
          -43 hlineto
          endchar
        </CharString>
        <CharString name="cent">
          -98 -133 -21 142 67 603 -20 hstem
          36 80 vstem
          365 88 rmoveto
          0 -57 -33 -56 -6 -5 0 1 -6 vhcurveto
          34 350 rlineto
          34 -9 22 -29 -40 vvcurveto
          -31 vlineto
          41 3 rlineto
          3 78 18 60 0 vvcurveto
          -3 -6 callsubr
          -49 17 -61 2 vhcurveto
          18 185 -6 9 -26 -4 -18 -192 rlineto
          -119 -13 -87 -106 -134 vvcurveto
          -117 62 -81 100 -18 vhcurveto
          -13 -140 5 -7 26 3 13 140 rlineto
          -1 5 5 0 6 hhcurveto
          49 88 67 0 hvcurveto
          -11 31 rlineto
          -255 157 rmoveto
          104 43 60 78 3 vhcurveto
          -33 -346 rlineto
          -55 22 -33 65 92 vvcurveto
          endchar
        </CharString>
        <CharString name="circumflex">
          548 -21 176 -20 hstem
          68 528 -97 callgsubr
          endchar
        </CharString>
        <CharString name="circumflex.cap">
          733 -21 134 -20 hstem
          68 713 -102 callgsubr
        </CharString>
        <CharString name="colon">
          -284 -12 119 161 119 hstem
          112 -39 callgsubr
          280 vmoveto
          -18 callsubr
        </CharString>
        <CharString name="comma">
          -284 -136 -21 256 -20 hstem
          -48 callsubr
          endchar
        </CharString>
        <CharString name="commaaccent">
          -272 49 callgsubr
          138 6 callsubr
          -35 callgsubr
        </CharString>
        <CharString name="copyright">
          171 -12 40 -40 179 256 40 95 40 hstemhm
          hintmask 01110000
          339 131 rmoveto
          63 45 19 0 hvcurveto
          4 7 rlineto
          2 38 11 49 0 vvcurveto
          -32 -2 rlineto
          -52 -10 -23 -23 -46 hhcurveto
          -67 -31 55 82 79 37 40 59 48 16 -19 -25 -11 -1 -13 0 hvcurveto
          33 2 rlineto
          3 51 10 39 0 vvcurveto
          -2 4 rlineto
          0 -50 12 -46 -105 -68 -76 -100 -85 48 -71 102 vhcurveto
          -297 162 rmoveto
          -168 135 -137 169 169 136 137 168 168 -136 137 -169 -169 -135 -137 -168 vhcurveto
          42 hmoveto
          146 117 119 145 145 118 -119 -146 vhcurveto
          hintmask 10110000
          -146 -118 -119 -145 -145 -117 119 146 vhcurveto
          endchar
        </CharString>
        <CharString name="currency">
          -78 194 -21 40 48 197 48 51 -20 hstem
          73 359 rmoveto
          -30 9 -29 16 -23 vhcurveto
          -33 -32 -32 -30 0 vvcurveto
          23 -39 11 -3 rlineto
          0 32 31 35 36 vhcurveto
          -17 24 29 -10 32 hhcurveto
          32 30 10 17 24 hvcurveto
          66 -66 40 30 3 11 rlineto
          0 -35 32 -36 34 vhcurveto
          14 22 9 27 29 vvcurveto
          32 -10 30 -18 24 vhcurveto
          70 69 -27 40 -13 -31 callgsubr
          -33 -37 -35 -38 vhcurveto
          15 -23 -28 9 -30 hhcurveto
          -30 -28 -9 -15 -23 hvcurveto
          -35 35 -32 34 0 vvcurveto
          -39 -26 -2 -12 rlineto
          0 34 -33 36 -36 vhcurveto
          -17 -24 -10 -29 -32 vvcurveto
          48 hmoveto
          55 44 44 54 55 44 -44 -55 -54 -44 -44 -55 -54 -44 44 54 vhcurveto
          endchar
        </CharString>
        <CharString name="d">
          74 16 callgsubr
          hstemhm
          122 71 -71 83 262 88 hintmask 10100101
          271 -1 callgsubr
          141 -107 92 -162 hvcurveto
          hintmask 10011101
          -20 callsubr
          hintmask 01100101
          0 55 9 42 vhcurveto
          hintmask 10100101
          43 76 -9 0 hvcurveto
          -38 463 rmoveto
          -15 callsubr
          -76 -19 14 53 hvcurveto
          hintmask 10100011
          35 callsubr
          endchar
        </CharString>
        <CharString name="d.sups">
          -160 346 54 -36 -21 257 46 172 -20 hstemhm
          hintmask 01110000
          228 390 rmoveto
          4 -1 rlineto
          -30 4 21 -16 36 hhcurveto
          33 11 27 47 0 vvcurveto
          -9 12 rlineto
          hintmask 10110000
          0 -16 -13 -17 -15 -9 10 17 186 9 180 11 16 vhcurveto
          -5 9 rlineto
          0 -60 -13 -53 -6 vhcurveto
          -4 -32 rlineto
          0 10 2 6 18 7 -10 -25 vhcurveto
          -90 vlineto
          1 -14 -12 1 -11 hhcurveto
          -91 -70 -71 -93 -83 49 -53 74 8 26 15 29 43 hvcurveto
          -2 33 rmoveto
          0 -30 -26 -27 -42 -31 44 41 callsubr
        </CharString>
        <CharString name="dagger">
          -31 -72 -21 423 62 206 -20 hstem
          218 308 rmoveto
          -15 -393 11 -8 62 9 -5 395 rlineto
          93 vmoveto
          15 186 -11 8 -62 -9 5 -188 rlineto
          71 -68 -36 callsubr
          endchar
        </CharString>
        <CharString name="daggerdbl">
          -31 -72 -21 206 62 183 62 178 -20 hstem
          218 90 rmoveto
          -15 -175 11 -8 62 9 -5 177 rlineto
          18 23 -36 callsubr
          17 219 rmoveto
          -150 vlineto
          55 4 rlineto
          150 vlineto
          -2 92 rmoveto
          15 159 -11 8 -62 -9 5 -161 rlineto
          71 -67 -36 callsubr
          endchar
        </CharString>
        <CharString name="dcaron">
          74 16 callgsubr
          220 18 callsubr
          -71 83 262 88 hintmask 1010011010000000
          271 -1 callgsubr
          141 -107 92 -162 hvcurveto
          hintmask 1001111010000000
          -20 callsubr
          hintmask 0110011010000000
          0 55 9 42 vhcurveto
          hintmask 1010011010000000
          43 76 -9 0 hvcurveto
          -38 463 rmoveto
          -15 callsubr
          -76 -19 14 53 hvcurveto
          hintmask 1010010110000000
          35 callsubr
          182 243 -105 callgsubr
        </CharString>
        <CharString name="dcroat">
          -73 callgsubr
        </CharString>
        <CharString name="degree">
          -220 397 42 168 42 hstem
          25 523 rmoveto
          -70 56 -56 70 70 56 56 70 70 -56 56 -70 -70 -56 -56 -70 vhcurveto
          42 hmoveto
          46 38 38 46 46 38 -38 -46 -46 -38 -38 -46 -46 -38 38 46 vhcurveto
          endchar
        </CharString>
        <CharString name="dieresis">
          566 93 hstem
          277 566 -105 callsubr
        </CharString>
        <CharString name="dieresis.cap">
          725 93 hstem
          277 725 -105 callsubr
        </CharString>
        <CharString name="divide">
          -16 29 119 87 56 87 119 hstem
          cntrmask 11100000
          482 297 rmoveto
          0 -134 -19 callsubr
          227 1 8 51 rlineto
          -243 -258 rmoveto
          -89 callgsubr
          349 vmoveto
          -18 callsubr
        </CharString>
        <CharString name="dollar">
          -63 -133 -21 145 48 416 51 152 -20 hstem
          329 71 vstem
          282 649 rmoveto
          -6 9 -26 -4 -14 -148 rlineto
          -101 -8 -73 -60 -79 vvcurveto
          -70 67 -36 66 -32 vhcurveto
          4 -3 5 -2 5 -2 -17 -175 rcurveline
          -67 4 -16 27 96 vvcurveto
          -45 -4 rlineto
          -72 -11 -63 -12 callsubr
          -9 rlineto
          0 52 -26 78 -1 vhcurveto
          -13 -138 5 -7 26 3 13 143 rlineto
          108 9 73 60 83 vvcurveto
          4 callsubr
          vhcurveto
          -1 -1 0 1 -1 hvcurveto
          16 166 rlineto
          49 -5 17 -20 -44 vvcurveto
          -21 -2 -15 -41 callsubr
          -4 39 4 rlineto
          5 71 14 61 0 vvcurveto
          53 callgsubr
          -49 17 -70 2 vhcurveto
          50 -391 rmoveto
          -44 -38 -29 -56 -4 vhcurveto
          15 160 rlineto
          44 -22 35 -24 -37 vvcurveto
          -179 270 rmoveto
          39 39 28 53 2 vhcurveto
          -14 -152 rlineto
          -44 23 -34 24 36 vvcurveto
          endchar
        </CharString>
        <CharString name="dotaccent">
          602 110 hstem
          194 602 -83 callsubr
        </CharString>
        <CharString name="dotaccent.cap">
          719 110 hstem
          194 719 -83 callsubr
        </CharString>
        <CharString name="dotbelowcomb">
          -192 119 hstem
          196 -192 rmoveto
          -18 callsubr
        </CharString>
        <CharString name="dotlessi">
          -41 callgsubr
          -7 callgsubr
          hintmask 10100110
          -66 callsubr
          hintmask 10110010
          -27 callgsubr
          hintmask 10101010
          -62 callgsubr
          -91 callsubr
          hintmask 01100110
          0 57 9 43 38 73 -2 0 vhcurveto
          7 40 -2 4 rlineto
          0 -22 -3 -19 37 callgsubr
          70 5 150 6 107 vhcurveto
          endchar
        </CharString>
        <CharString name="dotlessj">
          -230 -94 -21 573 40 7 -20 hstemhm
          113 72 hintmask 10110000
          113 92 -59 callsubr
          hintmask 11010000
          -44 callgsubr
          endchar
        </CharString>
        <CharString name="e">
          -56 callgsubr
          68 -12 callgsubr
          79 hintmask 10110010
          193 90 rmoveto
          25 0 36 3 76 vhcurveto
          2 14 24 3 25 hhcurveto
          43 69 -2 0 hvcurveto
          12 52 -4 5 rlineto
          0 -70 -8 -29 vhcurveto
          -24 -41 1 -17 hhcurveto
          6 142 rlineto
          27 1 3 2 50 hhcurveto
          110 10 -5 -49 -11 -2 -22 0 hvcurveto
          48 4 rlineto
          5 72 14 62 0 vvcurveto
          hintmask 10101110
          -3 5 rlineto
          hintmask 10110010
          -6 -53 -67 -3 -127 hhcurveto
          -52 -71 2 0 hvcurveto
          -6 -38 -75 callsubr
          hintmask 01101110
          -79 callsubr
          hintmask 10110010
          0 56 8 65 84 166 36 callsubr
          5 rlineto
          7 70 15 66 0 vvcurveto
          -4 5 -44 -4 rlineto
          -84 -13 -15 -10 -123 hhcurveto
          -56 -5 5 42 hvcurveto
          endchar
        </CharString>
        <CharString name="e.sups">
          -212 343 54 108 142 -43 43 hstemhm
          hintmask 10100000
          97 535 rmoveto
          44 5 26 25 36 hhcurveto
          29 17 -17 -31 -12 -3 -3 -11 -1 hvcurveto
          hintmask 11000000
          70 -35 rmoveto
          8 -6 callsubr
          4 17 17 vvcurveto
          67 -35 34 -68 -82 -65 -71 -90 -87 55 -56 86 43 61 46 0 vhcurveto
          -9 26 -4 1 rlineto
          0 -38 -19 -40 -52 -33 38 62 -2 vhcurveto
          8 vlineto
          endchar
        </CharString>
        <CharString name="eacute">
          -56 callgsubr
          262 -20 -106 callgsubr
          222 557 rmoveto
          -16 48 -9 -51 callsubr
          -105 -60 -94 -49 vhcurveto
          6 -24 -9 callsubr
          105 40 101 34 -33 callgsubr
        </CharString>
        <CharString name="ebreve">
          -56 callgsubr
          154 58 66 -12 callgsubr
          79 hintmask 10110111
          193 90 rmoveto
          25 0 36 3 76 vhcurveto
          2 14 24 3 25 hhcurveto
          43 69 -2 0 hvcurveto
          12 52 -4 5 rlineto
          0 -70 -8 -29 vhcurveto
          -24 -41 1 -17 hhcurveto
          6 142 rlineto
          27 1 3 2 50 hhcurveto
          110 10 -5 -49 -11 -2 -22 0 hvcurveto
          48 4 rlineto
          5 72 14 62 46 callgsubr
          rlineto
          -6 -53 -67 -3 -127 hhcurveto
          -52 -71 2 0 hvcurveto
          -6 -38 -75 callsubr
          hintmask 01101111
          -79 callsubr
          hintmask 10110111
          0 56 8 65 84 166 36 callsubr
          5 rlineto
          7 70 15 66 0 vvcurveto
          -4 5 -44 -4 rlineto
          -84 -13 -15 -10 -123 hhcurveto
          -56 -5 5 42 hvcurveto
          86 561 -88 callgsubr
        </CharString>
        <CharString name="ecaron">
          -56 callgsubr
          259 -20 -106 callgsubr
          204 607 -105 callgsubr
        </CharString>
        <CharString name="ecircumflex">
          -56 callgsubr
          267 -20 -106 callgsubr
          -57 483 -102 callgsubr
        </CharString>
        <CharString name="edieresis">
          -56 callgsubr
          146 93 -106 callgsubr
          152 495 -105 callsubr
        </CharString>
        <CharString name="edotaccent">
          -56 callgsubr
          140 110 -106 callgsubr
          69 489 -83 callsubr
        </CharString>
        <CharString name="egrave">
          -56 callgsubr
          262 -20 -106 callgsubr
          -66 547 -93 callgsubr
        </CharString>
        <CharString name="eight">
          -65 callsubr
        </CharString>
        <CharString name="eight.dnom">
          -195 13 44 callsubr
          80 -91 callgsubr
        </CharString>
        <CharString name="eight.lf">
          -65 callsubr
        </CharString>
        <CharString name="eight.numr">
          -195 280 44 callsubr
          347 -91 callgsubr
        </CharString>
        <CharString name="eight.sinf">
          -195 -107 44 callsubr
          -40 -91 callgsubr
        </CharString>
        <CharString name="eight.sups">
          -195 364 44 callsubr
          431 -91 callgsubr
        </CharString>
        <CharString name="eight.tf">
          -72 -12 43 521 46 hstemhm
          46 72 -55 70 179 74 hintmask 11101000
          46 124 rmoveto
          -88 77 -48 87 111 85 80 98 77 -54 42 -60 34 vhcurveto
          39 22 55 46 77 vvcurveto
          90 -75 44 -75 vhcurveto
          hintmask 11011000
          -102 -71 -79 -84 -74 49 -40 56 -32 hvcurveto
          hintmask 11101000
          -43 -21 -79 -50 -94 vvcurveto
          187 -93 rmoveto
          -67 -48 56 61 75 54 34 31 14 hvcurveto
          67 -35 67 -31 -68 vvcurveto
          -61 -49 -45 -55 vhcurveto
          hintmask 11011000
          -100 434 rmoveto
          45 33 42 54 52 40 -38 -71 -59 -31 -31 -25 -16 vhcurveto
          -63 35 -60 31 62 vvcurveto
          endchar
        </CharString>
        <CharString name="eight.tosf">
          -82 -12 43 521 46 hstemhm
          43 72 -72 86 177 73 hintmask 11101000
          43 124 rmoveto
          -88 76 -48 86 110 84 80 98 77 -53 42 -59 34 vhcurveto
          38 22 54 46 77 vvcurveto
          90 -74 44 -74 -101 -70 -79 -84 -74 48 -40 55 -32 vhcurveto
          -42 -21 -78 -50 -94 vvcurveto
          184 -93 rmoveto
          -65 -47 56 61 75 52 34 31 14 hvcurveto
          66 -35 66 -31 -68 vvcurveto
          -61 -48 -45 -55 vhcurveto
          hintmask 11011000
          -98 434 rmoveto
          45 34 42 52 51 40 -38 -71 -59 -30 -31 -25 -16 vhcurveto
          -62 35 -60 31 62 vvcurveto
          endchar
        </CharString>
        <CharString name="ellipsis">
          136 -12 119 hstem
          326 -39 callgsubr
          210 hmoveto
          -89 callgsubr
          -420 hmoveto
          -18 callsubr
        </CharString>
        <CharString name="emacron">
          -56 callgsubr
          141 52 6 -12 callgsubr
          79 hintmask 10110101
          193 90 rmoveto
          25 0 36 3 76 vhcurveto
          2 14 24 3 25 hhcurveto
          43 69 -2 0 hvcurveto
          12 52 -4 5 rlineto
          0 -70 -8 -29 vhcurveto
          -24 -41 1 -17 hhcurveto
          6 142 rlineto
          27 1 3 2 50 hhcurveto
          110 10 -5 -49 -11 -2 -22 0 hvcurveto
          48 4 rlineto
          5 72 14 62 46 callgsubr
          rlineto
          -6 -53 -67 -3 -127 hhcurveto
          -52 -71 2 0 hvcurveto
          -6 -38 -75 callsubr
          hintmask 01101101
          -79 callsubr
          hintmask 10110011
          0 56 8 65 84 166 36 callsubr
          5 rlineto
          7 70 15 66 0 vvcurveto
          -4 5 -44 -4 rlineto
          -84 -13 -15 -10 -123 hhcurveto
          -56 -5 5 42 hvcurveto
          217 548 rmoveto
          hintmask 10110101
          -86 callsubr
        </CharString>
        <CharString name="emdash">
          396 226 55 -36 -21 63 4 callgsubr
          918 287 rmoveto
          hintmask 10000000
          -14 -270 -6 -160 hhcurveto
          -172 -297 1 0 hvcurveto
          -11 -49 rlineto
          hintmask 01100000
          -4 callgsubr
          hintmask 10000000
          82 512 2 322 hhcurveto
          8 51 rlineto
          endchar
        </CharString>
        <CharString name="endash">
          -64 226 58 -39 -21 63 4 callgsubr
          458 287 rmoveto
          hintmask 10000000
          -1 -34 -1 -43 -1 vhcurveto
          -2 -44 -53 -1 -40 -17 callsubr
          hintmask 01100000
          -4 callgsubr
          hintmask 10000000
          -26 callsubr
        </CharString>
        <CharString name="eng">
          91 -101 -21 143 -21 459 -20 59 -20 26 -20 hstemhm
          hintmask 11110000
          131 498 rmoveto
          -21 -52 4 0 hvcurveto
          -6 -34 3 -5 rlineto
          57 -7 13 -10 -31 vvcurveto
          -10 -316 -2 -47 -12 -14 -37 -4 rlinecurve
          -4 -40 rlineto
          0 41 6 33 42 57 -38 callgsubr
          7 40 -3 4 rlineto
          0 -31 -2 -8 -20 -6 8 24 vhcurveto
          3 306 rlineto
          5 hlineto
          0 123 -164 144 -208 vhcurveto
          -12 -41 -26 -28 -51 -24 -3 -7 rcurveline
          16 -27 98 33 40 55 3 101 rlinecurve
          7 347 1 31 15 13 39 5 rlinecurve
          hintmask 11101000
          4 41 rlineto
          hintmask 11110000
          0 -49 -6 -35 -27 -58 -53 callsubr
          -39 -75 callsubr
          0 17 1 14 18 9 -10 -24 vhcurveto
          -291 -5 vlineto
          0 -151 201 -111 166 vhcurveto
          0 -49 -3 -15 vhcurveto
          endchar
        </CharString>
        <CharString name="eogonek">
          -14 -241 59 182 43 -26 -21 236 47 172 47 -39 -20 68 18 callsubr
          hintmask 10111001
          451 -42 callsubr
          39 22 32 50 53 vhcurveto
          22 15 -1 0 hvcurveto
          hintmask 11011001
          6 5 rlineto
          7 70 15 66 0 vvcurveto
          -4 5 -44 -4 rlineto
          -84 -13 -15 -10 -123 hhcurveto
          -56 -5 5 42 25 0 36 3 76 hvcurveto
          2 14 24 3 25 hhcurveto
          43 69 -2 0 hvcurveto
          12 52 -4 5 rlineto
          0 -70 -8 -29 vhcurveto
          -24 -41 1 -17 hhcurveto
          6 142 rlineto
          27 1 3 2 50 hhcurveto
          110 10 -5 -49 -11 -2 -22 0 hvcurveto
          48 4 rlineto
          5 72 14 62 0 vvcurveto
          hintmask 11010111
          -3 5 rlineto
          hintmask 11011001
          -6 -53 -67 -3 -127 hhcurveto
          -52 -71 2 0 hvcurveto
          -6 -38 -75 callsubr
          hintmask 11010111
          -79 callsubr
          0 56 8 65 46 69 -1 -1 55 vhcurveto
          -52 -53 -40 -46 -46 -46 callgsubr
          endchar
        </CharString>
        <CharString name="equal">
          -16 158 56 -36 -21 158 56 6 -9 callgsubr
          482 220 rmoveto
          14 callsubr
          hintmask 10010000
          41 callgsubr
          -6 167 rmoveto
          hintmask 10100000
          0 -134 -19 callsubr
          227 1 8 51 rlineto
          endchar
        </CharString>
        <CharString name="estimated">
          275 9 -21 663 -20 hstem
          180 311 rmoveto
          597 8 hlineto
          184 -165 148 -203 -203 -166 -148 -184 -183 166 -148 203 118 107 51 78 67 vhcurveto
          -54 hlineto
          -67 -57 -85 -42 -95 hhcurveto
          -89 -81 37 60 -56 hvcurveto
          -5 6 -4 7 8 vvcurveto
          181 vlineto
          3 2 1 3 vhcurveto
          463 205 rmoveto
          -182 vlineto
          -3 -2 -2 -3 vhcurveto
          -458 hlineto
          -3 -2 2 3 hvcurveto
          178 vlineto
          9 4 8 6 6 vhcurveto
          59 57 79 37 89 hhcurveto
          87 79 -36 -57 57 hvcurveto
          6 -6 4 -7 -9 vvcurveto
          endchar
        </CharString>
        <CharString name="eth">
          -73 callgsubr
        </CharString>
        <CharString name="exclam">
          -237 -12 119 587 -20 hstem
          117 -39 callgsubr
          -11 222 rmoveto
          11 -8 28 7 52 474 -9 11 -83 -18 -7 -10 rlineto
          endchar
        </CharString>
        <CharString name="exclamdown">
          -237 -221 -21 587 119 hstem
          168 464 20 callgsubr
          11 -222 rmoveto
          -11 8 -28 -7 -52 -474 9 -11 83 18 7 10 rlineto
          endchar
        </CharString>
        <CharString name="f">
          -76 0 43 -31 -21 227 48 185 47 -39 -20 68 -12 callgsubr
          78 hintmask 10110010
          193 95 rmoveto
          3 118 rlineto
          2 14 24 3 25 hhcurveto
          38 62 -2 0 hvcurveto
          11 53 -4 5 rlineto
          0 -61 -8 -25 vhcurveto
          -83 1 7 155 rlineto
          27 1 3 2 50 hhcurveto
          94 10 -6 -48 -10 -2 -24 0 hvcurveto
          48 3 rlineto
          5 72 14 64 0 vvcurveto
          hintmask 10101110
          -4 5 rlineto
          hintmask 10110010
          -6 -50 -70 -3 -110 hhcurveto
          -52 -71 2 0 hvcurveto
          -6 -38 -75 callsubr
          hintmask 01101110
          -72 callsubr
          2 callgsubr
          hintmask 10110010
          0 57 9 46 44 80 -38 callgsubr
          7 44 -3 5 rlineto
          0 -39 -3 -17 -29 -7 10 42 vhcurveto
          endchar
        </CharString>
        <CharString name="f.sups">
          -289 369 -21 249 221 -48 48 hstemhm
          hintmask 11000000
          32 599 rmoveto
          32 -1 8 -4 1 -20 rrcurveto
          -157 vlineto
          -22 -11 -11 -25 -3 vhcurveto
          -4 -33 rlineto
          0 43 3 36 26 61 -2 -12 callsubr
          36 -2 -31 callgsubr
          -18 -1 -21 -20 -9 9 22 vhcurveto
          2 179 rlineto
          45 -1 36 -1 0 vvcurveto
          7 39 -2 2 rlineto
          0 -40 -2 -45 vhcurveto
          30 vlineto
          hintmask 10100000
          74 1 20 32 46 hhcurveto
          40 31 -24 0 hvcurveto
          7 2 rlineto
          11 28 10 22 0 vvcurveto
          -2 8 rlineto
          0 -29 12 -44 -94 -61 -68 -108 vhcurveto
          -5 vlineto
          -39 -6 -5 -28 rlineto
          endchar
        </CharString>
        <CharString name="fi">
          243 -80 callsubr
          457 325 rmoveto
          2 30 10 9 45 5 4 41 rcurveline
          -27 callgsubr
          hintmask 0110110110000000
          -62 callgsubr
          -91 callsubr
          hintmask 1011000110000000
          0 57 9 43 38 73 -2 0 vhcurveto
          7 40 -2 4 rlineto
          0 -22 -3 -19 37 callgsubr
          70 5 150 6 107 vhcurveto
          endchar
        </CharString>
        <CharString name="five">
          -92 -105 70 457 69 47 -20 hstem
          288 76 vstem
          364 128 rmoveto
          95 -106 42 -134 31 vhcurveto
          7 126 -8 callgsubr
          -126 -10 -118 vhcurveto
          9 -11 rlineto
          158 -27 51 -34 -65 vvcurveto
          -79 -81 -54 -105 -26 -27 3 6 -28 vhcurveto
          -5 -6 rlineto
          -59 3 22 -14 38 hhcurveto
          120 165 111 122 hvcurveto
          endchar
        </CharString>
        <CharString name="five.dnom">
          -232 -8 -25 callgsubr
          128 -87 callsubr
        </CharString>
        <CharString name="five.lf">
          -102 47 callgsubr
          285 76 vstem
          361 205 rmoveto
          98 -77 51 -167 12 vhcurveto
          9 149 -8 callgsubr
          -131 -10 -123 vhcurveto
          9 -11 rlineto
          144 -3 67 -39 -79 vvcurveto
          -75 -70 -53 -98 -26 -27 3 6 -28 vhcurveto
          -5 -6 rlineto
          -53 3 17 -20 43 hhcurveto
          126 141 115 102 hvcurveto
          endchar
        </CharString>
        <CharString name="five.numr">
          -232 259 -25 callgsubr
          395 -87 callsubr
        </CharString>
        <CharString name="five.sinf">
          -232 -128 -25 callgsubr
          8 -87 callsubr
        </CharString>
        <CharString name="five.sups">
          -232 343 -25 callgsubr
          479 -87 callsubr
        </CharString>
        <CharString name="five.tf">
          -72 47 callgsubr
          306 75 vstem
          381 205 rmoveto
          98 -81 51 -174 12 vhcurveto
          10 149 rlineto
          121 108 -8 0 hvcurveto
          6 6 25 118 -33 -4 -12 -30 -13 -7 -41 -2 rlinecurve
          -196 -8 -9 -8 rlineto
          0 -7 -131 -10 -123 vhcurveto
          9 -11 rlineto
          151 -3 71 -39 -79 vvcurveto
          -75 -74 -53 -104 -27 -28 3 6 -29 vhcurveto
          -5 -6 rlineto
          -53 3 18 -20 44 hhcurveto
          130 147 115 102 hvcurveto
          endchar
        </CharString>
        <CharString name="five.tosf">
          -82 -105 70 457 69 47 -20 hstem
          295 76 vstem
          371 128 rmoveto
          95 -108 42 -136 31 vhcurveto
          7 126 rlineto
          118 105 -8 0 hvcurveto
          6 6 24 118 -33 -4 -11 -30 -13 -7 -40 -2 rlinecurve
          -191 -8 -9 -8 rlineto
          0 -7 -126 -10 -118 vhcurveto
          9 -11 rlineto
          161 -27 52 -34 -65 vvcurveto
          -79 -83 -54 -107 -26 -27 3 6 -29 vhcurveto
          -4 -6 rlineto
          -59 3 22 -14 38 hhcurveto
          121 168 111 122 hvcurveto
          endchar
        </CharString>
        <CharString name="fl">
          366 -80 callsubr
          432 -95 rmoveto
          -86 callgsubr
          33 callgsubr
          hintmask 1010110110000000
          -63 callgsubr
          -317 rlineto
          -45 -13 -15 -42 -6 vhcurveto
          -6 -42 rlineto
          52 callgsubr
        </CharString>
        <CharString name="florin">
          -140 -159 41 425 50 198 43 hstem
          116 -43 rmoveto
          -54 -5 -24 8 callsubr
          76 56 82 8 vhcurveto
          12 131 18 197 rlineto
          68 -1 60 -2 0 vvcurveto
          10 53 -3 -31 callgsubr
          -63 -3 -67 vhcurveto
          6 69 rlineto
          64 5 1 65 55 hhcurveto
          40 39 -32 -35 16 hvcurveto
          13 hlineto
          9 10 9 44 20 vvcurveto
          21 -52 15 -45 -76 -64 -57 -84 -8 vhcurveto
          -7 -65 -3 -32 -70 -10 -7 -34 4 -6 rlineto
          61 -1 4 -1 -32 vvcurveto
          endchar
        </CharString>
        <CharString name="foundryicon">
          261 -59 152 52 157 42 180 -87 87 hstemhm
          hintmask 11100000
          328 344 rmoveto
          45 33 -31 -42 hvcurveto
          -178 -74 136 vlineto
          38 -14 18 -29 -18 -6 -3 -9 vhcurveto
          -180 -74 vlineto
          hintmask 11010000
          344 74 -116 vlineto
          -6 2 -3 4 3 3 2 2 3 vhcurveto
          hintmask 11100000
          155 4 rmoveto
          89 56 rlineto
          21 -28 hlineto
          -6 4 -4 6 vhcurveto
          58 -36 -58 hlineto
          -7 -3 -4 -6 hvcurveto
          -90 vlineto
          -40 12 -17 29 8 9 1 3 9 vhcurveto
          -25 vlineto
          -63 -37 rlineto
          -45 -33 31 42 hvcurveto
          132 vlineto
          7 -3 3 -7 vhcurveto
          -26 hlineto
          -255 -361 rmoveto
          423 hlineto
          52 28 28 52 hvcurveto
          423 vlineto
          52 -28 28 -52 vhcurveto
          -423 hlineto
          -52 -28 -28 -52 hvcurveto
          -423 vlineto
          -52 28 -28 52 vhcurveto
          endchar
        </CharString>
        <CharString name="four">
          -75 37 callsubr
          4 89 -31 callsubr
          hintmask 11100000
          7 callsubr
        </CharString>
        <CharString name="four.dnom">
          -211 14 26 callsubr
          107 rmoveto
          154 -3 rlineto
          -47 -4 -58 -12 callsubr
          -6 61 7 4 -51 callsubr
          -3 49 -1 48 vhcurveto
          54 -2 6 44 -5 7 rlineto
          -55 219 hlineto
          -39 6 -3 -1 -172 -235 rlineto
          146 136 rmoveto
          6 -125 -96 hlineto
          endchar
        </CharString>
        <CharString name="four.lf">
          -77 25 callgsubr
          2 183 -31 callsubr
          hintmask 11110000
          7 callsubr
        </CharString>
        <CharString name="four.numr">
          -211 281 26 callsubr
          374 rmoveto
          154 -3 rlineto
          -47 -4 -58 -12 callsubr
          -6 61 7 4 -51 callsubr
          -3 49 -1 48 vhcurveto
          54 -2 6 44 -5 7 rlineto
          -55 219 hlineto
          -39 6 -3 -1 -172 -235 rlineto
          146 136 rmoveto
          6 -125 -96 hlineto
          endchar
        </CharString>
        <CharString name="four.sinf">
          -211 -106 -21 113 46 225 -20 hstem
          10 -13 rmoveto
          154 -3 rlineto
          -47 -4 -58 -12 callsubr
          -6 61 7 4 -51 callsubr
          -3 49 -1 48 vhcurveto
          54 -2 6 44 -5 7 rlineto
          -55 219 hlineto
          -39 6 -3 -1 -172 -235 rlineto
          146 136 rmoveto
          6 -125 -96 hlineto
          endchar
        </CharString>
        <CharString name="four.sups">
          -211 365 26 callsubr
          458 rmoveto
          154 -3 rlineto
          -47 -4 -58 -12 callsubr
          -6 61 7 4 -51 callsubr
          -3 49 -1 48 vhcurveto
          54 -2 6 44 -5 7 rlineto
          -55 219 hlineto
          -39 6 -3 -1 -172 -235 rlineto
          146 136 rmoveto
          6 -125 -96 hlineto
          endchar
        </CharString>
        <CharString name="four.tf">
          -72 25 callgsubr
          3 183 rmoveto
          79 92 -2 -2 78 -42 callgsubr
          54 -2 38 21 callgsubr
          -94 352 hlineto
          -32 10 rlineto
          hintmask 11110000
          -1 -2 -1 -1 hhcurveto
          -278 -378 rlineto
          236 241 rmoveto
          9 -224 -172 hlineto
          endchar
        </CharString>
        <CharString name="four.tosf">
          -82 37 callsubr
          3 89 rmoveto
          77 91 -2 -2 76 -42 callgsubr
          53 -2 37 21 callgsubr
          -92 352 hlineto
          -33 10 rlineto
          hintmask 11100000
          -1 -2 -1 -1 hhcurveto
          -272 -378 rlineto
          231 241 rmoveto
          9 -224 -168 hlineto
          endchar
        </CharString>
        <CharString name="fraction">
          -397 -74 -21 773 -20 hstem
          304 659 -83 callgsubr
          endchar
        </CharString>
        <CharString name="franc">
          -74 0 42 -42 166 -155 -21 30 -21 130 150 -46 46 177 46 -41 -20 72 -20 hstemhm
          129 71 hintmask 1000101001000000
          198 90 rmoveto
          39 95 vlineto
          5 30 rlineto
          hintmask 0100011001000000
          -5 7 rlineto
          -94 hlineto
          3 62 rlineto
          3 24 30 2 31 hhcurveto
          37 43 -4 1 hvcurveto
          14 51 -6 8 rlineto
          0 -69 -10 -22 -22 -36 0 1 -22 vhcurveto
          3 79 1 33 -6 57 25 5 rlinecurve
          1 8 11 1 17 hhcurveto
          100 7 -7 -44 -11 -1 -27 0 hvcurveto
          49 3 rlineto
          6 73 14 63 0 vvcurveto
          hintmask 1000100111000000
          -5 7 rlineto
          hintmask 1000101001000000
          -5 -54 -66 -6 -67 hhcurveto
          -50 hlineto
          -50 -71 3 0 hvcurveto
          -7 -37 2 -8 rlineto
          hintmask 0100010111000000
          0 24 1 9 22 5 -7 -30 vhcurveto
          -1 -258 rlineto
          -67 hlineto
          -6 -30 rlineto
          hintmask 0010101001000000
          7 -7 rlineto
          66 hlineto
          -70 -2 -15 -64 -11 vhcurveto
          -5 -43 rlineto
          hintmask 1000101001000000
          0 60 10 40 vhcurveto
          hintmask 0001101001000000
          13 17 -1 18 hhcurveto
          36 36 -2 1 hvcurveto
          9 38 -2 8 rlineto
          hintmask 1000101001000000
          1 -38 -3 -18 -24 -7 11 37 vhcurveto
          endchar
        </CharString>
        <CharString name="g">
          13 callsubr
          -94 callgsubr
          endchar
        </CharString>
        <CharString name="g.sups">
          -179 199 40 193 215 -41 41 14 -20 hstemhm
          226 87 hintmask 11001000
          158 432 rmoveto
          77 57 48 64 23 -9 22 -17 18 hvcurveto
          3 3 rlineto
          25 2 25 3 0 vvcurveto
          8 43 rlineto
          hintmask 10011000
          -3 -31 callgsubr
          -57 -17 -32 -3 vhcurveto
          hintmask 11001000
          -18 -21 6 -26 hhcurveto
          -70 -56 -50 -64 -37 17 -31 31 -17 hvcurveto
          -3 vlineto
          0 -35 -22 -19 -20 vhcurveto
          -32 28 -26 40 -5 vhcurveto
          -4 vlineto
          0 -44 -27 -20 -24 vhcurveto
          -54 41 -32 66 84 80 56 60 vhcurveto
          105 -215 -61 53 vvcurveto
          8 9 10 13 7 vhcurveto
          -3 12 13 -2 13 hhcurveto
          14 36 rmoveto
          -38 -25 28 45 hvcurveto
          hintmask 10101000
          41 20 24 34 38 25 -28 -45 -42 -20 -23 -34 vhcurveto
          -229 vmoveto
          -39 -24 17 28 25 31 24 0 hvcurveto
          99 -13 16 -6 -22 vvcurveto
          -28 -39 -25 -44 vhcurveto
          endchar
        </CharString>
        <CharString name="gbreve">
          13 callsubr
          63 58 50 -20 -94 callgsubr
          -191 404 -71 callsubr
        </CharString>
        <CharString name="gcircumflex">
          13 callsubr
          230 -20 -94 callgsubr
          -334 338 -97 callgsubr
          endchar
        </CharString>
        <CharString name="gcommaaccent">
          44 5 callgsubr
          58 0 50 0 155 0 46 0 210 0 55 hstemhm
          41 86 hintmask 11001011
          495 246 rmoveto
          0 -37 -4 -37 vhcurveto
          -47 -54 2 -5 hhcurveto
          -8 -44 -75 callsubr
          53 hlineto
          35 8 -7 -34 hvcurveto
          -88 vlineto
          hintmask 10101011
          0 -42 -26 -62 -106 -68 83 135 125 66 68 118 81 34 -19 -47 -21 -2 -21 0 vhcurveto
          49 4 rlineto
          4 74 17 60 0 vvcurveto
          6 callgsubr
          -91 19 -69 -174 -115 -108 -166 -149 94 -93 147 108 82 34 -12 callsubr
          8 rlineto
          -3 14 -2 26 28 vvcurveto
          81 5 26 22 16 vhcurveto
          -260 -331 -100 callgsubr
          hintmask 11010101
          -35 callgsubr
        </CharString>
        <CharString name="gdotaccent">
          13 callsubr
          72 110 -94 callgsubr
          -195 355 -83 callsubr
        </CharString>
        <CharString name="germandbls">
          396 -9 48 416 52 hstem
          329 71 388 71 vstem
          191 -9 rmoveto
          124 85 63 90 4 callsubr
          hvcurveto
          -58 28 -53 27 44 vvcurveto
          40 41 29 56 70 23 -18 -52 -21 -2 -15 -41 callsubr
          -4 39 4 rlineto
          5 71 14 61 0 vvcurveto
          53 callgsubr
          -54 19 -75 -112 -84 -63 -85 -70 67 -36 66 -32 vhcurveto
          62 -30 61 -26 -49 vvcurveto
          -47 -43 -30 -64 -83 -19 23 104 vhcurveto
          -45 -4 rlineto
          -72 -11 -63 -12 callsubr
          -9 rlineto
          0 54 -27 79 vhcurveto
          459 hmoveto
          124 85 63 90 4 callsubr
          hvcurveto
          -58 28 -53 27 44 vvcurveto
          40 41 29 56 70 23 -18 -52 -21 -2 -15 -41 callsubr
          -4 39 4 rlineto
          5 71 14 61 0 vvcurveto
          53 callgsubr
          -54 19 -75 -112 -84 -63 -85 -70 67 -36 66 -32 vhcurveto
          62 -30 61 -26 -49 vvcurveto
          -47 -43 -30 -64 -83 -19 23 104 vhcurveto
          -45 -4 rlineto
          -72 -11 -63 -12 callsubr
          -9 rlineto
          0 54 -27 79 vhcurveto
          endchar
        </CharString>
        <CharString name="grave">
          542 -21 193 -20 hstem
          72 660 rmoveto
          0 84 -63 84 -76 vhcurveto
          9 2 20 19 rlineto
          -72 78 -78 94 0 vvcurveto
          -10 -2 -38 -41 rlineto
          endchar
        </CharString>
        <CharString name="grave.cap">
          724 -21 138 -20 hstem
          53 777 -93 callgsubr
        </CharString>
        <CharString name="greater">
          -16 91 -21 394 -20 hstem
          467 295 rmoveto
          0 -125 52 -73 32 vhcurveto
          -82 35 -106 50 0 vvcurveto
          -30 -40 1 -11 rlineto
          -28 callsubr
          endchar
        </CharString>
        <CharString name="greaterequal">
          -16 -73 55 -36 -21 hstemhm
          hintmask 10000000
          467 295 rmoveto
          -1 -125 53 -73 32 vhcurveto
          -42 18 rlineto
          -73 31 -73 37 -1 vvcurveto
          -30 -40 rlineto
          -4 1 -3 -4 vvcurveto
          -28 callsubr
          7 -296 rmoveto
          -1 -1 -135 -5 -78 -17 callsubr
          hintmask 01000000
          -4 callgsubr
          hintmask 10000000
          -26 callsubr
        </CharString>
        <CharString name="guillemotleft">
          -95 45 callsubr
          358 400 -40 callsubr
          -188 15 -40 callsubr
          endchar
        </CharString>
        <CharString name="guillemotright">
          -95 45 callsubr
          235 46 -40 callgsubr
          -144 -15 -40 callgsubr
          endchar
        </CharString>
        <CharString name="guilsinglleft">
          -261 45 callsubr
          192 400 -40 callsubr
          endchar
        </CharString>
        <CharString name="guilsinglright">
          -261 45 callsubr
          69 46 -40 callgsubr
          endchar
        </CharString>
        <CharString name="h">
          27 callgsubr
          183 -20 59 -20 27 -12 callgsubr
          77 243 71 hintmask 10110111
          524 10 callsubr
          hintmask 10111011
          -33 callsubr
          hintmask 10110111
          4 41 rlineto
          hintmask 10111011
          0 -60 -7 -37 -32 -61 -15 callgsubr
          -1 -318 rlineto
          -44 2 callgsubr
          hintmask 01110111
          -71 callgsubr
          70 5 151 6 106 vhcurveto
          endchar
        </CharString>
        <CharString name="h.sups">
          -159 366 -21 246 56 171 -20 hstem
          23 349 rmoveto
          0 39 2 29 25 40 -2 -41 callsubr
          34 -2 -31 callgsubr
          -12 -1 -7 -15 -6 8 23 50 1 49 1 46 vhcurveto
          7 9 32 23 28 hhcurveto
          30 16 -21 -39 hvcurveto
          -3 -115 rlineto
          -21 -9 -11 -23 -5 vhcurveto
          -4 -34 rlineto
          0 44 6 26 24 50 callsubr
          -14 -1 -7 -15 -6 9 23 vhcurveto
          33 11 92 23 vvcurveto
          52 -33 30 -59 -22 -53 -39 -13 -15 vhcurveto
          3 118 6 85 8 10 -5 10 rcurveline
          0 -62 -12 -53 -7 vhcurveto
          -3 -28 3 -2 rlineto
          14 hlineto
          19 6 -9 -25 hvcurveto
          -318 vlineto
          -23 -8 -9 -23 -2 vhcurveto
          endchar
        </CharString>
        <CharString name="hbar">
          27 callgsubr
          -45 156 -39 150 -39 -20 66 -20 hstemhm
          120 71 249 71 hintmask 1010011110000000
          522 10 callsubr
          hintmask 1010100110000000
          0 -65 -7 -39 -28 -58 1 1 vhcurveto
          -6 -38 -75 callsubr
          hintmask 1001011110000000
          0 18 1 10 24 6 -8 -34 vhcurveto
          -29 vlineto
          -1 -36 -37 0 -32 hhcurveto
          -137 hlineto
          1 11 3 51 4 8 46 7 rlinecurve
          4 41 rlineto
          hintmask 1010100110000000
          0 -60 -7 -37 -32 -61 -36 callgsubr
          3 -4 rlineto
          hintmask 1001011110000000
          0 17 1 10 24 6 -8 -34 vhcurveto
          -30 vlineto
          -42 -32 1 0 hvcurveto
          -6 -33 rlineto
          hintmask 1010100110000000
          7 -7 rlineto
          73 hlineto
          -1 -249 rlineto
          -44 2 callgsubr
          hintmask 0110100110000000
          -71 callgsubr
          55 3 107 4 95 vhcurveto
          73 hlineto
          4 31 -11 10 rlineto
          0 -27 -1 -37 -1 vhcurveto
          11 1 10 1 10 vhcurveto
          -204 -71 rmoveto
          122 -66 hlineto
          -5 -44 -31 -2 -40 hhcurveto
          -130 1 3 72 rlineto
          endchar
        </CharString>
        <CharString name="hcircumflex">
          27 callgsubr
          183 -20 59 -20 285 -12 callgsubr
          77 243 71 hintmask 10111111
          524 10 callsubr
          -33 callsubr
          4 41 rlineto
          0 -60 -7 -37 -32 -61 -15 callgsubr
          -1 -318 rlineto
          -44 2 callgsubr
          hintmask 01111111
          -71 callgsubr
          70 5 151 6 106 vhcurveto
          -336 168 -97 callgsubr
          endchar
        </CharString>
        <CharString name="hungarumlaut">
          555 -21 171 -20 hstem
          256 664 rmoveto
          -33 38 -9 -31 callgsubr
          -74 -83 -66 -68 vhcurveto
          16 -18 9 -2 rlineto
          79 66 76 55 0 vvcurveto
          130 9 rmoveto
          -33 38 -9 -31 callgsubr
          -74 -83 -66 -68 vhcurveto
          16 -18 9 -2 rlineto
          79 66 76 55 -33 callgsubr
        </CharString>
        <CharString name="hungarumlaut.cap">
          706 -21 152 -20 hstem
          273 790 rmoveto
          -22 43 -9 4 48 callsubr
          -53 vhcurveto
          9 -21 8 -5 17 callsubr
          143 hmoveto
          -22 42 -9 5 48 callsubr
          -54 vhcurveto
          10 -21 7 -4 17 callsubr
          endchar
        </CharString>
        <CharString name="hyphen">
          -198 231 -21 89 -20 hstem
          281 299 rmoveto
          0 -19 -4 -46 -5 vhcurveto
          -174 -20 -6 -52 7 -8 240 26 5 54 rlineto
          endchar
        </CharString>
        <CharString name="i">
          -41 callgsubr
          -7 callgsubr
          hintmask 10100110
          -66 callsubr
          hintmask 10110010
          -27 callgsubr
          hintmask 10101010
          -62 callgsubr
          -91 callsubr
          hintmask 01100110
          0 57 9 43 38 73 -2 0 vhcurveto
          7 40 -2 4 rlineto
          0 -22 -3 -19 37 callgsubr
          70 5 150 6 107 vhcurveto
          endchar
        </CharString>
        <CharString name="i.sups">
          -320 365 -21 254 -20 142 85 hstem
          61 71 vstem
          99 720 rmoveto
          26 19 19 26 24 -15 16 -23 -27 -18 -19 -26 -24 15 -16 23 hvcurveto
          -68 -376 rmoveto
          0 43 7 30 25 40 -2 -12 callsubr
          34 51 callgsubr
          21 107 6 97 9 18 vhcurveto
          -5 10 rlineto
          0 -57 -13 -52 -7 vhcurveto
          -3 -31 rlineto
          0 9 2 6 19 7 -9 -25 vhcurveto
          -146 vlineto
          -23 -11 -12 -25 -5 vhcurveto
          endchar
        </CharString>
        <CharString name="iacute">
          -41 callgsubr
          -27 callsubr
          221 18 callsubr
          hintmask 10110110
          -66 callsubr
          -27 callgsubr
          hintmask 10101110
          -62 callgsubr
          -91 callsubr
          hintmask 01110110
          0 57 9 43 38 73 -2 0 vhcurveto
          7 40 -2 4 rlineto
          0 -22 -3 -19 37 callgsubr
          70 5 150 6 107 vhcurveto
          106 227 rmoveto
          -16 48 -9 -51 callsubr
          -105 -60 -94 -49 vhcurveto
          6 -24 -9 callsubr
          105 40 101 34 -33 callgsubr
        </CharString>
        <CharString name="ibreve">
          -41 callgsubr
          192 -153 -20 22 -20 113 58 66 18 callsubr
          hintmask 10010111
          -66 callsubr
          -27 callgsubr
          hintmask 10001111
          -62 callgsubr
          hintmask 10100011
          -91 callsubr
          hintmask 01010111
          0 57 9 43 38 73 -2 0 vhcurveto
          7 40 -2 4 rlineto
          0 -22 -3 -19 37 callgsubr
          70 5 150 6 107 vhcurveto
          -39 231 -88 callgsubr
        </CharString>
        <CharString name="icircumflex">
          -41 callgsubr
          -27 callsubr
          226 18 callsubr
          hintmask 10110110
          -66 callsubr
          -27 callgsubr
          hintmask 10101110
          -62 callgsubr
          -91 callsubr
          hintmask 01110110
          0 57 9 43 38 73 -2 0 vhcurveto
          7 40 -2 4 rlineto
          0 -22 -3 -19 37 callgsubr
          70 5 150 6 107 vhcurveto
          -173 153 -102 callgsubr
        </CharString>
        <CharString name="idieresis">
          -41 callgsubr
          219 -180 -20 22 -20 105 93 hstemhm
          122 71 hintmask 10010110
          -66 callsubr
          -27 callgsubr
          hintmask 10001110
          -62 callgsubr
          hintmask 10100010
          -91 callsubr
          hintmask 01010110
          0 57 9 43 38 73 -2 0 vhcurveto
          7 40 -2 4 rlineto
          0 -22 -3 -19 37 callgsubr
          70 5 150 6 107 vhcurveto
          36 165 -105 callsubr
        </CharString>
        <CharString name="idotaccent">
          -41 callgsubr
          230 -191 -20 22 -20 99 110 hstemhm
          122 71 hintmask 10010110
          -66 callsubr
          -27 callgsubr
          hintmask 10001110
          -62 callgsubr
          hintmask 10100010
          -91 callsubr
          hintmask 01010110
          0 57 9 43 38 73 -2 0 vhcurveto
          7 40 -2 4 rlineto
          0 -22 -3 -19 37 callgsubr
          70 5 150 6 107 vhcurveto
          -47 159 -83 callsubr
        </CharString>
        <CharString name="igrave">
          -41 callgsubr
          -27 callsubr
          221 18 callsubr
          hintmask 10110110
          -66 callsubr
          -27 callgsubr
          hintmask 10101110
          -62 callgsubr
          -91 callsubr
          hintmask 01110110
          0 57 9 43 38 73 -2 0 vhcurveto
          7 40 -2 4 rlineto
          0 -22 -3 -19 37 callgsubr
          70 5 150 6 107 vhcurveto
          -181 217 -93 callgsubr
        </CharString>
        <CharString name="ij">
          66 -94 -21 136 -21 458 -20 21 -7 callgsubr
          281 72 hintmask 1101001110000000
          -66 callsubr
          hintmask 1101100110000000
          -27 callgsubr
          hintmask 1110010110000000
          -62 callgsubr
          hintmask 1101001110000000
          -91 callsubr
          0 57 9 43 38 73 -2 0 vhcurveto
          7 40 -2 4 rlineto
          0 -22 -3 -19 37 callgsubr
          70 5 150 6 107 vhcurveto
          270 -328 -59 callsubr
          hintmask 1110100110000000
          -44 callgsubr
          endchar
        </CharString>
        <CharString name="imacron">
          -41 callgsubr
          173 -134 -20 22 -20 100 52 6 18 callsubr
          hintmask 10010101
          -66 callsubr
          -27 callgsubr
          hintmask 10001101
          -62 callgsubr
          hintmask 10100001
          -91 callsubr
          hintmask 01010011
          0 57 9 43 38 73 -2 0 vhcurveto
          7 40 -2 4 rlineto
          0 -22 -3 -19 37 callgsubr
          70 5 150 6 107 vhcurveto
          101 218 rmoveto
          hintmask 10010101
          -86 callsubr
        </CharString>
        <CharString name="infinity">
          -16 117 60 167 56 hstem
          146 400 rmoveto
          -66 -63 -62 -88 -67 36 -66 71 65 36 54 35 17 hvcurveto
          -49 26 31 -40 60 hhcurveto
          66 63 61 89 66 -36 67 -71 -64 -36 -52 -35 -18 hvcurveto
          49 -26 -34 38 -57 hhcurveto
          -5 -223 rmoveto
          -56 -31 37 50 49 33 31 35 51 28 -53 -56 27 hvcurveto
          -25 -12 -26 -33 -49 hhcurveto
          223 163 rmoveto
          56 31 -38 -49 -49 -33 -31 -35 -50 -28 53 58 -28 hvcurveto
          24 13 26 32 48 hhcurveto
          endchar
        </CharString>
        <CharString name="integral">
          -122 -158 41 673 43 hstem
          151 -42 rmoveto
          -54 -3 -26 8 callsubr
          77 56 86 5 vhcurveto
          31 513 rlineto
          39 2 24 20 28 hhcurveto
          36 35 -32 -35 14 hvcurveto
          13 hlineto
          8 10 10 44 20 vvcurveto
          21 -47 15 -40 -76 -67 -63 -71 -4 vhcurveto
          endchar
        </CharString>
        <CharString name="iogonek">
          -203 -241 59 202 -21 22 -21 459 -7 callgsubr
          hintmask 11010011
          285 -42 callsubr
          40 22 32 52 55 vhcurveto
          21 19 -1 0 hvcurveto
          7 40 -2 4 rlineto
          0 -2 -1 -2 vhcurveto
          1 1 rlineto
          -42 hlineto
          -3 -3 rlineto
          -22 2 -6 13 39 vvcurveto
          70 5 150 6 107 vhcurveto
          2 30 10 9 45 5 4 41 rcurveline
          hintmask 11011001
          -27 callgsubr
          hintmask 10110101
          -62 callgsubr
          -91 callsubr
          0 57 9 43 vhcurveto
          28 hlineto
          -53 -53 -41 -47 -47 -46 callgsubr
          endchar
        </CharString>
        <CharString name="itilde">
          -41 callgsubr
          246 -207 -20 22 -20 106 -20 42 64 -31 64 22 18 callsubr
          hintmask 1001011011000000
          -66 callsubr
          -27 callgsubr
          hintmask 1000111011000000
          -62 callgsubr
          hintmask 1010000011000000
          -91 callsubr
          hintmask 0101010111000000
          0 57 9 43 38 73 -2 0 vhcurveto
          7 40 -2 4 rlineto
          0 -22 -3 -19 37 callgsubr
          70 5 150 6 107 vhcurveto
          -177 166 -10 callgsubr
          hintmask 1001011011000000
          -23 callsubr
          89 -62 callsubr
          -55 -23 vhcurveto
          hintmask 1010000011000000
          -30 callgsubr
          -89 rlineto
          -5 vlineto
          hintmask 1001011011000000
          22 -21 rlineto
          endchar
        </CharString>
        <CharString name="j">
          -230 -94 -21 573 40 7 -20 hstemhm
          113 72 hintmask 10110000
          113 92 -59 callsubr
          hintmask 11010000
          -44 callgsubr
          endchar
        </CharString>
        <CharString name="j.sups">
          -336 219 -21 400 -20 142 85 hstem
          32 198 rmoveto
          59 32 35 52 60 vvcurveto
          177 4 103 8 15 vhcurveto
          -4 10 rlineto
          0 -63 -14 -46 -6 vhcurveto
          -3 -31 rlineto
          0 10 2 8 18 6 -8 -26 vhcurveto
          -190 vlineto
          -83 -10 -35 -37 -36 vhcurveto
          -1 -6 rlineto
          77 506 rmoveto
          26 19 19 26 24 -15 16 -24 -26 -19 -19 -26 -24 15 -16 24 hvcurveto
          endchar
        </CharString>
        <CharString name="jcircumflex">
          -230 -94 -21 573 40 239 -20 hstem
          113 72 vstem
          113 92 -59 callsubr
          -44 callgsubr
          -92 145 -97 callgsubr
          endchar
        </CharString>
        <CharString name="k">
          21 10 -2 callgsubr
          hintmask 01101100
          -59 callgsubr
          hintmask 10110100
          -84 callsubr
          endchar
        </CharString>
        <CharString name="k.sups">
          -178 364 -21 296 -20 199 -20 hstem
          23 347 rmoveto
          0 39 4 29 25 40 -2 -41 callsubr
          33 51 callgsubr
          22 202 9 177 -16 callsubr
          -37 -1 -14 -31 -4 vhcurveto
          175 14 rmoveto
          19 -30 13 -13 18 -6 6 -2 10 -2 10 1 rrcurveto
          13 34 8 0 hvcurveto
          4 26 -2 4 -26 1 -20 15 -25 33 rlinecurve
          -60 83 38 37 43 46 43 14 rlinecurve
          5 29 -2 -31 callgsubr
          -38 -3 -27 -28 -42 1 -30 callsubr
          -25 -75 callsubr
          24 10 -3 -10 -6 -4 -5 -10 -10 hvcurveto
          -69 -65 -2 -12 rlineto
          endchar
        </CharString>
        <CharString name="kcommaaccent">
          21 -272 -21 303 -2 callgsubr
          hintmask 10110110
          -59 callgsubr
          hintmask 11011010
          -84 callsubr
          18 -366 -100 callgsubr
          -35 callgsubr
        </CharString>
        <CharString name="kgreenlandic">
          21 10 -2 callgsubr
          hintmask 01101100
          -59 callgsubr
          hintmask 10110100
          -84 callsubr
          endchar
        </CharString>
        <CharString name="l">
          -80 15 callgsubr
          179 hmoveto
          -86 callgsubr
          hintmask 10110010
          33 callgsubr
          hintmask 01101010
          -63 callgsubr
          -317 rlineto
          -45 -13 -15 -42 -6 vhcurveto
          -6 -42 rlineto
          hintmask 10100110
          52 callgsubr
        </CharString>
        <CharString name="l.sups">
          -341 366 -21 473 -20 hstem
          22 345 rmoveto
          0 40 6 30 25 41 -2 -41 callsubr
          33 -1 -31 callgsubr
          -15 -1 -7 -15 -6 9 22 201 9 178 -16 callsubr
          -35 0 -15 -33 -8 vhcurveto
          endchar
        </CharString>
        <CharString name="lacute">
          -80 0 43 -30 -21 467 -27 callsubr
          221 18 callsubr
          hintmask 10110110
          179 hmoveto
          -86 callgsubr
          33 callgsubr
          hintmask 01101110
          -63 callgsubr
          -317 rlineto
          -45 -13 -15 -42 -6 vhcurveto
          -6 -42 rlineto
          hintmask 10110110
          33 callsubr
          136 647 rmoveto
          -16 48 -9 -51 callsubr
          -105 -60 -94 -49 vhcurveto
          6 -24 -9 callsubr
          105 40 101 34 -33 callgsubr
        </CharString>
        <CharString name="lcaron">
          -50 15 callgsubr
          413 495 rmoveto
          -64 -11 rlineto
          0 9 -85 -4 -87 vhcurveto
          10 -2 25 12 rlineto
          18 81 12 86 0 vvcurveto
          -240 -489 rmoveto
          -86 callgsubr
          hintmask 10110010
          33 callgsubr
          hintmask 01101010
          -63 callgsubr
          -317 rlineto
          -45 -13 -15 -42 -6 vhcurveto
          -6 -42 rlineto
          hintmask 10100110
          52 callgsubr
        </CharString>
        <CharString name="lcommaaccent">
          -80 5 callgsubr
          67 0 43 416 -7 callgsubr
          hintmask 10110011
          179 hmoveto
          -86 callgsubr
          hintmask 11011001
          33 callgsubr
          hintmask 10110101
          -63 callgsubr
          -317 rlineto
          -45 -13 -15 -42 -6 vhcurveto
          -6 -42 rlineto
          33 callsubr
          25 6 callsubr
          hintmask 11010011
          -35 callgsubr
        </CharString>
        <CharString name="ldot">
          -32 0 43 -30 -21 271 119 77 -7 callgsubr
          hintmask 10110011
          179 hmoveto
          -86 callgsubr
          hintmask 10111001
          33 callgsubr
          hintmask 01110101
          -63 callgsubr
          -317 rlineto
          -45 -13 -15 -42 -6 vhcurveto
          -6 -42 rlineto
          hintmask 10110011
          33 callsubr
          192 263 rmoveto
          -18 callsubr
        </CharString>
        <CharString name="less">
          -16 91 -21 394 -20 hstem
          39 239 rmoveto
          0 125 -52 73 -32 vhcurveto
          82 -35 106 -50 0 vvcurveto
          30 40 -1 11 rlineto
          -11 callgsubr
          -42 -91 -39 vhcurveto
          -203 -86 -2 -47 rlineto
          endchar
        </CharString>
        <CharString name="lessequal">
          -16 -73 55 -36 -21 539 -9 callgsubr
          39 239 rmoveto
          0 125 -53 73 -31 vhcurveto
          42 -18 rlineto
          72 -31 74 -37 1 vvcurveto
          30 40 rlineto
          4 -1 3 4 vvcurveto
          -11 callgsubr
          -43 -91 -38 vhcurveto
          -203 -86 -2 -47 rlineto
          451 -262 rmoveto
          -1 -1 -135 -5 -78 -17 callsubr
          hintmask 01100000
          -4 callgsubr
          hintmask 10100000
          -26 callsubr
        </CharString>
        <CharString name="logicalnot">
          -16 51 -21 205 56 6 -9 callgsubr
          452 297 rmoveto
          hintmask 11000000
          0 -104 -19 callsubr
          141 1 rlineto
          -88 -1 -112 0 vhcurveto
          9 -6 49 11 rlineto
          0 -1 66 70 vvcurveto
          1 47 7 63 -33 callgsubr
        </CharString>
        <CharString name="lozenge">
          -16 -73 -21 745 -20 hstem
          61 262 rmoveto
          80 -164 85 -185 11 -7 47 2 87 189 76 174 -2 26 -78 162 -85 185 -11 7 -47 -2 -87 -189 -77 -177 rlineto
          125 156 rmoveto
          60 143 rlineto
          6 hlineto
          70 -156 69 -146 -67 -162 -60 -143 rlineto
          -6 hlineto
          -70 156 -69 145 rlineto
          endchar
        </CharString>
        <CharString name="lslash">
          -68 0 43 -30 -21 467 1 callsubr
          134 71 hintmask 10100110
          191 hmoveto
          82 141 -7 -22 callsubr
          9 82 14 75 0 vvcurveto
          -3 6 -44 -5 rlineto
          -98 -17 -17 -16 -91 hhcurveto
          -56 -9 8 48 41 0 54 2 55 hvcurveto
          155 72 -7 32 -7 4 -139 -66 1 37 2 35 3 33 rlinecurve
          4 48 -3 12 55 7 4 42 rcurveline
          hintmask 10110010
          33 callgsubr
          hintmask 01101010
          -63 callgsubr
          -155 -66 -32 6 -32 8 -2 52 25 rlineto
          -121 vlineto
          -45 -13 -15 -42 -6 vhcurveto
          -6 -42 rlineto
          hintmask 10100110
          52 callgsubr
        </CharString>
        <CharString name="m">
          193 0 40 -33 -21 29 -21 504 -20 25 -20 hstemhm
          hintmask 00101000
          360 -8 rmoveto
          52 140 52 138 46 117 rrcurveto
          5 hlineto
          0 25 -285 -28 vvcurveto
          -24 -14 -11 -34 -4 vhcurveto
          -4 -41 rlineto
          hintmask 10001000
          2 59 6 33 hhcurveto
          31 49 -2 0 hvcurveto
          7 40 -2 -31 callgsubr
          -13 -1 -10 -26 -7 14 59 -7 vhcurveto
          -9 103 -12 180 26 vvcurveto
          27 16 11 47 5 vhcurveto
          5 35 -2 3 rlineto
          hintmask 00110000
          0 -61 -5 -26 -21 -39 2 -1 -6 vhcurveto
          -72 -207 -61 -156 0 vvcurveto
          -5 hlineto
          0 -62 155 -67 210 vhcurveto
          0 -38 -3 -27 -27 -66 4 0 vhcurveto
          -7 -33 3 -5 rlineto
          50 -3 19 -11 -27 vvcurveto
          -23 -29 -258 -6 -48 vhcurveto
          -5 -41 -13 -14 -34 -4 -4 -41 rcurveline
          hintmask 10001000
          0 41 6 32 28 57 -38 callgsubr
          7 40 -2 3 rlineto
          -32 hlineto
          -18 -8 7 17 20 25 303 0 hvcurveto
          5 hlineto
          hintmask 01001000
          47 -119 51 -138 53 -144 rrcurveto
          endchar
        </CharString>
        <CharString name="m.sups">
          31 9 callsubr
          38 -2 0 vhcurveto
          6 34 51 callgsubr
          23 vhcurveto
          8 147 rlineto
          9 12 27 18 25 hhcurveto
          31 16 -21 -39 hvcurveto
          -2 -115 -1 -22 -8 -9 -22 -4 rlinecurve
          -3 -33 rlineto
          0 40 3 26 24 41 -21 callsubr
          -13 -1 -8 -15 -6 8 24 vhcurveto
          33 10 92 23 vvcurveto
          51 -35 31 -57 -21 -54 -39 -13 -16 vhcurveto
          33 -11 -30 19 -45 hhcurveto
          hintmask 10100000
          -19 -50 -35 -15 -20 hvcurveto
          -1 -26 callgsubr
          -9 -24 -2 vhcurveto
          -5 -34 rlineto
          0 40 2 31 24 50 callsubr
          -13 -1 -6 -16 -5 8 23 21 4 81 2 45 9 callgsubr
          -22 -5 vhcurveto
          endchar
        </CharString>
        <CharString name="macron">
          595 52 -32 -21 59 4 callgsubr
          343 653 -18 callgsubr
        </CharString>
        <CharString name="macron.cap">
          720 52 -32 -21 59 4 callgsubr
          343 778 -18 callgsubr
        </CharString>
        <CharString name="minus">
          -16 235 56 -36 -21 63 4 callgsubr
          482 297 rmoveto
          hintmask 10000000
          14 callsubr
          hintmask 10000000
          41 callgsubr
          endchar
        </CharString>
        <CharString name="mu">
          -2 -221 -21 230 71 405 -20 hstem
          72 445 rmoveto
          -5 -7 rlineto
          0 8 -58 -1 -52 vhcurveto
          -6 -255 rlineto
          -4 -161 -11 -142 0 vvcurveto
          7 -12 66 15 5 -6 callsubr
          -10 91 2 51 vhcurveto
          10 1 10 10 vvcurveto
          3 59 5 3 rlineto
          -15 19 24 -11 32 hhcurveto
          43 9 60 48 26 22 6 -2 rcurveline
          -51 3 34 -26 52 hhcurveto
          34 53 80 0 hvcurveto
          -14 16 rlineto
          0 -28 -25 -32 -26 -15 17 29 162 10 155 12 30 vhcurveto
          -6 12 -86 -18 -5 -7 rlineto
          0 7 -59 -34 vvcurveto
          -233 vlineto
          0 -59 -56 -53 -60 -24 36 62 133 15 134 11 30 vhcurveto
          -6 12 rlineto
          endchar
        </CharString>
        <CharString name="multiply">
          -16 101 -21 369 -20 hstem
          392 449 rmoveto
          0 -83 -90 -56 -58 vhcurveto
          -62 62 -78 79 0 vvcurveto
          -43 -26 -2 -11 rlineto
          0 82 -82 63 -62 vhcurveto
          -62 -62 -76 -74 0 vvcurveto
          27 -42 11 -3 rlineto
          0 77 79 63 63 vhcurveto
          139 -138 42 30 3 12 rlineto
          0 -87 78 -58 57 vhcurveto
          142 143 -31 42 rlineto
          endchar
        </CharString>
        <CharString name="n">
          24 callsubr
          26 -20 hstemhm
          hintmask 11110000
          -99 callgsubr
          hintmask 11101000
          4 41 rlineto
          hintmask 11110000
          -57 callgsubr
          endchar
        </CharString>
        <CharString name="n.sups">
          -141 9 callsubr
          50 callsubr
          -14 -1 -7 -15 -6 9 23 vhcurveto
          33 10 92 23 vvcurveto
          51 -35 31 -57 vhcurveto
          hintmask 10100000
          -19 -51 -36 -14 -18 hvcurveto
          -2 -26 callgsubr
          -10 -25 -3 vhcurveto
          -4 -34 rlineto
          0 40 4 31 24 50 callsubr
          -13 -1 -6 -16 -5 8 23 21 4 82 2 44 9 callgsubr
          -23 -5 vhcurveto
          endchar
        </CharString>
        <CharString name="nacute">
          24 callsubr
          223 -20 hstem
          -99 callgsubr
          4 41 rlineto
          -57 callgsubr
          3 511 rmoveto
          -16 48 -9 -51 callsubr
          -105 -60 -94 -49 vhcurveto
          6 -24 -9 callsubr
          105 40 101 34 -33 callgsubr
        </CharString>
        <CharString name="nbspace">
          -320 endchar
        </CharString>
        <CharString name="ncaron">
          24 callsubr
          220 -20 hstem
          -99 callgsubr
          4 41 rlineto
          -57 callgsubr
          -15 561 -105 callgsubr
        </CharString>
        <CharString name="ncommaaccent">
          92 -272 -21 314 -21 458 -20 60 -20 26 -20 hstemhm
          hintmask 11110000
          -99 callgsubr
          hintmask 11101000
          4 41 rlineto
          hintmask 11110000
          -57 callgsubr
          -201 -243 -100 callgsubr
          -35 callgsubr
        </CharString>
        <CharString name="nine">
          -67 -84 20 callsubr
          36 74 225 80 vstem
          65 -70 -50 callgsubr
        </CharString>
        <CharString name="nine.dnom">
          -210 14 12 callsubr
          24 -85 callgsubr
        </CharString>
        <CharString name="nine.lf">
          -67 10 20 callsubr
          36 74 225 80 vstem
          65 24 -50 callgsubr
        </CharString>
        <CharString name="nine.numr">
          -210 281 12 callsubr
          291 -85 callgsubr
        </CharString>
        <CharString name="nine.sinf">
          -210 -106 12 callsubr
          -96 -85 callgsubr
        </CharString>
        <CharString name="nine.sups">
          -210 365 12 callsubr
          375 -85 callgsubr
        </CharString>
        <CharString name="nine.tf">
          -72 10 20 callsubr
          35 74 223 79 vstem
          63 24 rmoveto
          12 -30 6 -5 rlineto
          0 330 100 301 vvcurveto
          118 -68 91 -111 -117 -80 -87 -105 -76 57 -88 114 30 80 52 0 vhcurveto
          3 -3 rlineto
          -50 -195 -206 -73 0 vvcurveto
          165 278 rmoveto
          -72 -47 60 69 75 40 45 64 73 46 -67 -100 -16 -1 -15 -2 -14 hvcurveto
          -11 -16 -41 -26 -44 hhcurveto
          endchar
        </CharString>
        <CharString name="nine.tosf">
          -82 -84 20 callsubr
          32 74 219 79 vstem
          61 -70 rmoveto
          11 -30 7 -5 rlineto
          0 325 100 301 vvcurveto
          118 -68 91 -109 -116 -79 -87 -105 -76 57 -88 112 29 79 52 0 vhcurveto
          3 -3 rlineto
          -50 -195 -201 -73 0 vvcurveto
          162 278 rmoveto
          -71 -46 60 69 75 40 45 62 72 45 -67 -100 -16 -1 -15 -2 -14 hvcurveto
          -11 -16 -40 -26 -43 hhcurveto
          endchar
        </CharString>
        <CharString name="notequal">
          -16 45 -21 134 56 101 56 135 -20 hstem
          482 377 rmoveto
          0 -112 -5 -81 -1 vhcurveto
          34 125 -8 10 rlineto
          -26 hlineto
          -36 -135 rlineto
          -90 -134 12 callgsubr
          125 1 89 vhcurveto
          -26 -101 rlineto
          -85 -98 12 callgsubr
          90 1 83 vhcurveto
          -33 -126 7 -8 rlineto
          26 hlineto
          35 134 rlineto
          21 hlineto
          76 75 1 76 hhcurveto
          8 51 -6 10 rlineto
          -1 -161 -5 -74 vhcurveto
          27 101 rlineto
          69 68 1 69 hhcurveto
          8 51 rlineto
          endchar
        </CharString>
        <CharString name="ntilde">
          24 callsubr
          93 30 callsubr
          hintmask 11110100
          -99 callgsubr
          4 41 rlineto
          -57 callgsubr
          -281 423 3 callsubr
          hintmask 11111010
          -67 callsubr
          hintmask 11110100
          -54 callsubr
        </CharString>
        <CharString name="numbersign">
          -24 56 -21 173 46 108 44 167 -20 hstem
          51 362 rmoveto
          109 1 -12 -52 -13 -57 -109 1 -15 -37 3 -10 111 1 -37 -168 7 -6 39 8 37 166 36 1 70 -1 -37 -168 7 -6 39 8 36 165 102 -1 19 36 -4 9 rlineto
          -107 hlineto
          16 71 9 39 104 -1 19 36 -4 9 rlineto
          -108 hlineto
          39 161 -8 6 -40 -5 -37 -162 -53 1 rlineto
          -53 hlineto
          39 160 -8 6 -40 -5 -37 -160 -107 1 -15 -37 rlineto
          148 -49 rmoveto
          10 40 38 1 68 -1 -12 -52 -13 -59 -55 1 rlineto
          -52 hlineto
          endchar
        </CharString>
        <CharString name="o">
          -16 callgsubr
          -34 callgsubr
          -101 callsubr
          endchar
        </CharString>
        <CharString name="o.sups">
          -45 callsubr
        </CharString>
        <CharString name="oacute">
          -16 callgsubr
          194 -20 -34 callgsubr
          -101 callsubr
          167 656 rmoveto
          -16 48 -9 -51 callsubr
          -105 -60 -94 -49 vhcurveto
          6 -24 -9 callsubr
          105 40 101 34 -33 callgsubr
        </CharString>
        <CharString name="obreve">
          -16 callgsubr
          86 58 66 -20 -34 callgsubr
          -101 callsubr
          16 660 -88 callgsubr
        </CharString>
        <CharString name="ocircumflex">
          -16 callgsubr
          199 -20 -34 callgsubr
          -101 callsubr
          -102 582 -102 callgsubr
        </CharString>
        <CharString name="odieresis">
          -16 callgsubr
          78 93 -34 callgsubr
          -101 callsubr
          107 594 -105 callsubr
        </CharString>
        <CharString name="oe">
          285 -9 52 186 50 172 45 -43 -20 73 -20 21 -20 hstemhm
          42 84 300 72 hintmask 11100011
          490 90 rmoveto
          3 137 63 5 rlineto
          44 69 -2 0 hvcurveto
          12 52 -4 5 rlineto
          0 -70 -8 -29 vhcurveto
          -83 1 6 142 rlineto
          27 1 3 2 50 hhcurveto
          109 12 -5 -49 -11 -2 -22 0 hvcurveto
          48 4 rlineto
          5 72 14 62 0 vvcurveto
          hintmask 11010111
          -3 5 rlineto
          hintmask 11100011
          -7 -58 -78 -4 -115 hhcurveto
          hintmask 11011011
          -68 -57 10 -56 hhcurveto
          -151 -113 -115 -158 -145 91 -97 134 hvcurveto
          56 66 10 82 hhcurveto
          84 168 -6 0 hvcurveto
          5 5 rlineto
          8 70 14 66 46 callgsubr
          -44 -4 rlineto
          -84 -13 -15 -10 -123 hhcurveto
          -56 -6 5 42 hvcurveto
          -200 -51 rmoveto
          -99 -65 86 136 116 65 76 96 109 31 -19 -73 hvcurveto
          -1 -200 rlineto
          -89 -1 -37 -33 -98 hhcurveto
          endchar
        </CharString>
        <CharString name="ogonek">
          -241 59 224 -20 hstem
          290 -42 callsubr
          49 34 37 82 84 vhcurveto
          -42 hlineto
          -72 -72 -65 -59 -58 -46 callgsubr
          endchar
        </CharString>
        <CharString name="ograve">
          -16 callgsubr
          194 -20 -34 callgsubr
          -101 callsubr
          -101 646 -93 callgsubr
        </CharString>
        <CharString name="ohungarumlaut">
          -16 callgsubr
          190 -20 -34 callgsubr
          -101 callsubr
          89 659 rmoveto
          -22 43 -9 4 48 callsubr
          -53 vhcurveto
          9 -21 8 -5 17 callsubr
          143 hmoveto
          -22 42 -9 5 48 callsubr
          -54 vhcurveto
          10 -21 7 -4 17 callsubr
          endchar
        </CharString>
        <CharString name="omacron">
          -16 callgsubr
          73 52 callsubr
          41 85 332 86 hintmask 11011100
          -101 callsubr
          172 647 rmoveto
          hintmask 11101100
          -86 callsubr
        </CharString>
        <CharString name="one">
          -168 -28 callgsubr
          517 4 callgsubr
          219 404 51 callsubr
          -2 0 -2 -16 -99 hvcurveto
          -51 -8 -59 -7 0 26 callgsubr
          -228 vlineto
          -88 -16 -20 -74 -6 -55 callgsubr
          hintmask 10100000
          7 callgsubr
          2 135 4 106 vhcurveto
          endchar
        </CharString>
        <CharString name="one.dnom">
          -273 14 -21 28 -21 377 -9 callgsubr
          163 311 -87 callgsubr
          hintmask 01100000
          -64 callsubr
          endchar
        </CharString>
        <CharString name="one.lf">
          -168 9 -21 33 -21 598 -9 callgsubr
          222 497 51 callsubr
          -1 -2 -2 -16 -100 hvcurveto
          -51 -9 -59 -7 1 26 callgsubr
          -317 vlineto
          -91 -14 -21 -76 -6 -55 callgsubr
          hintmask 01100000
          7 callgsubr
          4 228 4 106 vhcurveto
          endchar
        </CharString>
        <CharString name="one.numr">
          -273 281 -21 330 -20 74 -20 hstem
          163 578 -87 callgsubr
          -64 callsubr
          endchar
        </CharString>
        <CharString name="one.sinf">
          -273 -120 -20 34 -21 384 4 callgsubr
          163 191 -87 callgsubr
          hintmask 10100000
          -64 callsubr
          endchar
        </CharString>
        <CharString name="one.sups">
          -273 365 -21 384 -20 hstem
          163 662 -87 callgsubr
          -64 callsubr
          endchar
        </CharString>
        <CharString name="one.tf">
          -72 9 -21 33 -21 598 -9 callgsubr
          270 497 rmoveto
          3 46 9 16 31 22 -6 17 rcurveline
          -1 6 -2 -16 -116 hvcurveto
          -60 -9 -70 -7 5 1 -4 -42 rcurveline
          3 -3 rlineto
          0 37 6 25 38 25 -6 -51 vhcurveto
          -317 vlineto
          -91 -15 -21 -89 50 callgsubr
          57 56 95 -78 callsubr
          -34 -3 -28 -46 -11 15 53 51 4 228 4 106 vhcurveto
          endchar
        </CharString>
        <CharString name="one.tosf">
          -82 9 -21 33 -21 505 -9 callgsubr
          261 404 rmoveto
          3 46 9 16 30 22 -6 17 rcurveline
          -2 8 -2 -16 -113 hvcurveto
          -8 -59 -69 -7 5 hhcurveto
          -5 -42 3 -3 rlineto
          0 37 6 24 38 24 -6 -51 vhcurveto
          -228 vlineto
          -88 -17 -20 -85 50 callgsubr
          55 56 94 -78 callsubr
          -34 -3 -27 -45 -12 15 53 51 2 135 4 106 vhcurveto
          endchar
        </CharString>
        <CharString name="onedotenleader">
          -284 -12 119 hstem
          116 -39 callgsubr
          endchar
        </CharString>
        <CharString name="onehalf">
          191 -74 -21 95 51 539 -20 74 -20 54 -20 hstem
          163 578 -87 callgsubr
          -64 callsubr
          420 81 -83 callgsubr
          -174 -652 rmoveto
          -92 callgsubr
        </CharString>
        <CharString name="onequarter">
          163 -74 -21 200 47 0 115 323 -20 74 -20 54 -20 hstem
          163 578 -87 callgsubr
          -64 callsubr
          420 81 -83 callgsubr
          -204 -538 rmoveto
          154 -3 rlineto
          -47 -4 -58 -12 callsubr
          -6 61 7 4 -51 callsubr
          -3 49 -1 48 vhcurveto
          54 -2 6 44 -5 7 rlineto
          -55 219 hlineto
          -39 6 -3 -1 -172 -235 rlineto
          146 136 rmoveto
          6 -125 -96 hlineto
          endchar
        </CharString>
        <CharString name="ordfeminine">
          -67 callgsubr
        </CharString>
        <CharString name="ordmasculine">
          -45 callsubr
        </CharString>
        <CharString name="oslash">
          63 -56 -21 68 48 412 56 46 -65 callgsubr
          endchar
        </CharString>
        <CharString name="oslashacute">
          63 -56 -21 68 48 412 56 199 -65 callgsubr
          294 392 rmoveto
          -16 48 -9 -51 callsubr
          -105 -60 -94 -49 vhcurveto
          6 -24 -9 callsubr
          105 40 101 34 -33 callgsubr
        </CharString>
        <CharString name="otilde">
          -16 callgsubr
          64 30 callsubr
          41 85 332 86 hintmask 11010110
          -101 callsubr
          -107 568 3 callsubr
          hintmask 11101110
          -67 callsubr
          hintmask 11010110
          -54 callsubr
        </CharString>
        <CharString name="p">
          -43 0 40 -25 -21 460 47 -42 -20 59 -20 22 18 callsubr
          179 81 hintmask 01011011
          63 462 rmoveto
          3 -4 rlineto
          0 17 1 11 22 7 -9 -33 -37 callsubr
          -44 -12 -12 -46 -8 vhcurveto
          -6 -41 rlineto
          hintmask 10100011
          2 1 81 4 44 hhcurveto
          28 54 -2 0 hvcurveto
          8 40 -2 4 rlineto
          0 -27 -2 -16 -32 -4 9 67 vhcurveto
          1 70 rlineto
          69 hlineto
          99 91 83 90 85 -58 57 -123 hvcurveto
          hintmask 10011011
          0 -85 -3 -24 vhcurveto
          hintmask 10010111
          -32 -57 2 -5 hhcurveto
          127 -260 rmoveto
          1 64 4 73 4 65 rrcurveto
          hintmask 10100011
          12 1 2 0 18 hhcurveto
          101 45 -34 -75 -67 -31 -39 -62 -10 hvcurveto
          endchar
        </CharString>
        <CharString name="p.sups">
          -163 206 183 -166 -21 142 45 201 55 -48 -20 70 -20 hstemhm
          hintmask 01110000
          36 235 rmoveto
          -4 -33 rlineto
          hintmask 10010000
          0 37 4 36 vhcurveto
          23 33 -1 15 hhcurveto
          6 33 -1 2 rlineto
          -6 -10 -1 -9 hhcurveto
          -22 -4 11 35 hvcurveto
          61 vlineto
          hintmask 01110000
          0 24 -2 12 93 72 69 96 81 -50 55 -76 -8 -25 -16 -28 -35 vhcurveto
          -3 3 rlineto
          2 18 5 19 0 vvcurveto
          hintmask 10001100
          -5 -51 callsubr
          -53 -12 -52 -7 vhcurveto
          -3 -28 2 -3 rlineto
          8 hlineto
          24 8 -10 -28 hvcurveto
          -182 vlineto
          -3 -100 rlineto
          -32 -5 -7 -26 -3 vhcurveto
          95 164 rmoveto
          50 2 67 3 51 vhcurveto
          hintmask 10010000
          14 18 22 9 15 hhcurveto
          42 30 -43 -62 -61 -29 -35 -48 -19 -23 5 5 -13 hvcurveto
          endchar
        </CharString>
        <CharString name="paragraph">
          39 -105 47 650 49 -4 -9 callgsubr
          341 134 rmoveto
          -140 -17 -52 -84 -57 -39 46 90 vhcurveto
          -15 hlineto
          -20 -23 -18 -39 -27 vvcurveto
          -65 65 -29 69 157 26 96 163 77 2 259 9 59 vhcurveto
          3 36 16 12 61 -3 2 4 rcurveline
          6 42 rlineto
          0 -87 -3 -38 vhcurveto
          hintmask 11000000
          -26 -53 4 -50 hhcurveto
          -130 -81 -88 -108 -151 115 -71 128 -11 hvcurveto
          15 vlineto
          -47 64 -22 55 99 vvcurveto
          86 31 61 67 26 0 -1 -13 1 vhcurveto
          endchar
        </CharString>
        <CharString name="parenleft">
          -213 -125 -21 795 -20 hstem
          84 163 rmoveto
          -242 185 -67 0 vhcurveto
          4 hlineto
          21 26 rlineto
          5 vlineto
          0 -143 70 223 vvcurveto
          173 vlineto
          207 137 58 0 vhcurveto
          1 4 -13 29 rlineto
          -4 hlineto
          0 -188 -68 -245 vvcurveto
          endchar
        </CharString>
        <CharString name="parenright">
          -213 -125 -21 795 -20 hstem
          225 340 rmoveto
          242 -185 67 0 vhcurveto
          -4 hlineto
          -21 -26 rlineto
          -5 vlineto
          0 143 -70 -223 vvcurveto
          -173 vlineto
          -207 -137 -58 0 vhcurveto
          -1 -4 13 -29 rlineto
          4 hlineto
          0 188 68 245 vvcurveto
          endchar
        </CharString>
        <CharString name="partialdiff">
          -14 -12 49 362 54 288 -20 hstem
          43 80 260 82 vstem
          340 427 rmoveto
          0 -48 26 -31 -121 -97 -108 -139 -109 64 -109 136 129 93 115 139 242 -178 168 -209 89 vhcurveto
          -10 -4 -15 -33 133 -62 103 -85 53 -128 rlinecurve
          41 -223 rmoveto
          -107 -45 -62 -67 -93 -55 89 109 108 48 56 77 73 35 -34 -13 11 vhcurveto
          10 -44 6 -49 -53 vvcurveto
          endchar
        </CharString>
        <CharString name="percent">
          149 -74 -21 83 64 193 66 15 64 193 66 29 -20 hstem
          184 390 -72 callgsubr
          353 -274 -72 callgsubr
          78 671 -83 callgsubr
          endchar
        </CharString>
        <CharString name="period">
          -284 -12 119 hstem
          116 -39 callgsubr
          endchar
        </CharString>
        <CharString name="periodcentered">
          -284 168 119 hstem
          116 168 rmoveto
          -18 callsubr
        </CharString>
        <CharString name="perthousand">
          482 -74 -21 83 64 193 66 15 64 193 66 29 -20 hstem
          184 390 -72 callgsubr
          353 -274 -72 callgsubr
          347 64 -72 callgsubr
          -255 671 -83 callgsubr
          endchar
        </CharString>
        <CharString name="pi">
          78 -81 -21 90 64 393 50 10 -20 hstemhm
          140 73 157 77 hintmask 11101100
          431 153 rmoveto
          39 7 78 9 120 vhcurveto
          46 3 18 9 89 hhcurveto
          7 7 10 46 rlineto
          hintmask 11011100
          -6 7 rlineto
          hintmask 11101100
          0 -87 -10 -58 vhcurveto
          hintmask 11011100
          -59 -171 10 -114 hhcurveto
          -15 -7 -60 -98 1 -7 26 -18 7 1 rlineto
          0 29 66 31 34 8 -11 -45 -179 -11 -281 -7 -16 vhcurveto
          6 -12 72 16 5 -6 callsubr
          -4 53 48 vvcurveto
          80 7 208 5 82 vhcurveto
          46 3 6 4 66 hhcurveto
          80 5 -3 -51 hvcurveto
          -5 -269 rlineto
          -90 36 -41 81 8 36 46 11 vhcurveto
          -5 7 rlineto
          -66 -27 30 71 hvcurveto
          endchar
        </CharString>
        <CharString name="plus">
          -16 51 -21 205 56 209 -20 hstem
          274 500 rmoveto
          -51 -8 -1 -201 rlineto
          -87 -106 12 callgsubr
          110 1 88 vhcurveto
          -88 -1 -111 0 vhcurveto
          9 -6 49 11 rlineto
          0 -1 106 88 vvcurveto
          202 1 38 callgsubr
          123 0 vhcurveto
          endchar
        </CharString>
        <CharString name="plusminus">
          -16 -73 58 -39 -21 323 56 199 -20 hstemhm
          hintmask 10110000
          274 503 rmoveto
          -51 -8 rlineto
          -64 -1 -63 -64 vvcurveto
          -87 -106 12 callgsubr
          110 1 88 vhcurveto
          -86 -1 -103 0 vhcurveto
          9 -6 49 11 rlineto
          0 -1 99 85 vvcurveto
          67 68 1 67 hhcurveto
          38 callgsubr
          113 0 vhcurveto
          198 -509 rmoveto
          -1 -34 -1 -43 -1 vhcurveto
          -2 -44 -53 -1 -40 -17 callsubr
          hintmask 01110000
          -4 callgsubr
          hintmask 10110000
          -26 callsubr
        </CharString>
        <CharString name="product">
          186 -28 callgsubr
          596 53 -49 -20 78 -20 hstemhm
          143 70 -70 84 263 70 -70 84 hintmask 1001110010000000
          574 538 rmoveto
          2 38 14 12 56 7 4 51 rcurveline
          hintmask 1010010100000000
          -4 -3 -113 -5 -38 hhcurveto
          -308 hlineto
          -41 -78 3 0 hvcurveto
          -7 -50 -75 callsubr
          hintmask 0101110100000000
          0 27 2 15 -49 callsubr
          -138 -1 -138 -138 vvcurveto
          -58 -19 -16 -61 -44 callsubr
          hintmask 1010010100000000
          5 2 101 7 53 hhcurveto
          43 48 -4 1 hvcurveto
          9 46 -2 4 rlineto
          0 -29 -3 -24 -12 -8 2 4 -7 vhcurveto
          -13 8 -4 19 35 vvcurveto
          hintmask 0110001100000000
          76 6 193 8 157 vhcurveto
          40 2 21 6 107 hhcurveto
          118 15 -4 -46 hvcurveto
          -138 -1 -139 -137 vvcurveto
          -58 -19 -16 -61 -44 callsubr
          hintmask 1010010100000000
          0 65 12 51 47 84 -78 callsubr
          -29 -3 -24 -35 -9 15 53 vhcurveto
          hintmask 1010010010000000
          76 6 193 8 157 vhcurveto
          endchar
        </CharString>
        <CharString name="q">
          68 -172 73 90 48 412 56 -34 callgsubr
          271 -9 rmoveto
          -138 191 48 -25 77 hhcurveto
          18 68 57 0 hvcurveto
          -6 20 -4 4 rlineto
          0 -29 -8 -38 -64 -70 28 70 -110 vhcurveto
          5 vlineto
          113 33 79 102 127 vvcurveto
          145 -93 96 -140 -154 -116 -116 -158 -145 92 -97 138 vhcurveto
          24 48 rmoveto
          -101 -68 87 134 116 63 75 95 104 70 -86 -134 -116 -66 -76 -97 hvcurveto
          endchar
        </CharString>
        <CharString name="q.sups">
          -174 206 190 -171 -21 140 52 204 46 10 -20 hstemhm
          hintmask 01110000
          176 204 rmoveto
          hintmask 10001000
          0 44 2 30 vhcurveto
          72 hlineto
          4 33 -1 1 rlineto
          -17 hlineto
          -18 -3 7 39 204 5 141 8 18 hvcurveto
          -6 -6 callsubr
          -18 -8 -22 -8 vhcurveto
          hintmask 01110000
          4 -23 -23 2 -19 hhcurveto
          -91 -70 -71 -93 -84 49 -54 74 8 27 16 28 40 hvcurveto
          -2 -113 -1 -31 -7 -6 -36 -2 rlinecurve
          46 187 rmoveto
          0 -30 -27 -27 -42 -31 45 41 callsubr
        </CharString>
        <CharString name="question">
          -162 -12 119 519 68 hstem
          108 203 rmoveto
          9 -4 61 17 3 8 -21 95 3 9 rlineto
          75 54 91 35 112 vvcurveto
          91 -101 70 -123 4 vhcurveto
          -14 -4 -33 -53 2 -11 rlineto
          121 -7 82 -39 -81 vvcurveto
          -37 -26 -28 -31 -21 vhcurveto
          -119 -76 -3 -14 rlineto
          59 -335 rmoveto
          -18 callsubr
        </CharString>
        <CharString name="questiondown">
          -162 -242 68 519 119 hstem
          252 249 rmoveto
          -9 4 -61 -17 -3 -8 21 -95 -3 -9 rlineto
          -75 -54 -91 -35 -112 vvcurveto
          -91 101 -70 123 -4 vhcurveto
          14 4 33 53 -2 11 rlineto
          -121 7 -82 39 81 vvcurveto
          37 26 28 31 21 vhcurveto
          119 76 3 14 rlineto
          -59 335 20 callgsubr
          endchar
        </CharString>
        <CharString name="quotedbl">
          -224 436 -21 234 -20 hstem
          129 649 -57 callsubr
          115 8 -57 callsubr
          endchar
        </CharString>
        <CharString name="quotedblbase">
          -125 -106 49 callgsubr
          63 59 -100 callgsubr
          -77 callsubr
          153 -14 -100 callgsubr
          -35 callgsubr
        </CharString>
        <CharString name="quotedblleft">
          -191 29 callsubr
          297 463 -47 callgsubr
          -153 14 -47 callgsubr
          endchar
        </CharString>
        <CharString name="quotedblright">
          -191 29 callsubr
          189 609 -100 callgsubr
          -77 callsubr
          -157 -14 -100 callgsubr
          -35 callgsubr
        </CharString>
        <CharString name="quoteleft">
          -346 29 callsubr
          142 463 -47 callgsubr
          endchar
        </CharString>
        <CharString name="quoteright">
          -346 29 callsubr
          34 609 -100 callgsubr
          -35 callgsubr
        </CharString>
        <CharString name="quotesinglbase">
          -284 -136 -21 256 -20 hstem
          -48 callsubr
          endchar
        </CharString>
        <CharString name="quotesingle">
          -346 436 -21 234 -20 hstem
          129 649 -57 callsubr
          endchar
        </CharString>
        <CharString name="r">
          11 callsubr
          hstemhm
          122 72 168 81 hintmask 10100110
          -69 callsubr
          hintmask 10011110
          0 -77 -3 -30 -31 -63 -36 callgsubr
          rlineto
          hintmask 10100110
          3 -4 rlineto
          hintmask 01011110
          -81 callsubr
          hintmask 10100110
          -24 callsubr
          endchar
        </CharString>
        <CharString name="r.sups">
          -248 369 -21 229 66 -46 -20 70 -10 callsubr
          41 382 rmoveto
          -4 -34 rlineto
          0 36 3 38 28 48 -2 -41 callsubr
          36 -1 -31 callgsubr
          -20 -1 -10 -22 -6 7 25 12 6 112 0 vhcurveto
          21 15 19 13 16 hhcurveto
          14 4 -9 -38 hvcurveto
          34 2 rlineto
          2 46 10 59 0 vvcurveto
          -3 4 rlineto
          0 -9 2 -13 -28 -34 -25 -39 -27 vhcurveto
          -3 2 rlineto
          28 6 33 0 vhcurveto
          hintmask 10110000
          -5 5 rlineto
          0 -55 -12 -49 -8 vhcurveto
          -2 -27 3 -4 rlineto
          0 6 1 6 20 6 -10 -28 vhcurveto
          -130 vlineto
          -36 -6 -9 -26 -2 vhcurveto
          endchar
        </CharString>
        <CharString name="racute">
          11 callsubr
          223 39 callgsubr
          hintmask 10100111
          -69 callsubr
          hintmask 10011111
          0 -77 -3 -30 -31 -63 -36 callgsubr
          rlineto
          hintmask 10100111
          3 -4 rlineto
          hintmask 01011111
          -81 callsubr
          hintmask 10100111
          -24 callsubr
          135 395 rmoveto
          -16 48 -9 -51 callsubr
          -105 -60 -94 -49 vhcurveto
          6 -24 -9 callsubr
          105 40 101 34 -33 callgsubr
        </CharString>
        <CharString name="radical">
          -16 9 -21 754 -20 hstem
          77 366 rmoveto
          34 -84 108 -294 0 vvcurveto
          63 20 222 734 rlineto
          -45 hlineto
          -15 -13 -187 -641 rlineto
          -6 hlineto
          0 -102 284 -8 75 vhcurveto
          -8 8 -41 -2 rlineto
          -23 -1 -60 -3 0 vvcurveto
          -5 -33 3 -4 27 1 28 -8 15 -39 rlinecurve
          endchar
        </CharString>
</ttFont>
